<?xml version="1.0" standalone="no"?>
<!DOCTYPE svg PUBLIC "-//W3C//DTD SVG 20010904//EN"
 "http://www.w3.org/TR/2001/REC-SVG-20010904/DTD/svg10.dtd">
<svg version="1.0" xmlns="http://www.w3.org/2000/svg"
 width="1024.000000pt" height="1024.000000pt" viewBox="0 0 1024.000000 1024.000000"
 preserveAspectRatio="xMidYMid meet">

<g transform="translate(0.000000,1024.000000) scale(0.100000,-0.100000)"
fill="#000000" stroke="none">
<path d="M7412 9279 c-71 -21 -135 -76 -361 -314 -208 -217 -236 -244 -250
-231 -9 7 -41 26 -71 42 -49 25 -66 28 -145 28 -109 0 -179 -28 -249 -97 -126
-127 -154 -265 -89 -454 l24 -72 -134 -146 c-170 -185 -192 -225 -192 -350 0
-127 27 -178 157 -306 l99 -96 -203 -140 c-396 -272 -524 -352 -756 -468 -337
-168 -653 -245 -1002 -245 -143 0 -409 21 -525 41 -573 99 -1038 253 -1600
529 -265 130 -310 145 -418 137 -304 -21 -501 -373 -362 -647 47 -93 97 -141
255 -245 564 -371 1087 -609 1665 -760 77 -20 143 -39 147 -43 4 -4 12 -70 17
-147 48 -650 99 -1127 146 -1360 46 -229 105 -400 301 -872 141 -339 163 -407
151 -453 -9 -35 -45 -122 -252 -610 -217 -513 -242 -586 -231 -694 8 -75 55
-164 116 -219 98 -88 548 -323 676 -353 222 -52 428 62 464 257 19 100 -15
206 -91 293 -25 29 -38 50 -33 58 4 7 108 164 229 348 323 488 365 562 412
728 30 109 41 288 24 416 -19 143 -108 456 -170 600 -12 27 -20 50 -18 52 1 2
32 -4 67 -12 341 -79 558 -164 791 -311 206 -130 384 -267 966 -745 150 -124
294 -235 319 -248 59 -29 163 -41 225 -25 105 26 151 71 400 386 36 46 124
158 196 249 157 199 188 246 213 329 72 231 -74 460 -305 479 -103 8 -175 -22
-344 -145 -14 -10 -29 0 -101 70 -47 45 -191 183 -320 307 -467 449 -587 548
-790 650 -148 74 -335 131 -715 217 l-80 18 2 95 c2 52 12 275 24 495 l20 400
28 25 c36 32 212 170 350 275 58 45 156 119 216 166 280 216 565 429 573 429
6 0 53 -40 105 -89 113 -106 158 -136 234 -156 154 -40 264 -1 428 153 51 48
390 368 551 521 49 47 171 162 270 256 365 345 400 382 430 449 22 48 28 77
28 136 1 130 -21 162 -306 450 -134 136 -392 397 -574 581 -285 290 -339 340
-394 367 -54 27 -73 32 -134 31 -39 0 -86 -5 -104 -10z m-62 -53 c0 -2 -7 -7
-16 -10 -8 -3 -12 -2 -9 4 6 10 25 14 25 6z m248 -90 c15 -8 85 -74 156 -147
72 -74 324 -332 562 -574 237 -243 439 -456 448 -474 22 -42 22 -119 0 -166
-16 -34 -358 -365 -963 -934 -366 -343 -393 -365 -468 -377 -64 -10 -121 22
-237 134 -197 189 -192 185 -214 173 -56 -30 -1181 -890 -1284 -981 l-28 -25
-15 -270 c-26 -480 -39 -829 -32 -856 9 -37 62 -56 347 -128 456 -116 607
-184 847 -385 156 -129 191 -162 684 -643 108 -105 211 -199 229 -208 36 -19
31 -21 175 91 78 61 126 78 200 72 156 -13 234 -187 155 -345 -28 -56 -78
-121 -414 -538 -199 -247 -241 -285 -317 -285 -54 0 -106 33 -284 183 -94 78
-236 196 -315 263 -183 152 -309 251 -534 420 -271 204 -437 295 -690 379
-156 53 -465 124 -573 132 -70 6 -73 5 -73 -15 0 -12 32 -120 71 -239 131
-404 164 -567 157 -761 -4 -98 -10 -133 -37 -212 -18 -52 -48 -124 -67 -159
-61 -111 -230 -375 -416 -650 -98 -145 -178 -271 -178 -279 0 -7 29 -50 65
-95 85 -106 98 -136 93 -203 -12 -145 -169 -214 -336 -148 -181 72 -493 246
-569 317 -42 40 -54 58 -64 101 -10 47 -9 58 16 131 25 76 176 443 341 830 42
99 90 218 106 265 48 134 44 149 -150 620 -198 481 -263 683 -306 953 -33 205
-136 1266 -136 1402 0 44 -23 56 -180 96 -599 153 -1136 392 -1667 742 -229
151 -269 205 -261 348 8 128 69 224 182 283 98 52 174 33 436 -104 421 -222
960 -410 1455 -509 754 -150 1221 -98 1820 202 172 85 283 152 535 319 218
145 550 380 550 389 0 3 -67 72 -150 152 -185 182 -204 216 -176 312 16 51 42
86 176 231 106 115 150 177 150 212 0 14 -13 67 -30 119 -35 108 -37 171 -10
231 24 53 61 88 125 118 94 44 170 25 263 -65 l54 -52 276 282 c153 155 297
295 321 311 51 32 132 38 179 14z m-458 -260 c0 -2 -8 -10 -17 -17 -16 -13
-17 -12 -4 4 13 16 21 21 21 13z m1251 -513 c13 -16 12 -17 -3 -4 -10 7 -18
15 -18 17 0 8 8 3 21 -13z m129 -128 c13 -14 21 -25 18 -25 -2 0 -15 11 -28
25 -13 14 -21 25 -18 25 2 0 15 -11 28 -25z m-6165 -1485 c3 -6 -1 -7 -9 -4
-18 7 -21 14 -7 14 6 0 13 -4 16 -10z m1242 -386 c-3 -3 -12 -4 -19 -1 -8 3
-5 6 6 6 11 1 17 -2 13 -5z m60 -10 c-3 -3 -12 -4 -19 -1 -8 3 -5 6 6 6 11 1
17 -2 13 -5z m2203 -378 c0 -2 -8 -10 -17 -17 -16 -13 -17 -12 -4 4 13 16 21
21 21 13z m-273 -293 c-3 -10 -5 -4 -5 12 0 17 2 24 5 18 2 -7 2 -21 0 -30z
m-10 -205 c-3 -7 -5 -2 -5 12 0 14 2 19 5 13 2 -7 2 -19 0 -25z m-10 -175 c-3
-10 -5 -4 -5 12 0 17 2 24 5 18 2 -7 2 -21 0 -30z m-2010 -145 c-3 -7 -5 -2
-5 12 0 14 2 19 5 13 2 -7 2 -19 0 -25z m2000 -90 c-2 -18 -4 -6 -4 27 0 33 2
48 4 33 2 -15 2 -42 0 -60z m-1990 -15 c-3 -10 -5 -2 -5 17 0 19 2 27 5 18 2
-10 2 -26 0 -35z m1980 -165 c-3 -8 -6 -5 -6 6 -1 11 2 17 5 13 3 -3 4 -12 1
-19z m-10 -210 c-2 -13 -4 -3 -4 22 0 25 2 35 4 23 2 -13 2 -33 0 -45z m-1900
-350 c-3 -8 -6 -5 -6 6 -1 11 2 17 5 13 3 -3 4 -12 1 -19z m10 -75 c-3 -10 -5
-4 -5 12 0 17 2 24 5 18 2 -7 2 -21 0 -30z m40 -270 c-3 -10 -5 -4 -5 12 0 17
2 24 5 18 2 -7 2 -21 0 -30z m10 -45 c-3 -8 -6 -5 -6 6 -1 11 2 17 5 13 3 -3
4 -12 1 -19z m1500 -1080 c-3 -8 -6 -5 -6 6 -1 11 2 17 5 13 3 -3 4 -12 1 -19z
m1454 -15 c13 -16 12 -17 -3 -4 -10 7 -18 15 -18 17 0 8 8 3 21 -13z m-2135
-1513 c0 -12 -4 -16 -9 -11 -5 5 -6 14 -3 20 10 15 12 14 12 -9z m-251 -448
c-3 -3 -11 0 -18 7 -9 10 -8 11 6 5 10 -3 15 -9 12 -12z m122 -38 c-3 -3 -12
-4 -19 -1 -8 3 -5 6 6 6 11 1 17 -2 13 -5z"/>
<path d="M7461 9075 c-20 -9 -158 -141 -329 -315 -304 -309 -327 -327 -352
-280 -16 31 -118 108 -156 119 -68 19 -149 -22 -184 -94 -27 -56 -25 -86 10
-193 53 -161 43 -192 -107 -357 -247 -272 -247 -275 -89 -428 50 -49 121 -118
157 -154 l67 -65 48 33 c111 76 225 98 328 63 64 -22 154 -107 191 -181 27
-52 30 -68 30 -153 0 -87 -3 -100 -30 -148 -16 -30 -43 -65 -60 -80 l-30 -26
140 -132 c77 -72 150 -136 162 -142 38 -20 97 -14 138 14 87 59 788 722 778
736 -3 7 -1 8 5 4 8 -4 91 68 215 187 111 107 221 211 245 233 84 75 105 149
60 211 -22 28 -540 562 -938 966 -170 172 -189 189 -225 193 -24 2 -54 -2 -74
-11z m169 -70 c13 -14 21 -25 18 -25 -2 0 -15 11 -28 25 -13 14 -21 25 -18 25
2 0 15 -11 28 -25z m412 -619 c288 -291 523 -531 524 -535 1 -3 -56 -60 -125
-126 -69 -66 -182 -174 -251 -240 -180 -172 -778 -736 -821 -773 -20 -18 -42
-32 -48 -32 -6 0 -45 33 -86 73 l-76 73 21 47 c31 69 52 182 45 236 -40 294
-276 492 -537 450 -59 -10 -140 -37 -178 -61 -18 -12 -29 -4 -119 86 l-100
100 31 35 c117 135 494 531 900 945 214 218 268 267 281 260 9 -5 252 -247
539 -538z m-1002 251 c0 -2 -10 -12 -22 -23 l-23 -19 19 23 c18 21 26 27 26
19z m1090 -1380 c0 -2 -12 -14 -27 -28 l-28 -24 24 28 c23 25 31 32 31 24z
m-80 -81 c0 -2 -8 -10 -17 -17 -16 -13 -17 -12 -4 4 13 16 21 21 21 13z
m-1019 -403 c13 -16 12 -17 -3 -4 -10 7 -18 15 -18 17 0 8 8 3 21 -13z"/>
<path d="M6668 7347 c-48 -18 -111 -56 -184 -110 -301 -223 -740 -516 -966
-645 -351 -200 -718 -328 -1043 -363 -165 -18 -490 -6 -702 26 -451 66 -967
213 -1388 393 -71 31 -230 106 -352 168 -132 67 -239 115 -266 119 -63 10
-122 -10 -174 -58 -57 -52 -84 -105 -90 -177 -11 -119 30 -173 232 -305 540
-355 1070 -590 1654 -735 90 -23 172 -45 181 -50 30 -16 39 -60 55 -275 61
-794 115 -1269 170 -1472 42 -159 145 -432 325 -868 117 -282 128 -332 94
-445 -9 -30 -90 -230 -181 -444 -193 -457 -280 -674 -294 -734 -19 -85 14
-122 211 -237 211 -124 419 -215 492 -215 102 0 175 98 134 178 -9 17 -48 71
-86 119 -39 47 -70 96 -70 107 0 12 96 165 213 341 451 678 497 771 497 1007
0 174 -32 312 -189 803 -48 151 -51 188 -18 210 43 28 105 28 252 0 281 -52
465 -105 649 -186 271 -120 515 -297 1214 -879 155 -129 307 -248 336 -264
l55 -28 44 21 c32 16 68 51 138 137 52 64 139 171 194 238 277 339 315 394
323 476 6 65 -12 115 -56 148 -29 22 -45 27 -93 27 -62 -1 -86 -14 -227 -125
-76 -60 -110 -64 -168 -21 -21 15 -157 144 -301 285 -164 161 -267 255 -274
250 -7 -4 -9 -3 -6 3 13 22 -323 322 -473 423 -177 119 -318 173 -702 270
-322 82 -352 95 -371 170 -4 14 -2 102 3 195 6 94 19 346 30 562 11 215 23
398 26 406 11 30 1009 799 1386 1068 83 59 113 114 113 210 0 56 -5 77 -35
135 -28 55 -46 76 -91 107 -48 33 -66 40 -120 43 -40 3 -78 -1 -101 -9z m166
-172 c39 -38 53 -88 39 -132 -10 -29 -73 -80 -398 -319 -229 -168 -315 -234
-623 -474 -145 -113 -277 -216 -295 -230 -144 -110 -190 -169 -201 -255 -3
-27 -15 -237 -26 -465 -11 -228 -23 -472 -26 -541 -8 -151 3 -209 53 -275 47
-61 119 -94 292 -134 321 -75 543 -141 646 -192 114 -57 281 -174 384 -271 26
-23 71 -64 101 -91 30 -28 205 -196 388 -375 231 -226 346 -332 375 -345 60
-26 160 -26 217 0 25 12 82 52 127 89 80 65 117 78 107 38 -3 -10 -97 -133
-210 -273 -113 -140 -240 -298 -282 -351 l-77 -97 -26 22 c-15 11 -129 108
-255 215 -294 248 -621 510 -797 638 -321 232 -591 354 -972 438 -398 87 -548
72 -608 -64 -34 -78 -28 -133 41 -341 129 -393 163 -543 163 -716 0 -225 -12
-249 -451 -910 -221 -333 -250 -386 -250 -456 1 -36 33 -98 84 -161 53 -66 57
-80 19 -71 -61 14 -378 189 -450 248 -28 24 -34 34 -30 56 6 30 188 465 327
785 113 259 136 321 150 409 21 135 9 175 -210 716 -147 365 -214 561 -244
723 -57 302 -99 706 -146 1417 -13 186 -14 195 -47 242 -34 51 -100 81 -253
117 -596 141 -1103 360 -1630 706 -206 135 -240 187 -166 261 52 52 72 48 290
-65 456 -236 892 -394 1396 -505 684 -150 1168 -143 1665 26 326 110 558 235
1030 553 209 141 257 174 390 269 212 151 255 176 306 176 42 0 53 -5 83 -35z
m-5047 -261 c-3 -3 -12 -4 -19 -1 -8 3 -5 6 6 6 11 1 17 -2 13 -5z m1530 -590
c-3 -3 -12 -4 -19 -1 -8 3 -5 6 6 6 11 1 17 -2 13 -5z m280 -60 c-3 -3 -12 -4
-19 -1 -8 3 -5 6 6 6 11 1 17 -2 13 -5z m120 -20 c-3 -3 -12 -4 -19 -1 -8 3
-5 6 6 6 11 1 17 -2 13 -5z m820 -30 c-3 -3 -12 -4 -19 -1 -8 3 -5 6 6 6 11 1
17 -2 13 -5z m-464 -11 c-7 -2 -21 -2 -30 0 -10 3 -4 5 12 5 17 0 24 -2 18 -5z
m355 0 c-10 -2 -26 -2 -35 0 -10 3 -2 5 17 5 19 0 27 -2 18 -5z m1059 -565
c-2 -13 -4 -3 -4 22 0 25 2 35 4 23 2 -13 2 -33 0 -45z m-1850 -200 c-3 -7 -5
-2 -5 12 0 14 2 19 5 13 2 -7 2 -19 0 -25z m10 -130 c-3 -7 -5 -2 -5 12 0 14
2 19 5 13 2 -7 2 -19 0 -25z m120 -130 c-3 -8 -6 -5 -6 6 -1 11 2 17 5 13 3
-3 4 -12 1 -19z m1690 -90 c-3 -7 -5 -2 -5 12 0 14 2 19 5 13 2 -7 2 -19 0
-25z m-1790 -30 c-3 -8 -6 -5 -6 6 -1 11 2 17 5 13 3 -3 4 -12 1 -19z m10
-130 c-3 -7 -5 -2 -5 12 0 14 2 19 5 13 2 -7 2 -19 0 -25z m1770 -50 c-3 -8
-6 -5 -6 6 -1 11 2 17 5 13 3 -3 4 -12 1 -19z m-1730 -370 c-3 -8 -6 -5 -6 6
-1 11 2 17 5 13 3 -3 4 -12 1 -19z m10 -80 c-3 -7 -5 -2 -5 12 0 14 2 19 5 13
2 -7 2 -19 0 -25z m50 -400 c-3 -8 -6 -5 -6 6 -1 11 2 17 5 13 3 -3 4 -12 1
-19z m1266 -305 c-7 -2 -19 -2 -25 0 -7 3 -2 5 12 5 14 0 19 -2 13 -5z m84 -9
c-3 -3 -12 -4 -19 -1 -8 3 -5 6 6 6 11 1 17 -2 13 -5z m2168 -234 c10 -11 16
-20 13 -20 -3 0 -13 9 -23 20 -10 11 -16 20 -13 20 3 0 13 -9 23 -20z m-380
-730 c10 -11 16 -20 13 -20 -3 0 -13 9 -23 20 -10 11 -16 20 -13 20 3 0 13 -9
23 -20z m106 -87 c13 -16 12 -17 -3 -4 -10 7 -18 15 -18 17 0 8 8 3 21 -13z
m80 -70 c13 -16 12 -17 -3 -4 -17 13 -22 21 -14 21 2 0 10 -8 17 -17z m479
-126 c0 -2 -10 -12 -22 -23 l-23 -19 19 23 c18 21 26 27 26 19z m-95 -97 c-3
-5 -12 -10 -18 -10 -7 0 -6 4 3 10 19 12 23 12 15 0z m-42 -17 c-7 -2 -19 -2
-25 0 -7 3 -2 5 12 5 14 0 19 -2 13 -5z m-3686 -1030 c-3 -10 -5 -4 -5 12 0
17 2 24 5 18 2 -7 2 -21 0 -30z m213 -179 c0 -2 -9 0 -20 6 -11 6 -20 13 -20
16 0 2 9 0 20 -6 11 -6 20 -13 20 -16z"/>
<path d="M4510 8719 c-397 -51 -761 -358 -883 -744 -51 -161 -59 -307 -27
-485 45 -249 161 -460 341 -617 80 -70 129 -103 225 -151 371 -186 817 -129
1141 147 142 120 277 340 329 536 38 141 45 350 16 481 -30 133 -78 246 -154
360 -171 257 -416 416 -722 469 -96 16 -164 17 -266 4z m208 -126 c-10 -2 -26
-2 -35 0 -10 3 -2 5 17 5 19 0 27 -2 18 -5z m132 -43 c163 -42 286 -112 408
-232 237 -234 322 -574 227 -903 -89 -307 -338 -554 -640 -636 -123 -34 -307
-32 -438 4 -361 99 -611 390 -667 776 -15 99 -8 250 15 336 92 345 383 609
743 675 77 15 258 4 352 -20z m-570 -30 c-8 -5 -19 -10 -25 -10 -5 0 -3 5 5
10 8 5 20 10 25 10 6 0 3 -5 -5 -10z m765 -20 c3 -6 -1 -7 -9 -4 -18 7 -21 14
-7 14 6 0 13 -4 16 -10z m492 -692 c-3 -8 -6 -5 -6 6 -1 11 2 17 5 13 3 -3 4
-12 1 -19z m-1820 -60 c-3 -7 -5 -2 -5 12 0 14 2 19 5 13 2 -7 2 -19 0 -25z
m1830 -40 c-3 -7 -5 -2 -5 12 0 14 2 19 5 13 2 -7 2 -19 0 -25z m-1830 -105
c-3 -10 -5 -4 -5 12 0 17 2 24 5 18 2 -7 2 -21 0 -30z m1820 -55 c-3 -8 -6 -5
-6 6 -1 11 2 17 5 13 3 -3 4 -12 1 -19z m-1810 -20 c-3 -8 -6 -5 -6 6 -1 11 2
17 5 13 3 -3 4 -12 1 -19z"/>
<path d="M4525 8509 c-366 -55 -667 -347 -725 -700 -14 -88 -13 -158 5 -266
58 -359 306 -629 653 -709 95 -22 270 -20 363 5 339 88 600 393 637 742 46
434 -237 829 -652 913 -99 20 -210 26 -281 15z m280 -164 c230 -60 428 -268
486 -511 41 -173 24 -317 -58 -484 -39 -80 -61 -109 -134 -182 -73 -72 -103
-95 -181 -132 -206 -100 -386 -98 -598 6 -68 33 -102 58 -170 127 -92 93 -129
153 -176 286 -25 72 -28 93 -28 215 0 120 3 144 26 212 81 243 282 422 528
474 77 16 220 11 305 -11z m-968 -477 c-3 -8 -6 -5 -6 6 -1 11 2 17 5 13 3 -3
4 -12 1 -19z m1610 -260 c-3 -8 -6 -5 -6 6 -1 11 2 17 5 13 3 -3 4 -12 1 -19z
m-1620 -80 c-3 -8 -6 -5 -6 6 -1 11 2 17 5 13 3 -3 4 -12 1 -19z m760 -694
c-3 -3 -12 -4 -19 -1 -8 3 -5 6 6 6 11 1 17 -2 13 -5z m56 -1 c-7 -2 -19 -2
-25 0 -7 3 -2 5 12 5 14 0 19 -2 13 -5z m65 0 c-10 -2 -26 -2 -35 0 -10 3 -2
5 17 5 19 0 27 -2 18 -5z"/>
</g>
</svg>
