<svg width="111" height="189" viewBox="0 0 111 189" fill="none" xmlns="http://www.w3.org/2000/svg">
<ellipse cx="55.7471" cy="135" rx="55" ry="54" fill="#FFA523"/>
<ellipse cx="79.7471" cy="71.5" rx="7" ry="7.5" fill="#FFA523"/>
<path d="M66.1904 142.602C68.0313 143.234 68.9484 145.34 67.73 146.858C66.5996 148.267 65.1863 149.494 63.549 150.476C60.8061 152.121 57.562 153.001 54.2411 153C50.9201 152.999 47.6768 152.117 44.9352 150.47C43.2988 149.487 41.8865 148.259 40.7573 146.85C39.5401 145.331 40.4588 143.226 42.3 142.595C43.9267 142.037 45.678 142.876 46.8849 144.101C47.4299 144.655 48.0564 145.147 48.7514 145.565C50.3694 146.537 52.2836 147.057 54.2436 147.058C56.2035 147.058 58.1181 146.539 59.737 145.568C60.4326 145.151 61.0597 144.659 61.6054 144.105C62.8127 142.881 64.5644 142.044 66.1904 142.602Z" fill="#412600"/>
<ellipse cx="74.7471" cy="129.5" rx="6" ry="8.5" fill="#412600"/>
<ellipse cx="32.7471" cy="129.5" rx="6" ry="8.5" fill="#412600"/>
<circle cx="49.2471" cy="49.5" r="18.5" fill="#FFA523"/>
<circle cx="75.2471" cy="13.5" r="13.5" fill="#FFA523"/>
<ellipse cx="29.415" cy="101.912" rx="11.3304" ry="5.43962" transform="rotate(-34.6096 29.415 101.912)" fill="white" fill-opacity="0.26"/>
<ellipse cx="42" cy="39.2127" rx="6.2926" ry="3.20596" transform="rotate(-34.6096 42 39.2127)" fill="white" fill-opacity="0.26"/>
</svg>
