<svg width="108" height="179" viewBox="0 0 108 179" fill="none" xmlns="http://www.w3.org/2000/svg">
<path fill-rule="evenodd" clip-rule="evenodd" d="M53.7472 0.999995C46.2473 2.99999 10.2472 31 1.24721 78.5C-7.75279 126 34.2471 156 53.7472 157C73.2474 158 106.747 129.5 107.747 93.5C108.747 57.5 61.2471 -1 53.7472 0.999995Z" fill="#6AB963"/>
<path d="M60.7471 156C62.2471 146 57.7471 124.5 57.2471 126.5C56.7471 128.5 51.7471 153 48.2471 161.5C44.7471 170 42.7471 172.5 42.7471 172.5C42.7471 172.5 40.2471 176 43.7472 177.5C47.2472 179 50.2471 179 53.7471 177C57.2472 175 59.2471 166 60.7471 156Z" fill="#1D8954"/>
<path d="M67.1904 102.602C69.0313 103.234 69.9485 105.34 68.73 106.858C67.5996 108.267 66.1863 109.494 64.549 110.476C61.8061 112.121 58.5621 113.001 55.2411 113C51.9201 112.999 48.6768 112.117 45.9352 110.47C44.2988 109.487 42.8866 108.259 41.7573 106.85C40.5401 105.331 41.4588 103.226 43.3 102.595C44.9267 102.037 46.6781 102.876 47.8849 104.101C48.4299 104.655 49.0564 105.147 49.7514 105.565C51.3694 106.537 53.2836 107.057 55.2436 107.058C57.2036 107.058 59.1182 106.539 60.737 105.568C61.4326 105.151 62.0597 104.659 62.6054 104.105C63.8128 102.881 65.5644 102.044 67.1904 102.602Z" fill="#173700"/>
<ellipse cx="75.7471" cy="87.5" rx="6" ry="8.5" fill="#173700"/>
<ellipse cx="35.7471" cy="87.5" rx="6" ry="8.5" fill="#173700"/>
</svg>
