<?xml version="1.0" standalone="no"?>
<!DOCTYPE svg PUBLIC "-//W3C//DTD SVG 1.1//EN" "http://www.w3.org/Graphics/SVG/1.1/DTD/svg11.dtd">
<svg version="1.1" xmlns="http://www.w3.org/2000/svg" viewBox="0 0 301.8182373046875 289.0908966064453" width="301.8182373046875" height="289.0908966064453" filter="invert(93%) hue-rotate(180deg)"><!-- svg-source:excalidraw --><metadata></metadata><defs><style class="style-fonts">
      </style></defs><g transform="translate(166.3636474609375 13.636367797851562) rotate(0 -15.45452880859375 130.9090805053711)" stroke="none"><path fill="#6741d9" d="M -0.19,1.59 Q -0.19,1.59 -2.28,1.29 -4.37,1.00 -6.25,0.90 -8.13,0.81 -9.86,1.04 -11.60,1.28 -13.66,1.58 -15.73,1.89 -18.12,2.52 -20.52,3.15 -23.18,3.68 -25.84,4.22 -28.97,5.20 -32.11,6.19 -35.55,7.38 -38.98,8.58 -42.26,9.87 -45.53,11.15 -48.76,12.48 -51.98,13.81 -55.42,15.40 -58.86,17.00 -61.85,18.71 -64.84,20.41 -67.93,22.43 -71.02,24.45 -74.13,26.85 -77.25,29.26 -80.12,31.83 -83.00,34.40 -86.07,37.08 -89.14,39.76 -91.97,42.69 -94.80,45.62 -97.30,48.67 -99.79,51.71 -102.15,54.84 -104.52,57.96 -106.83,61.12 -109.14,64.27 -111.42,67.69 -113.69,71.10 -115.97,74.64 -118.24,78.18 -120.51,82.02 -122.77,85.86 -124.77,89.57 -126.77,93.28 -128.66,97.20 -130.55,101.11 -132.12,105.09 -133.69,109.07 -135.15,113.12 -136.60,117.16 -137.73,121.19 -138.86,125.23 -139.86,129.55 -140.86,133.87 -141.54,137.77 -142.23,141.67 -142.51,145.89 -142.80,150.11 -142.92,154.26 -143.04,158.41 -143.10,162.52 -143.15,166.63 -142.40,170.61 -141.65,174.59 -140.80,178.68 -139.96,182.76 -138.58,186.50 -137.20,190.24 -135.82,193.96 -134.44,197.67 -132.58,201.27 -130.72,204.87 -128.88,208.25 -127.03,211.63 -124.96,214.86 -122.89,218.09 -120.72,221.01 -118.55,223.93 -116.11,226.43 -113.66,228.92 -111.27,231.60 -108.88,234.28 -106.58,236.70 -104.28,239.13 -101.76,241.44 -99.24,243.75 -96.40,245.73 -93.55,247.72 -90.79,249.34 -88.02,250.97 -85.01,252.71 -81.99,254.46 -78.71,255.68 -75.43,256.89 -71.91,258.22 -68.38,259.54 -64.63,260.33 -60.87,261.13 -56.62,262.00 -52.38,262.87 -48.04,263.23 -43.69,263.59 -39.49,263.75 -35.29,263.90 -30.63,263.97 -25.98,264.04 -21.12,264.07 -16.27,264.09 -11.66,263.59 -7.06,263.08 -2.49,262.35 2.07,261.61 6.59,260.52 11.11,259.43 15.38,258.19 19.64,256.95 24.05,255.38 28.45,253.82 32.66,252.11 36.87,250.40 40.74,248.64 44.61,246.88 48.58,244.83 52.56,242.78 56.30,240.37 60.04,237.96 63.47,235.62 66.89,233.29 70.41,230.49 73.92,227.69 77.25,224.93 80.58,222.17 83.52,219.21 86.46,216.24 89.27,212.91 92.07,209.58 94.55,206.10 97.03,202.62 99.11,199.08 101.19,195.54 103.12,191.95 105.06,188.35 106.91,184.49 108.77,180.63 110.06,176.95 111.35,173.28 112.42,169.12 113.49,164.97 114.47,160.85 115.45,156.72 116.39,152.61 117.32,148.51 117.98,144.45 118.63,140.39 119.44,136.28 120.25,132.16 120.58,128.40 120.91,124.63 121.32,120.64 121.72,116.66 121.89,112.65 122.06,108.64 122.14,104.85 122.21,101.06 122.24,97.35 122.27,93.65 121.77,90.08 121.27,86.51 120.53,82.90 119.80,79.29 118.97,75.93 118.14,72.58 117.01,69.10 115.88,65.61 114.63,62.60 113.38,59.58 111.82,56.49 110.26,53.40 108.32,50.58 106.38,47.75 104.51,45.23 102.64,42.72 100.33,40.40 98.02,38.08 95.47,35.79 92.92,33.49 90.30,31.49 87.68,29.50 84.76,27.62 81.84,25.74 78.81,24.18 75.78,22.61 72.90,21.15 70.02,19.69 66.75,18.30 63.47,16.92 60.23,15.54 56.99,14.15 53.83,13.06 50.67,11.97 47.50,10.98 44.32,9.99 40.94,9.32 37.56,8.66 34.29,8.11 31.01,7.56 27.84,7.33 24.67,7.11 20.93,6.74 17.19,6.38 13.81,6.23 10.44,6.08 6.91,6.01 3.39,5.95 -0.19,5.92 -3.78,5.89 -7.61,6.14 -11.45,6.39 -14.90,6.76 -18.35,7.12 -21.87,7.79 -25.38,8.46 -28.97,9.27 -32.55,10.08 -36.13,11.19 -39.70,12.31 -43.31,13.56 -46.92,14.82 -50.27,16.13 -53.62,17.45 -57.15,18.79 -60.68,20.14 -63.92,21.98 -67.16,23.82 -70.40,25.66 -73.64,27.50 -77.10,29.58 -80.55,31.67 -83.80,34.09 -87.05,36.51 -90.01,38.85 -92.97,41.19 -95.77,43.72 -98.56,46.26 -101.04,48.89 -103.51,51.51 -105.85,54.43 -108.19,57.35 -110.51,60.18 -112.83,63.01 -115.10,66.02 -117.38,69.03 -119.65,72.14 -121.93,75.25 -123.93,78.13 -125.94,81.01 -127.81,84.29 -129.68,87.56 -131.55,90.56 -133.41,93.56 -135.23,96.88 -137.04,100.21 -138.59,103.43 -140.14,106.66 -141.58,109.86 -143.02,113.06 -144.14,115.96 -145.27,118.86 -146.26,121.90 -147.26,124.95 -148.21,128.07 -149.15,131.19 -149.80,134.05 -150.46,136.91 -151.00,139.94 -151.53,142.97 -152.02,146.09 -152.51,149.21 -152.98,152.36 -153.45,155.52 -153.92,158.69 -154.38,161.86 -154.57,164.72 -154.76,167.59 -154.84,170.63 -154.92,173.68 -154.96,176.80 -154.99,179.92 -154.75,182.49 -154.51,185.06 -153.90,187.39 -153.29,189.71 -152.51,192.01 -151.74,194.30 -150.88,196.58 -150.03,198.86 -148.93,200.79 -147.83,202.72 -146.35,204.54 -144.88,206.35 -143.21,208.18 -141.54,210.00 -140.04,211.56 -138.55,213.12 -136.68,214.50 -134.81,215.89 -132.94,217.29 -131.07,218.69 -129.00,220.05 -126.93,221.40 -124.74,222.76 -122.55,224.13 -120.32,225.49 -118.08,226.85 -116.05,228.24 -114.03,229.62 -111.89,230.97 -109.75,232.32 -107.54,233.68 -105.32,235.04 -103.07,236.40 -100.83,237.76 -98.38,238.83 -95.93,239.89 -93.32,240.87 -90.71,241.85 -88.03,242.78 -85.36,243.72 -82.41,244.64 -79.45,245.56 -76.37,246.47 -73.29,247.38 -70.20,248.02 -67.10,248.66 -63.91,249.46 -60.72,250.27 -57.33,250.86 -53.94,251.45 -50.71,251.70 -47.48,251.94 -43.98,252.32 -40.47,252.69 -36.68,252.84 -32.88,253.00 -29.44,253.06 -25.99,253.13 -22.44,253.16 -18.89,253.19 -15.28,253.20 -11.68,253.21 -8.32,253.21 -4.96,253.22 -1.44,253.22 2.07,253.22 5.34,252.97 8.61,252.71 12.05,252.08 15.49,251.46 18.77,250.67 22.06,249.89 25.33,249.28 28.60,248.68 31.73,247.66 34.85,246.64 38.01,245.43 41.17,244.22 44.34,242.92 47.51,241.62 50.41,240.29 53.31,238.96 56.35,237.36 59.39,235.76 62.23,234.05 65.07,232.34 67.84,230.57 70.62,228.79 73.08,227.01 75.54,225.23 77.83,222.96 80.12,220.69 82.41,218.16 84.69,215.63 86.95,212.74 89.21,209.86 91.48,206.81 93.75,203.75 96.02,200.62 98.30,197.49 100.29,194.36 102.28,191.24 104.44,187.80 106.60,184.37 108.27,181.13 109.95,177.89 111.71,174.16 113.46,170.43 114.98,166.53 116.50,162.63 117.66,158.65 118.81,154.67 119.56,150.93 120.31,147.18 120.89,142.99 121.47,138.80 121.97,134.66 122.48,130.52 122.96,126.15 123.44,121.78 123.64,117.61 123.84,113.43 123.66,109.09 123.49,104.74 122.90,100.31 122.30,95.89 121.53,91.39 120.76,86.90 119.91,82.91 119.06,78.93 118.18,74.87 117.29,70.82 115.89,66.82 114.49,62.82 112.86,59.04 111.23,55.26 109.25,51.59 107.26,47.93 105.13,44.56 102.99,41.19 101.03,38.18 99.07,35.17 96.74,32.67 94.40,30.17 91.85,27.80 89.29,25.42 86.61,22.82 83.94,20.22 81.04,18.14 78.15,16.05 75.57,14.08 72.99,12.12 70.39,10.54 67.79,8.96 65.35,7.49 62.92,6.02 60.86,4.89 58.80,3.75 57.09,2.76 55.38,1.77 53.71,1.17 52.05,0.57 50.51,0.09 48.97,-0.37 47.91,-0.83 46.84,-1.28 45.46,-1.48 44.09,-1.68 43.79,-1.80 43.49,-1.92 43.24,-2.14 43.00,-2.35 42.83,-2.63 42.67,-2.91 42.60,-3.23 42.53,-3.55 42.57,-3.87 42.61,-4.19 42.75,-4.48 42.89,-4.78 43.12,-5.01 43.34,-5.24 43.63,-5.39 43.92,-5.54 44.24,-5.59 44.56,-5.64 44.88,-5.58 45.20,-5.53 45.49,-5.37 45.77,-5.22 45.99,-4.98 46.21,-4.74 46.35,-4.44 46.48,-4.15 46.51,-3.82 46.54,-3.50 46.47,-3.18 46.40,-2.87 46.23,-2.59 46.06,-2.31 45.81,-2.11 45.56,-1.90 45.25,-1.78 44.95,-1.67 44.62,-1.65 44.30,-1.64 43.99,-1.73 43.68,-1.82 43.41,-2.00 43.14,-2.19 42.95,-2.45 42.76,-2.71 42.66,-3.02 42.56,-3.33 42.56,-3.65 42.56,-3.98 42.67,-4.29 42.78,-4.59 42.98,-4.85 43.18,-5.10 43.45,-5.28 43.72,-5.46 44.03,-5.55 44.35,-5.63 44.67,-5.61 45.00,-5.59 44.99,-5.59 44.99,-5.59 47.54,-4.51 50.09,-3.43 51.61,-2.80 53.13,-2.17 54.97,-1.38 56.82,-0.60 58.44,0.42 60.07,1.45 62.17,2.61 64.28,3.77 66.71,5.24 69.15,6.72 71.87,8.37 74.58,10.03 77.14,11.97 79.69,13.92 82.73,16.13 85.76,18.34 88.42,20.92 91.08,23.50 93.70,25.94 96.33,28.38 98.80,31.06 101.27,33.74 103.24,36.76 105.21,39.79 107.39,43.23 109.57,46.68 111.61,50.45 113.64,54.22 115.31,58.08 116.97,61.95 118.42,66.10 119.86,70.26 120.75,74.32 121.63,78.38 122.49,82.42 123.35,86.45 124.13,91.00 124.91,95.54 125.51,100.09 126.11,104.63 126.29,109.10 126.46,113.56 126.25,117.81 126.05,122.06 125.57,126.45 125.09,130.84 124.58,135.00 124.07,139.16 123.48,143.42 122.89,147.69 122.11,151.55 121.34,155.41 120.14,159.49 118.95,163.58 117.39,167.57 115.84,171.55 114.06,175.33 112.28,179.10 110.55,182.43 108.82,185.77 106.66,189.21 104.49,192.65 102.46,195.84 100.42,199.04 98.14,202.18 95.86,205.32 93.57,208.40 91.28,211.48 88.96,214.43 86.64,217.39 84.30,219.97 81.97,222.56 79.52,224.96 77.08,227.36 74.56,229.18 72.03,231.01 69.23,232.80 66.42,234.59 63.52,236.34 60.61,238.09 57.51,239.72 54.40,241.35 51.46,242.70 48.51,244.05 45.31,245.36 42.11,246.67 38.88,247.91 35.66,249.14 32.37,250.20 29.08,251.26 25.87,251.85 22.67,252.44 19.31,253.24 15.96,254.04 12.39,254.68 8.82,255.33 5.44,255.59 2.06,255.85 -1.45,255.85 -4.97,255.85 -8.33,255.84 -11.69,255.84 -15.30,255.82 -18.91,255.81 -22.47,255.78 -26.04,255.75 -29.52,255.69 -32.99,255.62 -36.87,255.46 -40.75,255.30 -44.22,254.93 -47.69,254.56 -51.04,254.30 -54.39,254.04 -57.88,253.43 -61.36,252.81 -64.50,252.02 -67.64,251.23 -70.83,250.56 -74.03,249.90 -77.13,248.98 -80.23,248.07 -83.23,247.13 -86.23,246.20 -88.93,245.25 -91.63,244.30 -94.31,243.30 -96.98,242.30 -99.58,241.15 -102.18,240.01 -104.44,238.65 -106.70,237.28 -108.93,235.91 -111.16,234.54 -113.33,233.17 -115.51,231.79 -117.48,230.44 -119.45,229.10 -121.69,227.73 -123.94,226.36 -126.16,224.98 -128.37,223.60 -130.51,222.20 -132.64,220.79 -134.51,219.39 -136.39,217.99 -138.41,216.47 -140.44,214.94 -141.96,213.36 -143.47,211.78 -145.20,209.89 -146.92,208.00 -148.51,206.01 -150.11,204.02 -151.30,201.90 -152.49,199.78 -153.36,197.46 -154.22,195.14 -155.03,192.75 -155.83,190.37 -156.48,187.84 -157.12,185.31 -157.37,182.60 -157.62,179.89 -157.58,176.75 -157.55,173.60 -157.46,170.51 -157.38,167.41 -157.18,164.45 -156.98,161.48 -156.51,158.30 -156.05,155.13 -155.58,151.96 -155.11,148.80 -154.61,145.65 -154.12,142.51 -153.57,139.42 -153.02,136.32 -152.34,133.38 -151.67,130.43 -150.71,127.28 -149.76,124.13 -148.74,121.02 -147.72,117.91 -146.57,114.94 -145.41,111.98 -143.96,108.75 -142.50,105.52 -140.93,102.24 -139.35,98.95 -137.49,95.56 -135.64,92.17 -133.80,89.21 -131.96,86.25 -130.03,82.88 -128.09,79.51 -126.07,76.61 -124.05,73.70 -121.76,70.58 -119.47,67.45 -117.17,64.40 -114.86,61.35 -112.55,58.53 -110.24,55.71 -107.83,52.71 -105.42,49.71 -102.87,47.01 -100.33,44.32 -97.46,41.72 -94.60,39.13 -91.61,36.76 -88.62,34.40 -85.26,31.91 -81.91,29.42 -78.42,27.32 -74.94,25.22 -71.69,23.37 -68.45,21.53 -65.03,19.61 -61.62,17.69 -58.10,16.34 -54.58,15.00 -51.18,13.67 -47.79,12.34 -44.13,11.07 -40.48,9.80 -36.81,8.66 -33.13,7.51 -29.50,6.70 -25.87,5.88 -22.25,5.20 -18.63,4.51 -15.12,4.14 -11.62,3.77 -7.69,3.52 -3.76,3.27 -0.16,3.30 3.44,3.32 6.99,3.39 10.55,3.46 14.00,3.61 17.45,3.77 21.16,4.13 24.86,4.49 28.16,4.73 31.45,4.97 34.76,5.53 38.07,6.08 41.59,6.78 45.10,7.48 48.32,8.48 51.53,9.49 54.78,10.61 58.02,11.74 61.26,13.12 64.50,14.50 67.86,15.92 71.21,17.35 74.10,18.81 76.98,20.28 80.12,21.90 83.27,23.53 86.27,25.47 89.27,27.41 91.98,29.47 94.68,31.54 97.28,33.89 99.88,36.23 102.32,38.69 104.75,41.15 106.65,43.71 108.55,46.27 110.58,49.24 112.60,52.21 114.21,55.39 115.81,58.57 117.10,61.69 118.38,64.81 119.54,68.38 120.69,71.95 121.53,75.36 122.37,78.77 123.12,82.46 123.87,86.14 124.38,89.91 124.90,93.67 124.87,97.39 124.84,101.11 124.76,104.93 124.69,108.76 124.51,112.84 124.34,116.92 123.93,120.89 123.53,124.87 123.17,128.76 122.82,132.66 122.02,136.74 121.22,140.81 120.55,144.95 119.88,149.09 118.94,153.21 118.00,157.33 117.02,161.48 116.03,165.63 114.93,169.89 113.83,174.15 112.49,177.96 111.14,181.77 109.25,185.68 107.37,189.60 105.41,193.24 103.46,196.87 101.31,200.51 99.17,204.15 96.62,207.71 94.08,211.28 91.20,214.68 88.33,218.09 85.29,221.14 82.26,224.19 78.91,226.97 75.56,229.75 71.97,232.60 68.37,235.46 64.92,237.81 61.46,240.17 57.61,242.64 53.76,245.12 49.73,247.19 45.70,249.27 41.78,251.05 37.86,252.84 33.59,254.57 29.33,256.29 24.85,257.88 20.38,259.47 16.05,260.73 11.73,261.99 7.11,263.09 2.49,264.20 -2.13,264.95 -6.77,265.69 -11.52,266.21 -16.28,266.72 -21.15,266.69 -26.01,266.66 -30.70,266.60 -35.39,266.53 -39.65,266.37 -43.91,266.21 -48.41,265.83 -52.90,265.45 -57.16,264.57 -61.42,263.70 -65.36,262.85 -69.30,262.00 -72.83,260.68 -76.35,259.35 -79.83,258.04 -83.30,256.73 -86.33,254.98 -89.36,253.23 -92.21,251.55 -95.06,249.87 -98.04,247.78 -101.02,245.68 -103.60,243.31 -106.19,240.93 -108.51,238.48 -110.84,236.03 -113.19,233.39 -115.54,230.76 -118.10,228.13 -120.66,225.50 -122.88,222.50 -125.10,219.51 -127.22,216.20 -129.34,212.89 -131.20,209.48 -133.05,206.08 -134.98,202.33 -136.90,198.59 -138.29,194.87 -139.67,191.15 -141.10,187.22 -142.53,183.30 -143.38,179.19 -144.23,175.07 -145.00,170.84 -145.77,166.61 -145.72,162.47 -145.67,158.33 -145.54,154.13 -145.42,149.93 -145.12,145.58 -144.81,141.22 -144.12,137.25 -143.42,133.27 -142.40,128.90 -141.39,124.52 -140.23,120.40 -139.07,116.27 -137.60,112.19 -136.14,108.11 -134.52,104.04 -132.91,99.97 -131.00,96.00 -129.08,92.04 -127.06,88.28 -125.03,84.53 -122.75,80.65 -120.46,76.76 -118.17,73.20 -115.88,69.64 -113.57,66.18 -111.26,62.72 -108.94,59.55 -106.61,56.37 -104.22,53.21 -101.82,50.05 -99.26,46.92 -96.70,43.79 -93.79,40.78 -90.87,37.78 -87.82,35.11 -84.76,32.44 -81.81,29.80 -78.86,27.17 -75.67,24.70 -72.47,22.23 -69.31,20.16 -66.16,18.10 -63.07,16.34 -59.98,14.58 -56.50,12.95 -53.01,11.32 -49.77,9.97 -46.53,8.63 -43.21,7.31 -39.89,5.99 -36.43,4.76 -32.96,3.53 -29.69,2.48 -26.42,1.43 -23.86,0.87 -21.29,0.31 -18.76,-0.40 -16.23,-1.11 -14.10,-1.51 -11.96,-1.91 -9.96,-2.11 -7.96,-2.30 -5.97,-2.17 -3.99,-2.04 -1.89,-1.82 0.19,-1.59 0.38,-1.54 0.57,-1.50 0.74,-1.41 0.91,-1.32 1.06,-1.19 1.20,-1.06 1.31,-0.90 1.42,-0.74 1.49,-0.56 1.56,-0.37 1.58,-0.18 1.60,0.00 1.58,0.19 1.56,0.39 1.49,0.57 1.42,0.75 1.31,0.91 1.19,1.07 1.05,1.19 0.90,1.32 0.73,1.41 0.56,1.50 0.37,1.55 0.18,1.59 -0.00,1.59 -0.19,1.59 -0.19,1.59 L -0.19,1.59 Z"></path></g></svg>