<svg width="185" height="175" viewBox="0 0 185 175" fill="none" xmlns="http://www.w3.org/2000/svg">
<mask id="mask0_5_3" style="mask-type:luminance" maskUnits="userSpaceOnUse" x="0" y="0" width="185" height="175">
<path d="M176.364 0.954559H8.54547C4.12719 0.954559 0.545471 4.53628 0.545471 8.95456V166.773C0.545471 171.191 4.12719 174.773 8.54547 174.773H176.364C180.782 174.773 184.364 171.191 184.364 166.773V8.95456C184.364 4.53628 180.782 0.954559 176.364 0.954559Z" fill="white"/>
</mask>
<g mask="url(#mask0_5_3)">
<path d="M63.169 63.4745C63.169 63.4745 63.559 62.2412 64.339 59.7745C65.119 57.3012 65.869 54.5879 66.589 51.6345C67.3157 48.6879 68.0757 45.2345 68.869 41.2745C69.6624 37.3212 70.2257 33.8412 70.559 30.8345C70.899 27.8345 71.349 24.8912 71.909 22.0045C72.469 19.1245 73.0157 16.7145 73.549 14.7745C74.089 12.8345 74.6524 11.4179 75.239 10.5245C75.8257 9.62455 76.509 8.80788 77.289 8.07455C78.0757 7.34121 78.9357 6.71121 79.869 6.18455C80.809 5.66455 81.7957 5.26121 82.829 4.97455C83.8624 4.69455 84.9157 4.53788 85.989 4.50455C87.0624 4.47788 88.1224 4.57788 89.169 4.80455C90.2157 5.03788 91.219 5.39121 92.179 5.86455C93.1457 6.33788 94.039 6.91788 94.859 7.60455C95.679 8.29122 96.4057 9.06788 97.039 9.93455C97.6724 10.8012 98.1924 11.7312 98.599 12.7245C99.0057 13.7179 99.289 14.7445 99.449 15.8045C99.6024 16.8645 99.629 17.9312 99.529 19.0045C99.429 20.0712 99.2024 21.1112 98.849 22.1245C98.4957 23.1379 97.5757 20.8845 96.089 15.3645C94.6024 9.85121 94.9457 8.60455 97.119 11.6245C99.2857 14.6512 100.892 17.6879 101.939 20.7345C102.979 23.7812 104.106 27.0179 105.319 30.4445C106.526 33.8712 107.622 37.2412 108.609 40.5545C109.596 43.8679 110.852 47.0912 112.379 50.2245C113.912 53.3645 113.629 53.8879 111.529 51.7945C109.429 49.7012 110.166 48.9179 113.739 49.4445C117.312 49.9645 120.682 50.3979 123.849 50.7445C127.022 51.0845 130.062 51.4112 132.969 51.7245C135.876 52.0379 139.059 52.1945 142.519 52.1945C145.979 52.1879 149.272 52.3179 152.399 52.5845C155.532 52.8445 158.546 52.9612 161.439 52.9345C164.332 52.9012 168.142 55.0145 172.869 59.2745C177.602 63.5345 179.842 67.3779 179.589 70.8046C179.336 74.2379 178.146 77.1812 176.019 79.6345C173.899 82.0945 171.382 84.1212 168.469 85.7145C165.562 87.3079 162.566 89.0412 159.479 90.9145C156.392 92.7879 153.369 94.7079 150.409 96.6745C147.449 98.6412 144.649 100.425 142.009 102.025C139.369 103.618 137.922 102.318 137.669 98.1245C137.409 93.9246 137.949 93.6812 139.289 97.3945C140.622 101.115 141.872 105.035 143.039 109.155C144.212 113.268 145.406 117.138 146.619 120.765C147.839 124.391 149.069 127.685 150.309 130.645C151.549 133.611 152.772 136.948 153.979 140.655C155.192 144.355 155.692 148.011 155.479 151.625C155.266 155.231 151.889 158.785 145.349 162.285C138.809 165.778 134.166 167.061 131.419 166.135C128.672 165.208 125.712 163.721 122.539 161.675C119.359 159.628 116.449 157.428 113.809 155.075C111.162 152.715 108.676 150.585 106.349 148.685C104.016 146.785 101.619 144.271 99.159 141.145C96.6924 138.025 94.6324 137.878 92.979 140.705C91.3324 143.531 89.1357 145.808 86.389 147.535C83.6424 149.261 80.7724 151.018 77.779 152.805C74.779 154.591 71.7157 157.081 68.589 160.275C65.4624 163.475 62.4924 166.075 59.679 168.075C56.8724 170.081 51.8457 168.388 44.599 162.995C37.3457 157.601 33.739 153.288 33.779 150.055C33.819 146.821 33.9724 143.731 34.239 140.785C34.5124 137.838 35.029 134.728 35.789 131.455C36.5557 128.175 37.459 124.765 38.499 121.225C39.539 117.685 41.129 117.205 43.269 119.785C45.409 122.358 45.2757 122.511 42.869 120.245C40.4557 117.971 37.6024 115.205 34.309 111.945C31.009 108.678 28.0724 105.741 25.499 103.135C22.919 100.535 20.6624 98.1112 18.729 95.8645C16.7957 93.6179 14.6557 91.6012 12.309 89.8145C9.96905 88.0345 8.04571 84.8646 6.53904 80.3046C5.03904 75.7446 5.16571 71.8445 6.91905 68.6045C8.67238 65.3712 10.739 62.9712 13.119 61.4045C15.499 59.8379 18.809 59.0412 23.049 59.0145C27.2824 58.9879 30.849 58.9912 33.749 59.0245C36.649 59.0512 39.559 59.0679 42.479 59.0745C45.4057 59.0745 48.559 58.9545 51.939 58.7145C55.319 58.4812 58.6624 58.3212 61.969 58.2345C65.269 58.1479 68.5157 57.9412 71.709 57.6145C74.8957 57.2879 77.109 57.1179 78.349 57.1045C79.5957 57.0912 80.829 57.1579 82.049 57.3045C83.2757 57.4512 84.4657 57.7412 85.619 58.1745C86.7724 58.6079 87.8557 59.1745 88.869 59.8745C89.8824 60.5679 90.799 61.3745 91.619 62.2945C92.439 63.2145 93.1357 64.2212 93.709 65.3145C94.289 66.4012 94.7257 67.5412 95.019 68.7346C95.319 69.9279 95.469 71.1412 95.469 72.3745C95.4757 73.6079 95.3324 74.8212 95.039 76.0145C94.7457 77.2145 94.3124 78.3612 93.739 79.4545C93.1724 80.5412 92.479 81.5479 91.659 82.4745C90.8457 83.4012 89.9324 84.2145 88.919 84.9145C87.9057 85.6145 86.8257 86.1845 85.679 86.6245C84.5257 87.0645 83.339 87.3612 82.119 87.5145C80.8924 87.6612 82.7057 85.7379 87.559 81.7445C92.4124 77.7445 94.1824 77.1279 92.869 79.8945C91.5624 82.6545 90.099 85.4279 88.479 88.2145C86.8524 91.0012 85.5557 93.7712 84.589 96.5245C83.6224 99.2779 80.279 99.6312 74.559 97.5845C68.8457 95.5379 66.499 93.1812 67.519 90.5145C68.539 87.8479 70.1924 85.0012 72.479 81.9745C74.7657 78.9479 77.109 76.1445 79.509 73.5645C81.9157 70.9912 83.079 69.6546 82.999 69.5546C82.919 69.4479 83.3124 68.9612 84.179 68.0945C85.039 67.2412 85.9924 66.4979 87.039 65.8645C88.0857 65.2312 89.189 64.7345 90.349 64.3745C91.5157 64.0079 92.709 63.7879 93.929 63.7145C95.149 63.6412 96.359 63.7145 97.559 63.9345C98.759 64.1545 99.9157 64.5145 101.029 65.0145C102.142 65.5145 103.179 66.1412 104.139 66.8945C105.099 67.6412 105.956 68.4945 106.709 69.4545C107.462 70.4145 108.089 71.4512 108.589 72.5645C109.096 73.6779 109.459 74.8345 109.679 76.0345C109.899 77.2345 109.972 78.4446 109.899 79.6646C109.826 80.8846 109.606 82.0779 109.239 83.2445C108.879 84.4045 108.382 85.5079 107.749 86.5546C107.116 87.6012 106.909 85.2446 107.129 79.4846C107.349 73.7312 107.979 72.3212 109.019 75.2545C110.066 78.1812 110.186 81.6912 109.379 85.7845C108.572 89.8779 107.579 93.9245 106.399 97.9245C105.219 101.918 104.052 105.535 102.899 108.775C101.752 112.008 101.189 113.775 101.209 114.075C101.229 114.375 101.012 115.088 100.559 116.215C100.106 117.335 99.5257 118.388 98.819 119.375C98.1124 120.355 97.299 121.238 96.379 122.025C95.4524 122.811 94.449 123.475 93.369 124.015C92.2824 124.561 91.149 124.968 89.969 125.235C88.789 125.501 87.5924 125.621 86.379 125.595C85.1657 125.575 83.9757 125.408 82.809 125.095C81.6357 124.781 80.519 124.331 79.459 123.745C78.3924 123.165 77.4157 122.465 76.529 121.645C75.6357 120.825 74.8557 119.908 74.189 118.895C73.5157 117.888 72.979 116.811 72.579 115.665C72.1724 114.525 71.909 113.351 71.789 112.145C71.6624 110.945 71.6857 109.745 71.859 108.545C72.0257 107.345 74.509 104.908 79.309 101.235C84.1157 97.5612 87.139 94.4379 88.379 91.8645C89.619 89.2912 91.219 86.3112 93.179 82.9245C95.1324 79.5379 97.039 76.6545 98.899 74.2745C100.759 71.8879 102.316 70.1846 103.569 69.1646C104.816 68.1446 106.192 67.3545 107.699 66.7945C109.206 66.2279 110.766 65.9145 112.379 65.8545C113.992 65.7945 115.572 65.9945 117.119 66.4545C118.659 66.9145 120.089 67.6079 121.409 68.5345C122.722 69.4612 123.856 70.5779 124.809 71.8845C125.762 73.1845 126.482 74.6012 126.969 76.1345C127.456 77.6745 127.682 79.2512 127.649 80.8645C127.622 82.4712 127.336 84.0346 126.789 85.5546C126.249 87.0746 125.479 88.4679 124.479 89.7346C123.479 90.9946 122.302 92.0645 120.949 92.9445C119.602 93.8245 118.146 94.4679 116.579 94.8745C115.019 95.2745 113.436 95.4145 111.829 95.2945C110.222 95.1812 108.676 94.8112 107.189 94.1845C105.702 93.5579 104.356 92.7112 103.149 91.6445C101.936 90.5779 100.929 89.3479 100.129 87.9545C99.3224 86.5545 98.759 85.0646 98.439 83.4846C98.1257 81.9046 98.069 80.3145 98.269 78.7145C98.4757 77.1145 98.9324 75.5912 99.639 74.1445C100.339 72.6912 101.256 71.3912 102.389 70.2445C103.516 69.0912 104.799 68.1512 106.239 67.4245C107.679 66.7045 109.196 66.2279 110.789 65.9945C112.389 65.7679 113.982 65.7979 115.569 66.0845C117.149 66.3779 118.646 66.9112 120.059 67.6845C121.466 68.4645 122.712 69.4512 123.799 70.6445C124.886 71.8379 125.756 73.1712 126.409 74.6445C127.056 76.1245 127.452 77.6645 127.599 79.2645C127.739 80.8712 127.622 82.4579 127.249 84.0245C126.869 85.5979 126.252 87.0645 125.399 88.4245C124.539 89.7912 124.109 90.4745 124.109 90.4745C124.116 90.4745 123.559 91.1679 122.439 92.5546C121.319 93.9479 120.036 95.9145 118.589 98.4545C117.136 100.995 115.182 103.878 112.729 107.105C110.276 110.331 107.826 113.138 105.379 115.525C102.939 117.905 99.559 120.161 95.239 122.295C90.919 124.428 90.839 123.665 94.999 120.005C99.159 116.351 101.012 115.085 100.559 116.205C100.106 117.331 99.5257 118.388 98.819 119.375C98.1124 120.355 97.299 121.238 96.379 122.025C95.4524 122.811 94.449 123.475 93.369 124.015C92.2824 124.561 91.149 124.968 89.969 125.235C88.789 125.501 87.5924 125.621 86.379 125.595C85.1657 125.575 83.9757 125.408 82.809 125.095C81.6357 124.781 80.519 124.335 79.459 123.755C78.399 123.168 77.4224 122.465 76.529 121.645C75.6357 120.825 74.8557 119.908 74.189 118.895C73.5224 117.888 72.9857 116.815 72.579 115.675C72.1724 114.528 71.909 113.355 71.789 112.155C71.6624 110.948 71.6857 109.745 71.859 108.545C72.0257 107.345 72.139 106.551 72.199 106.165C72.2657 105.785 72.9224 103.731 74.169 100.005C75.429 96.2779 77.239 93.2979 79.599 91.0645C81.959 88.8312 83.0957 84.6612 83.009 78.5546C82.9224 72.4479 83.3124 68.9645 84.179 68.1045C85.039 67.2445 85.9924 66.4979 87.039 65.8645C88.079 65.2312 89.1824 64.7345 90.349 64.3745C91.5157 64.0079 92.709 63.7879 93.929 63.7145C95.149 63.6412 96.359 63.7145 97.559 63.9345C98.759 64.1545 99.9157 64.5145 101.029 65.0145C102.142 65.5145 103.179 66.1412 104.139 66.8945C105.099 67.6412 105.956 68.4945 106.709 69.4545C107.462 70.4145 108.089 71.4512 108.589 72.5645C109.096 73.6779 109.459 74.8345 109.679 76.0345C109.899 77.2345 109.972 78.4446 109.899 79.6646C109.826 80.8846 109.606 82.0746 109.239 83.2346C108.879 84.4012 108.382 85.5079 107.749 86.5546C107.116 87.6012 105.909 89.0445 104.129 90.8845C102.342 92.7312 100.382 95.0912 98.249 97.9645C96.1224 100.838 93.9357 103.658 91.689 106.425C89.4424 109.185 86.979 111.721 84.299 114.035C81.619 116.348 78.2624 117.981 74.229 118.935C70.2024 119.881 65.5324 118.498 60.219 114.785C54.899 111.071 52.2357 107.245 52.229 103.305C52.2224 99.3579 52.6557 95.9045 53.529 92.9445C54.4024 89.9779 55.4124 87.1279 56.559 84.3945C57.699 81.6545 59.489 78.5879 61.929 75.1945C64.369 71.8012 68.029 67.9379 72.909 63.6045C77.7824 59.2579 80.829 57.1579 82.049 57.3045C83.2757 57.4445 84.4657 57.7345 85.619 58.1745C86.7724 58.6079 87.8557 59.1712 88.869 59.8645C89.8824 60.5645 90.799 61.3745 91.619 62.2945C92.439 63.2145 93.1357 64.2212 93.709 65.3145C94.289 66.4012 94.7257 67.5412 95.019 68.7346C95.319 69.9279 95.469 71.1412 95.469 72.3745C95.4757 73.6079 95.3324 74.8212 95.039 76.0145C94.7457 77.2145 94.3124 78.3579 93.739 79.4445C93.1724 80.5379 92.4824 81.5479 91.669 82.4745C90.849 83.4012 89.9324 84.2145 88.919 84.9145C87.9124 85.6145 86.8324 86.1845 85.679 86.6245C84.5257 87.0645 83.339 87.3612 82.119 87.5145C80.8924 87.6612 79.0024 87.8479 76.449 88.0745C73.9024 88.3012 71.0957 88.4345 68.029 88.4745C64.9624 88.5212 61.889 88.6845 58.809 88.9645C55.7224 89.2445 52.419 89.3845 48.899 89.3845C45.379 89.3845 42.0257 89.3912 38.839 89.4045C35.6524 89.4179 32.579 88.7112 29.619 87.2845C26.659 85.8579 26.0157 83.6245 27.689 80.5845C29.3624 77.5445 30.0857 74.1245 29.859 70.3245C29.6324 66.5379 30.6724 65.6212 32.979 67.5745C35.2857 69.5345 37.6457 71.7712 40.059 74.2845C42.4724 76.7979 44.739 79.1045 46.859 81.2045C48.9724 83.3045 51.099 85.3945 53.239 87.4745C55.379 89.5545 57.5524 91.6779 59.759 93.8445C61.9657 96.0112 64.2524 98.3612 66.619 100.895C68.9857 103.428 70.3557 107.191 70.729 112.185C71.0957 117.185 70.5557 121.661 69.109 125.615C67.6624 129.561 66.6024 133.111 65.929 136.265C65.2624 139.411 64.8457 142.545 64.679 145.665C64.5057 148.791 63.989 152.138 63.129 155.705C62.2624 159.271 58.2824 158.495 51.189 153.375C44.0957 148.255 41.489 144.601 43.369 142.415C45.249 140.228 47.5724 137.838 50.339 135.245C53.1057 132.645 56.0124 130.345 59.059 128.345C62.1057 126.345 64.8724 124.615 67.359 123.155C69.8524 121.695 72.709 119.941 75.929 117.895C79.1624 115.848 82.4524 113.998 85.799 112.345C89.1524 110.691 92.3324 109.541 95.339 108.895C98.3457 108.255 101.659 108.345 105.279 109.165C108.899 109.991 111.882 111.265 114.229 112.985C116.582 114.705 118.709 116.818 120.609 119.325C122.516 121.831 124.586 124.028 126.819 125.915C129.052 127.801 131.786 130.098 135.019 132.805C138.252 135.505 141.369 137.738 144.369 139.505C147.376 141.271 144.966 143.641 137.139 146.615C129.306 149.581 124.782 149.515 123.569 146.415C122.349 143.321 121.309 140.335 120.449 137.455C119.589 134.568 118.629 131.728 117.569 128.935C116.502 126.135 115.479 123.068 114.499 119.735C113.519 116.395 112.476 113.001 111.369 109.555C110.262 106.101 109.759 101.815 109.859 96.6945C109.952 91.5745 111.316 87.7079 113.949 85.0945C116.582 82.4879 119.482 80.3479 122.649 78.6745C125.816 76.9945 128.839 75.1779 131.719 73.2245C134.599 71.2645 137.616 69.3212 140.769 67.3945C143.916 65.4812 147.222 64.1545 150.689 63.4145C154.149 62.6745 155.796 63.7745 155.629 66.7145C155.462 69.6479 156.736 73.0612 159.449 76.9545C162.162 80.8545 161.959 82.7745 158.839 82.7145C155.712 82.6479 152.682 82.4612 149.749 82.1545C146.816 81.8479 143.842 81.6679 140.829 81.6145C137.809 81.5679 134.859 81.4245 131.979 81.1845C129.092 80.9445 126.182 80.5979 123.249 80.1445C120.316 79.6845 117.119 79.1779 113.659 78.6245C110.192 78.0712 106.942 77.5745 103.909 77.1345C100.869 76.6945 97.799 75.3912 94.699 73.2245C91.6057 71.0579 89.339 68.2779 87.899 64.8845C86.459 61.4845 85.2057 58.1712 84.139 54.9445C83.0657 51.7179 82.099 48.6545 81.239 45.7545C80.379 42.8612 79.799 39.2679 79.499 34.9745C79.199 30.6879 78.2657 25.7645 76.699 20.2045C75.139 14.6445 74.6524 11.4179 75.239 10.5245C75.8257 9.62455 76.509 8.80788 77.289 8.07455C78.0757 7.34121 78.9357 6.71121 79.869 6.18455C80.809 5.66455 81.7957 5.26121 82.829 4.97455C83.8624 4.69455 84.9157 4.53788 85.989 4.50455C87.0624 4.47788 88.1224 4.57788 89.169 4.80455C90.2157 5.03788 91.219 5.39121 92.179 5.86455C93.1457 6.33121 94.039 6.91122 94.859 7.60455C95.679 8.29122 96.4057 9.06788 97.039 9.93455C97.6724 10.8012 98.1924 11.7312 98.599 12.7245C99.0057 13.7179 99.289 14.7445 99.449 15.8045C99.6024 16.8645 99.629 17.9279 99.529 18.9945C99.429 20.0679 99.2024 21.1112 98.849 22.1245C98.4957 23.1312 98.169 23.9779 97.869 24.6645C97.569 25.3445 97.039 27.1845 96.279 30.1845C95.5124 33.1845 94.7257 36.0679 93.919 38.8345C93.1057 41.6079 92.0924 44.8479 90.879 48.5545C89.6724 52.2545 88.479 55.6245 87.299 58.6645C86.1257 61.7045 85.059 64.4279 84.099 66.8345C83.1324 69.2345 82.4657 70.8045 82.099 71.5445C81.7257 72.2912 81.269 72.9812 80.729 73.6145C80.189 74.2479 79.5824 74.8079 78.909 75.2945C78.229 75.7812 77.5057 76.1779 76.739 76.4846C75.9657 76.7979 75.1657 77.0112 74.339 77.1245C73.519 77.2445 72.6957 77.2612 71.869 77.1745C71.0424 77.0879 70.239 76.9045 69.459 76.6245C68.6724 76.3445 67.9324 75.9745 67.239 75.5145C66.5457 75.0612 65.919 74.5279 65.359 73.9146C64.7924 73.3012 64.309 72.6312 63.909 71.9045C63.509 71.1712 63.2024 70.4045 62.989 69.6045C62.769 68.7979 62.6524 67.9779 62.639 67.1445C62.6257 66.3245 62.709 65.5079 62.889 64.6945C63.0757 63.8812 63.169 63.4745 63.169 63.4745Z" fill="#9C36B5"/>
</g>
</svg>
