<svg width="200" height="185" viewBox="0 0 200 185" fill="none" xmlns="http://www.w3.org/2000/svg">
<mask id="mask0_5_23" style="mask-type:luminance" maskUnits="userSpaceOnUse" x="0" y="0" width="200" height="185">
<path d="M192 0.5H8.72723C4.30896 0.5 0.727234 4.08172 0.727234 8.5V176.318C0.727234 180.736 4.30896 184.318 8.72723 184.318H192C196.418 184.318 200 180.736 200 176.318V8.5C200 4.08172 196.418 0.5 192 0.5Z" fill="white"/>
</mask>
<g mask="url(#mask0_5_23)">
<path d="M109.744 21.19C109.744 21.19 108.964 22.76 107.404 25.9C105.837 29.04 104.394 32.2933 103.074 35.66C101.747 39.0267 100.677 42.1233 99.8636 44.95C99.0436 47.7833 98.2703 50.7033 97.5436 53.71C96.8169 56.71 96.0236 59.8033 95.1636 62.99C94.3103 66.1767 93.4636 69.4133 92.6236 72.7C91.7903 75.98 90.1203 79.4867 87.6136 83.22C85.1003 86.96 82.3703 89.19 79.4236 89.91C76.4703 90.63 73.4269 91.0367 70.2936 91.13C67.1603 91.2233 63.9569 91.16 60.6836 90.94C57.4169 90.72 53.7669 90.51 49.7336 90.31C45.6936 90.11 41.7369 89.9967 37.8636 89.97C33.9836 89.9433 30.4536 89.9467 27.2736 89.98C24.0869 90.0067 22.4169 90.0533 22.2636 90.12C22.1103 90.18 21.4603 90.3133 20.3136 90.52C19.1603 90.7267 18.0036 90.79 16.8436 90.71C15.6769 90.63 14.5369 90.4133 13.4236 90.06C12.3169 89.7067 11.2636 89.2267 10.2636 88.62C9.27026 88.0133 8.3636 87.2933 7.5436 86.46C6.7236 85.6333 6.0136 84.72 5.4136 83.72C4.82027 82.7133 4.3536 81.6533 4.0136 80.54C3.6736 79.4267 3.47026 78.2867 3.4036 77.12C3.33693 75.9533 3.41359 74.7967 3.63359 73.65C3.85359 72.5033 4.2036 71.4 4.6836 70.34C5.17026 69.28 5.77693 68.2933 6.5036 67.38C7.2236 66.4667 8.04693 65.6533 8.9736 64.94C9.8936 64.2267 10.8869 63.6333 11.9536 63.16C13.0203 62.6867 17.0003 63.62 23.8936 65.96C30.7803 68.3 35.9869 70.5533 39.5136 72.72C43.0403 74.8867 45.9936 76.93 48.3736 78.85C50.7603 80.77 53.3736 82.76 56.2136 84.82C59.0536 86.88 61.6969 88.68 64.1436 90.22C66.5903 91.76 69.2236 93.6867 72.0436 96C74.8636 98.32 76.7536 100.887 77.7136 103.7C78.6736 106.52 78.8869 109.61 78.3536 112.97C77.8203 116.33 77.1569 119.457 76.3636 122.35C75.5703 125.237 74.8936 128.427 74.3336 131.92C73.7736 135.407 73.3203 138.633 72.9736 141.6C72.6269 144.567 72.3069 147.52 72.0136 150.46C71.7136 153.393 71.1303 156.847 70.2636 160.82C69.3969 164.793 68.9236 166.97 68.8436 167.35C68.7636 167.73 68.4236 168.437 67.8236 169.47C67.2236 170.497 66.5103 171.44 65.6836 172.3C64.8503 173.153 63.9303 173.897 62.9236 174.53C61.9103 175.163 60.8403 175.67 59.7136 176.05C58.5803 176.423 57.4169 176.653 56.2236 176.74C55.0369 176.833 53.8569 176.783 52.6836 176.59C51.5036 176.39 50.3669 176.057 49.2736 175.59C48.1736 175.117 47.1503 174.52 46.2036 173.8C45.2503 173.08 44.4003 172.257 43.6536 171.33C42.9003 170.403 42.2703 169.4 41.7636 168.32C41.2569 167.24 40.8869 166.117 40.6536 164.95C40.4136 163.783 40.3203 162.603 40.3736 161.41C40.4269 160.217 40.6203 159.05 40.9536 157.91C41.2936 156.763 43.5869 154.737 47.8336 151.83C52.0803 148.93 55.1103 146.307 56.9236 143.96C58.7303 141.62 60.9069 139.253 63.4536 136.86C66.0003 134.467 68.4136 132.24 70.6936 130.18C72.9736 128.12 77.7536 126.257 85.0336 124.59C92.3203 122.923 97.3336 122.937 100.074 124.63C102.807 126.317 105.474 128.153 108.074 130.14C110.674 132.127 113.257 134.127 115.824 136.14C118.39 138.153 121.087 139.93 123.914 141.47C126.74 143.01 130.017 144.77 133.744 146.75C137.464 148.73 141.224 150.753 145.024 152.82C148.824 154.887 150.45 155.657 149.904 155.13C149.364 154.61 149.62 154.643 150.674 155.23C151.72 155.817 152.687 156.523 153.574 157.35C154.454 158.17 155.22 159.087 155.874 160.1C156.534 161.113 157.064 162.187 157.464 163.32C157.857 164.46 158.11 165.63 158.224 166.83C158.337 168.03 158.304 169.227 158.124 170.42C157.95 171.613 157.634 172.767 157.174 173.88C156.714 174.993 156.13 176.037 155.424 177.01C154.71 177.983 153.894 178.86 152.974 179.64C152.047 180.413 151.044 181.063 149.964 181.59C148.877 182.123 147.747 182.52 146.574 182.78C145.394 183.033 144.2 183.143 142.994 183.11C141.787 183.077 140.604 182.9 139.444 182.58C138.284 182.26 136.297 180.613 133.484 177.64C130.664 174.667 128.02 171.51 125.554 168.17C123.094 164.83 120.907 161.28 118.994 157.52C117.08 153.76 115.37 150.29 113.864 147.11C112.364 143.93 111.014 140.837 109.814 137.83C108.62 134.83 108.094 131.41 108.234 127.57C108.38 123.737 109.33 120.603 111.084 118.17C112.844 115.737 115.604 113.357 119.364 111.03C123.13 108.703 126.374 106.793 129.094 105.3C131.814 103.813 134.577 102.143 137.384 100.29C140.197 98.4367 142.987 96.7633 145.754 95.27C148.52 93.77 151.257 92.36 153.964 91.04C156.677 89.72 159.25 88.1933 161.684 86.46C164.124 84.7267 166.554 82.94 168.974 81.1C171.394 79.26 172.804 78.1433 173.204 77.75C173.61 77.35 174.334 76.8333 175.374 76.2C176.407 75.5667 177.504 75.0667 178.664 74.7C179.824 74.3333 181.01 74.11 182.224 74.03C183.437 73.95 184.644 74.0167 185.844 74.23C187.037 74.4433 188.19 74.7967 189.304 75.29C190.417 75.7833 191.454 76.4033 192.414 77.15C193.374 77.8967 194.23 78.7467 194.984 79.7C195.737 80.6533 196.367 81.6833 196.874 82.79C197.38 83.8967 197.744 85.0467 197.964 86.24C198.19 87.44 198.27 88.6467 198.204 89.86C198.137 91.0733 197.924 92.26 197.564 93.42C197.21 94.5867 196.72 95.69 196.094 96.73C195.467 97.7767 194.727 98.7333 193.874 99.6C193.02 100.46 189.51 100.927 183.344 101C177.184 101.073 172.12 101.077 168.154 101.01C164.18 100.943 160.387 100.593 156.774 99.96C153.167 99.3267 149.324 98.8267 145.244 98.46C141.164 98.0867 137.424 97.7267 134.024 97.38C130.617 97.0333 127.42 96.5 124.434 95.78C121.454 95.06 117.957 92.9033 113.944 89.31C109.937 85.7167 107.174 82.3 105.654 79.06C104.14 75.8267 102.767 72.92 101.534 70.34C100.307 67.7533 99.1403 64.9633 98.0336 61.97C96.9269 58.97 95.8736 55.6133 94.8736 51.9C93.8803 48.1867 93.3936 46.47 93.4136 46.75C93.4336 47.0367 93.2603 46.61 92.8936 45.47C92.5336 44.3367 92.3136 43.1733 92.2336 41.98C92.1536 40.7867 92.2169 39.6033 92.4236 38.43C92.6303 37.2567 92.9769 36.1233 93.4636 35.03C93.9436 33.9367 94.5503 32.9167 95.2836 31.97C96.0103 31.03 96.8436 30.1867 97.7836 29.44C98.7169 28.7 99.7236 28.08 100.804 27.58C101.89 27.0867 103.02 26.7267 104.194 26.5C105.367 26.28 106.547 26.2033 107.734 26.27C108.927 26.33 110.097 26.5367 111.244 26.89C112.384 27.2367 113.467 27.7133 114.494 28.32C115.52 28.9333 116.457 29.66 117.304 30.5C118.15 31.34 118.887 32.2667 119.514 33.28C120.14 34.3 120.594 36.4733 120.874 39.8C121.154 43.1267 121.33 46.23 121.404 49.11C121.47 51.99 121.237 56.2 120.704 61.74C120.17 67.28 119.474 71.58 118.614 74.64C117.76 77.7067 116.18 81.7433 113.874 86.75C111.574 91.7567 109.687 95.55 108.214 98.13C106.74 100.703 105.8 102.33 105.394 103.01C104.987 103.683 104.474 104.493 103.854 105.44C103.227 106.38 102.5 107.233 101.674 108C100.84 108.767 99.9303 109.423 98.9436 109.97C97.9569 110.517 96.9169 110.933 95.8236 111.22C94.7303 111.513 93.6203 111.673 92.4936 111.7C91.3603 111.72 90.2436 111.607 89.1436 111.36C88.0369 111.107 86.9803 110.727 85.9736 110.22C84.9603 109.72 84.0236 109.103 83.1636 108.37C82.3036 107.637 81.5436 106.81 80.8836 105.89C80.2236 104.977 79.6836 103.993 79.2636 102.94C78.8369 101.893 78.5469 100.81 78.3936 99.69C78.2336 98.57 78.2103 97.4467 78.3236 96.32C78.4369 95.2 78.6836 94.1067 79.0636 93.04C79.4436 91.9733 79.6936 93.5667 79.8136 97.82C79.9403 102.073 79.5669 102.483 78.6936 99.05C77.8269 95.6167 76.7336 92.2033 75.4136 88.81C74.0936 85.4233 75.2769 83.8867 78.9636 84.2C82.6436 84.5133 86.2203 84.0267 89.6936 82.74C93.1736 81.4533 94.3136 83.2367 93.1136 88.09C91.9203 92.95 90.9503 97.6433 90.2036 102.17C89.4503 106.697 89.1036 109.783 89.1636 111.43C89.2169 113.083 89.1203 114.447 88.8736 115.52C88.6336 116.6 88.2636 117.633 87.7636 118.62C87.2703 119.607 86.6636 120.52 85.9436 121.36C85.2236 122.2 84.4169 122.943 83.5236 123.59C82.6236 124.23 81.6603 124.757 80.6336 125.17C79.6069 125.577 78.5469 125.857 77.4536 126.01C76.3603 126.163 75.2636 126.183 74.1636 126.07C73.0636 125.957 71.9936 125.713 70.9536 125.34C69.9136 124.967 68.9336 124.473 68.0136 123.86C67.0936 123.247 66.2603 122.533 65.5136 121.72C64.7669 120.907 64.1269 120.013 63.5936 119.04C63.0669 118.073 62.6603 117.057 62.3736 115.99C62.0936 114.923 61.9436 113.837 61.9236 112.73C61.9036 111.623 63.7036 109.043 67.3236 104.99C70.9436 100.937 74.2903 96.9533 77.3636 93.04C80.4369 89.1333 83.8336 85.4633 87.5536 82.03C91.2669 78.6033 95.5403 76.05 100.374 74.37C105.207 72.6833 109.427 72.58 113.034 74.06C116.647 75.54 119.28 77.7367 120.934 80.65C122.594 83.5567 123.304 86.61 123.064 89.81C122.817 93.01 122.154 96.0667 121.074 98.98C119.994 101.9 118.354 105.543 116.154 109.91C113.947 114.277 112.327 117.81 111.294 120.51C110.254 123.21 109.3 123.2 108.434 120.48C107.56 117.76 105.764 115.513 103.044 113.74C100.324 111.973 99.3169 109.617 100.024 106.67C100.73 103.717 102.727 100.467 106.014 96.92C109.294 93.3733 112.554 90.3 115.794 87.7C119.027 85.1 124.647 85.5867 132.654 89.16C140.66 92.7333 144.207 96.4967 143.294 100.45C142.374 104.403 140.19 108.157 136.744 111.71C133.297 115.263 130.304 117.813 127.764 119.36C125.217 120.907 121.717 122.68 117.264 124.68C112.804 126.68 108.704 128.447 104.964 129.98C101.237 131.513 97.8903 133.053 94.9236 134.6C91.9569 136.147 89.8836 137.193 88.7036 137.74C87.5236 138.293 86.3869 138.69 85.2936 138.93C84.2003 139.177 83.0936 139.287 81.9736 139.26C80.8469 139.233 79.7436 139.073 78.6636 138.78C77.5836 138.48 76.5536 138.06 75.5736 137.52C74.5936 136.973 73.6936 136.317 72.8736 135.55C72.0469 134.79 71.3269 133.94 70.7136 133C70.1003 132.067 69.6069 131.07 69.2336 130.01C68.8603 128.95 68.6203 127.863 68.5136 126.75C68.4069 125.63 68.4336 124.517 68.5936 123.41C68.7536 122.303 69.0469 121.23 69.4736 120.19C69.8936 119.15 70.4336 118.177 71.0936 117.27C71.7536 116.363 72.5103 115.547 73.3636 114.82C74.2236 114.1 75.1569 113.49 76.1636 112.99C77.1636 112.497 79.1736 111.893 82.1936 111.18C85.2069 110.46 88.4903 109.48 92.0436 108.24C95.6036 107 98.7036 105.803 101.344 104.65C103.997 103.497 105.99 101.38 107.324 98.3C108.664 95.2133 109.63 92.9633 110.224 91.55C110.817 90.13 111.46 88.94 112.154 87.98C112.84 87.02 113.634 86.1567 114.534 85.39C115.434 84.6233 116.41 83.9767 117.464 83.45C118.524 82.9233 119.627 82.53 120.774 82.27C121.927 82.01 123.094 81.89 124.274 81.91C125.454 81.93 126.614 82.0933 127.754 82.4C128.9 82.7067 129.99 83.1433 131.024 83.71C132.057 84.2767 133.007 84.96 133.874 85.76C134.747 86.56 135.507 87.4533 136.154 88.44C136.807 89.4267 137.334 90.4767 137.734 91.59C138.127 92.6967 138.384 93.84 138.504 95.02C138.624 96.1933 138.604 97.3633 138.444 98.53C138.277 99.7033 137.974 100.837 137.534 101.93C137.094 103.023 134.034 104.74 128.354 107.08C122.674 109.42 119.12 110.247 117.694 109.56C116.267 108.867 114.987 107.967 113.854 106.86C112.72 105.753 111.794 104.493 111.074 103.08C110.354 101.667 109.88 100.177 109.654 98.61C109.42 97.0433 109.444 95.48 109.724 93.92C110.004 92.36 110.527 90.8833 111.294 89.49C112.06 88.1033 113.027 86.8767 114.194 85.81C115.36 84.7367 116.67 83.88 118.124 83.24C119.57 82.5933 121.084 82.2 122.664 82.06C124.244 81.9133 125.804 82.0233 127.344 82.39C128.884 82.75 130.327 83.35 131.674 84.19C133.02 85.03 134.197 86.0633 135.204 87.29C136.204 88.5167 136.987 89.87 137.554 91.35C138.114 92.83 138.424 94.3633 138.484 95.95C138.544 97.53 138.35 99.08 137.904 100.6C137.45 102.12 136.77 103.53 135.864 104.83C134.95 106.123 133.857 107.24 132.584 108.18C131.304 109.12 129.91 109.83 128.404 110.31C126.89 110.79 125.34 111.017 123.754 110.99C122.174 110.963 120.637 110.687 119.144 110.16C117.65 109.627 116.28 108.87 115.034 107.89C113.787 106.91 112.73 105.757 111.864 104.43C110.997 103.103 110.364 101.673 109.964 100.14C109.564 98.6067 109.42 97.05 109.534 95.47C109.64 93.89 110 92.37 110.614 90.91C111.227 89.4433 112.057 88.1167 113.104 86.93C114.144 85.7367 115.35 84.7433 116.724 83.95C118.097 83.1567 119.56 82.6 121.114 82.28C122.667 81.9667 121.39 83.0767 117.284 85.61C113.17 88.15 111.46 88.94 112.154 87.98C112.84 87.02 113.634 86.1567 114.534 85.39C115.434 84.6233 116.41 83.9767 117.464 83.45C118.517 82.9233 119.62 82.53 120.774 82.27C121.927 82.01 123.094 81.89 124.274 81.91C125.454 81.93 126.614 82.0933 127.754 82.4C128.894 82.7067 129.984 83.1433 131.024 83.71C132.057 84.2767 133.007 84.96 133.874 85.76C134.747 86.56 135.507 87.4533 136.154 88.44C136.807 89.4267 137.334 90.4733 137.734 91.58C138.127 92.6933 138.384 93.8367 138.504 95.01C138.624 96.19 138.604 97.3633 138.444 98.53C138.277 99.6967 137.974 100.83 137.534 101.93C137.094 103.023 136.48 104.423 135.694 106.13C134.907 107.83 133.657 110.01 131.944 112.67C130.23 115.337 128.274 117.993 126.074 120.64C123.874 123.287 121.354 125.537 118.514 127.39C115.674 129.243 112.94 130.72 110.314 131.82C107.687 132.927 105.004 133.9 102.264 134.74C99.5236 135.573 96.2836 136.42 92.5436 137.28C88.8036 138.14 86.3869 138.69 85.2936 138.93C84.2003 139.177 83.0936 139.287 81.9736 139.26C80.8536 139.233 79.7503 139.073 78.6636 138.78C77.5836 138.48 76.5536 138.06 75.5736 137.52C74.5936 136.973 73.6936 136.32 72.8736 135.56C72.0536 134.793 71.3336 133.94 70.7136 133C70.1003 132.067 69.6069 131.07 69.2336 130.01C68.8603 128.95 68.6203 127.863 68.5136 126.75C68.4069 125.637 68.4336 124.523 68.5936 123.41C68.7536 122.303 69.0469 121.23 69.4736 120.19C69.8936 119.15 70.4336 118.177 71.0936 117.27C71.7536 116.363 72.5103 115.55 73.3636 114.83C74.2236 114.103 75.1569 113.49 76.1636 112.99C77.1636 112.497 78.0503 112.067 78.8236 111.7C79.5969 111.327 81.5803 110.393 84.7736 108.9C87.9669 107.407 91.4369 105.877 95.1836 104.31C98.9169 102.743 102.35 101.243 105.484 99.81C108.617 98.3767 111.807 96.7967 115.054 95.07C118.3 93.3433 122.214 95.0467 126.794 100.18C131.374 105.313 132.487 108.97 130.134 111.15C127.774 113.323 124.78 116.497 121.154 120.67C117.527 124.837 114.447 128.03 111.914 130.25C109.374 132.47 106.37 133.827 102.904 134.32C99.4369 134.813 95.8336 133.863 92.0936 131.47C88.3603 129.077 86.3836 125.047 86.1636 119.38C85.9369 113.707 86.7536 108.81 88.6136 104.69C90.4669 100.563 92.9169 97.7333 95.9636 96.2C99.0036 94.6733 101.52 94.9933 103.514 97.16C105.5 99.3333 104.987 102.083 101.974 105.41C98.9669 108.737 96.3636 111.767 94.1636 114.5C91.9703 117.233 89.5369 119.567 86.8636 121.5C84.1969 123.433 83.9269 122.65 86.0536 119.15C88.1803 115.657 89.1203 114.447 88.8736 115.52C88.6336 116.6 88.2636 117.633 87.7636 118.62C87.2703 119.607 86.6636 120.52 85.9436 121.36C85.2236 122.2 84.4169 122.94 83.5236 123.58C82.6236 124.227 81.6603 124.757 80.6336 125.17C79.6069 125.577 78.5469 125.857 77.4536 126.01C76.3603 126.163 75.2636 126.183 74.1636 126.07C73.0636 125.957 71.9936 125.713 70.9536 125.34C69.9136 124.967 68.9336 124.473 68.0136 123.86C67.0936 123.247 66.2603 122.533 65.5136 121.72C64.7669 120.907 64.1269 120.017 63.5936 119.05C63.0669 118.077 62.6603 117.057 62.3736 115.99C62.0936 114.923 61.9436 113.837 61.9236 112.73C61.9036 111.623 61.9469 109.963 62.0536 107.75C62.1603 105.537 62.5369 102.173 63.1836 97.66C63.8303 93.14 64.6703 88.1967 65.7036 82.83C66.7303 77.4567 68.1936 73.0367 70.0936 69.57C71.9936 66.1033 74.3936 63.8267 77.2936 62.74C80.1936 61.6533 84.1436 62.19 89.1436 64.35C94.1436 66.5033 97.4469 69.18 99.0536 72.38C100.654 75.58 101.77 79.29 102.404 83.51C103.03 87.7367 103.584 92.21 104.064 96.93C104.544 101.657 104.474 104.493 103.854 105.44C103.227 106.38 102.5 107.233 101.674 108C100.84 108.767 99.9303 109.423 98.9436 109.97C97.9569 110.51 96.9169 110.927 95.8236 111.22C94.7303 111.513 93.6203 111.673 92.4936 111.7C91.3603 111.72 90.2436 111.607 89.1436 111.36C88.0436 111.107 86.9869 110.727 85.9736 110.22C84.9603 109.72 84.0236 109.103 83.1636 108.37C82.3036 107.637 81.5436 106.81 80.8836 105.89C80.2236 104.977 79.6836 103.993 79.2636 102.94C78.8369 101.893 78.5469 100.81 78.3936 99.69C78.2336 98.57 78.2103 97.45 78.3236 96.33C78.4369 95.2033 78.6836 94.1067 79.0636 93.04C79.4436 91.98 79.8536 91.1167 80.2936 90.45C80.7336 89.7833 81.7669 88.05 83.3936 85.25C85.0136 82.4433 86.5203 79.5067 87.9136 76.44C89.3136 73.3667 90.3669 69.9233 91.0736 66.11C91.7869 62.29 92.1036 58.3033 92.0236 54.15C91.9436 49.99 91.9769 46.3067 92.1236 43.1C92.2703 39.8933 92.5269 39.7733 92.8936 42.74C93.2603 45.7 93.2603 46.61 92.8936 45.47C92.5336 44.3367 92.3136 43.1733 92.2336 41.98C92.1536 40.7867 92.2169 39.6033 92.4236 38.43C92.6303 37.2567 92.9769 36.1233 93.4636 35.03C93.9436 33.9367 94.5503 32.9167 95.2836 31.97C96.0103 31.03 96.8436 30.1867 97.7836 29.44C98.7169 28.7 99.7236 28.08 100.804 27.58C101.89 27.0867 103.017 26.7267 104.184 26.5C105.357 26.28 106.54 26.2033 107.734 26.27C108.927 26.33 110.094 26.5367 111.234 26.89C112.38 27.2367 113.467 27.7133 114.494 28.32C115.514 28.9333 116.45 29.66 117.304 30.5C118.15 31.34 118.887 32.2667 119.514 33.28C120.14 34.3 120.5 35.0133 120.594 35.42C120.694 35.8267 121.327 37.97 122.494 41.85C123.66 45.73 124.98 49.4133 126.454 52.9C127.92 56.3933 128.91 59.6267 129.424 62.6C129.944 65.5733 131.61 67.2667 134.424 67.68C137.237 68.0933 140.607 68.4667 144.534 68.8C148.46 69.1267 152.19 69.4967 155.724 69.91C159.257 70.33 162.527 70.73 165.534 71.11C168.54 71.49 171.617 71.8267 174.764 72.12C177.91 72.4133 181.424 73.1533 185.304 74.34C189.177 75.5267 188.23 76.29 182.464 76.63C176.697 76.9767 174.33 76.8333 175.364 76.2C176.404 75.5667 177.504 75.0667 178.664 74.7C179.824 74.3333 181.01 74.11 182.224 74.03C183.437 73.95 184.644 74.0167 185.844 74.23C187.037 74.4433 188.19 74.7967 189.304 75.29C190.417 75.7833 191.454 76.4033 192.414 77.15C193.374 77.8967 194.23 78.7467 194.984 79.7C195.737 80.6533 196.367 81.6833 196.874 82.79C197.38 83.8967 197.744 85.0467 197.964 86.24C198.19 87.44 198.27 88.6467 198.204 89.86C198.137 91.0733 197.924 92.26 197.564 93.42C197.21 94.5867 196.72 95.69 196.094 96.73C195.474 97.7767 194.734 98.73 193.874 99.59C193.02 100.457 192.007 101.353 190.834 102.28C189.654 103.207 187.884 104.513 185.524 106.2C183.17 107.88 180.644 109.64 177.944 111.48C175.25 113.32 172.464 114.963 169.584 116.41C166.704 117.857 163.614 119.507 160.314 121.36C157.014 123.213 153.457 125.317 149.644 127.67C145.83 130.023 142.03 132.337 138.244 134.61C134.464 136.883 133.344 136.14 134.884 132.38C136.43 128.62 137.924 128.15 139.364 130.97C140.797 133.79 142.027 136.65 143.054 139.55C144.08 142.443 145.72 145.49 147.974 148.69C150.227 151.883 152.324 154.953 154.264 157.9C156.21 160.847 155.834 160.993 153.134 158.34C150.44 155.68 149.62 154.643 150.674 155.23C151.72 155.817 152.684 156.523 153.564 157.35C154.45 158.17 155.22 159.087 155.874 160.1C156.534 161.107 157.06 162.18 157.454 163.32C157.854 164.46 158.11 165.63 158.224 166.83C158.337 168.03 158.304 169.227 158.124 170.42C157.95 171.613 157.634 172.767 157.174 173.88C156.72 174.993 156.137 176.037 155.424 177.01C154.71 177.983 153.894 178.857 152.974 179.63C152.047 180.41 151.044 181.063 149.964 181.59C148.877 182.123 147.747 182.52 146.574 182.78C145.394 183.033 144.2 183.143 142.994 183.11C141.794 183.077 140.61 182.9 139.444 182.58C138.284 182.26 137.34 181.777 136.614 181.13C135.887 180.477 133.54 179.267 129.574 177.5C125.607 175.727 122.1 174.043 119.054 172.45C116.014 170.863 113.137 169.347 110.424 167.9C107.717 166.46 104.68 164.527 101.314 162.1C97.9536 159.68 94.8103 157.443 91.8836 155.39C88.9503 153.337 86.8469 150.97 85.5736 148.29C84.2936 145.61 85.8636 144.747 90.2836 145.7C94.7036 146.653 95.5503 148.223 92.8236 150.41C90.0969 152.597 87.7369 154.703 85.7436 156.73C83.7503 158.757 81.3536 160.883 78.5536 163.11C75.7536 165.33 73.0536 167.517 70.4536 169.67C67.8536 171.817 65.1069 173.493 62.2136 174.7C59.3203 175.907 59.6803 175.08 63.2936 172.22C66.9136 169.353 68.4236 168.433 67.8236 169.46C67.2236 170.493 66.5103 171.44 65.6836 172.3C64.8569 173.153 63.9369 173.897 62.9236 174.53C61.9169 175.163 60.8469 175.667 59.7136 176.04C58.5803 176.42 57.4169 176.653 56.2236 176.74C55.0369 176.833 53.8569 176.783 52.6836 176.59C51.5036 176.39 50.3669 176.057 49.2736 175.59C48.1803 175.117 47.1569 174.52 46.2036 173.8C45.2503 173.08 44.4003 172.257 43.6536 171.33C42.9003 170.403 42.2703 169.4 41.7636 168.32C41.2569 167.247 40.8869 166.123 40.6536 164.95C40.4136 163.783 40.3203 162.603 40.3736 161.41C40.4269 160.217 40.6203 159.05 40.9536 157.91C41.2936 156.763 41.5969 155.523 41.8636 154.19C42.1303 152.863 42.4269 150.773 42.7536 147.92C43.0803 145.073 43.5036 141.63 44.0236 137.59C44.5436 133.55 45.1503 129.507 45.8436 125.46C46.5436 121.413 47.4936 117.99 48.6936 115.19C49.8936 112.39 51.5103 112.313 53.5436 114.96C55.5703 117.607 55.0303 118.04 51.9236 116.26C48.8169 114.48 45.7303 112.357 42.6636 109.89C39.6036 107.417 36.4803 104.883 33.2936 102.29C30.1069 99.7033 27.4336 97.0433 25.2736 94.31C23.1136 91.5767 21.4603 90.3133 20.3136 90.52C19.1603 90.7267 18.0036 90.79 16.8436 90.71C15.6769 90.63 14.5369 90.4133 13.4236 90.06C12.3169 89.7067 11.2636 89.2267 10.2636 88.62C9.27026 88.0133 8.3636 87.2933 7.5436 86.46C6.7236 85.6333 6.01693 84.72 5.42359 83.72C4.82359 82.7133 4.3536 81.6533 4.0136 80.54C3.6736 79.4267 3.47026 78.2867 3.4036 77.12C3.33693 75.9533 3.41359 74.7967 3.63359 73.65C3.84693 72.5033 4.19693 71.4 4.6836 70.34C5.17026 69.28 5.77693 68.2933 6.5036 67.38C7.2236 66.4667 8.04693 65.6533 8.9736 64.94C9.8936 64.2267 10.8869 63.6333 11.9536 63.16C13.0203 62.6867 14.5503 62.2333 16.5436 61.8C18.5303 61.36 21.0236 61.1567 24.0236 61.19C27.0236 61.2167 30.3803 61.2567 34.0936 61.31C37.8003 61.3633 41.2803 61.5533 44.5336 61.88C47.7936 62.2 51.2103 62.4167 54.7836 62.53C58.3503 62.6367 61.9069 63.1267 65.4536 64C68.9936 64.8667 69.8736 66.6833 68.0936 69.45C66.3203 72.21 65.9736 71.9533 67.0536 68.68C68.1336 65.4067 69.3803 61.5733 70.7936 57.18C72.2069 52.7867 73.4803 49.0567 74.6136 45.99C75.7469 42.9167 77.0869 39.6733 78.6336 36.26C80.1869 32.8533 81.8469 29.49 83.6136 26.17C85.3803 22.8567 87.0503 19.6333 88.6236 16.5C90.1969 13.3733 91.2169 11.46 91.6836 10.76C92.1436 10.0533 92.6836 9.41333 93.3036 8.84C93.9236 8.27333 94.6036 7.78667 95.3436 7.38C96.0836 6.97333 96.8603 6.66 97.6736 6.44C98.4936 6.22 99.3236 6.10333 100.164 6.09C101.004 6.07 101.834 6.15333 102.654 6.34C103.474 6.52667 104.26 6.81 105.014 7.19C105.774 7.56333 106.474 8.02333 107.114 8.57C107.754 9.11667 108.32 9.73333 108.814 10.42C109.307 11.1067 109.71 11.84 110.024 12.62C110.337 13.4 110.554 14.21 110.674 15.05C110.794 15.8833 110.81 16.7167 110.724 17.55C110.637 18.39 110.454 19.2067 110.174 20C109.887 20.7933 109.744 21.19 109.744 21.19Z" fill="#9C36B5"/>
</g>
</svg>
