<svg width="183" height="182" viewBox="0 0 183 182" fill="none" xmlns="http://www.w3.org/2000/svg">
<mask id="mask0_5_15" style="mask-type:luminance" maskUnits="userSpaceOnUse" x="0" y="0" width="183" height="182">
<path d="M175 0.0454559H8.09094C3.67266 0.0454559 0.0909424 3.62718 0.0909424 8.04546V173.136C0.0909424 177.555 3.67266 181.136 8.09094 181.136H175C179.418 181.136 183 177.555 183 173.136V8.04546C183 3.62718 179.418 0.0454559 175 0.0454559Z" fill="white"/>
</mask>
<g mask="url(#mask0_5_15)">
<path d="M99.5473 13.1055C99.5473 13.1055 100.071 14.8421 101.117 18.3155C102.164 21.8021 103.267 25.2488 104.427 28.6555C105.587 32.0621 106.817 35.4888 108.117 38.9355C109.417 42.3821 110.694 45.7155 111.947 48.9355C113.194 52.1621 115.351 53.8421 118.417 53.9755C121.484 54.1088 124.727 54.1421 128.147 54.0755C131.567 54.0155 134.854 54.0921 138.007 54.3055C141.154 54.5188 144.241 54.5955 147.267 54.5355C150.301 54.4821 153.277 54.4255 156.197 54.3655C159.117 54.2988 162.044 54.6221 164.977 55.3355C167.904 56.0488 170.981 58.5488 174.207 62.8355C177.427 67.1288 178.144 71.6888 176.357 76.5154C174.571 81.3354 172.174 84.6988 169.167 86.6054C166.167 88.5054 163.477 90.3355 161.097 92.0955C158.717 93.8555 156.381 95.7154 154.087 97.6754C151.801 99.6354 149.294 101.589 146.567 103.535C143.834 105.482 140.827 107.439 137.547 109.405C134.267 111.365 133.794 113.752 136.127 116.565C138.461 119.385 140.277 122.942 141.577 127.235C142.877 131.535 143.977 135.202 144.877 138.235C145.784 141.275 146.827 144.549 148.007 148.055C149.187 151.569 149.901 153.542 150.147 153.975C150.401 154.409 150.587 155.235 150.707 156.455C150.834 157.675 150.811 158.895 150.637 160.115C150.464 161.329 150.151 162.505 149.697 163.645C149.237 164.785 148.647 165.855 147.927 166.855C147.214 167.849 146.387 168.745 145.447 169.545C144.514 170.339 143.497 171.012 142.397 171.565C141.297 172.112 140.147 172.522 138.947 172.795C137.754 173.062 136.541 173.185 135.307 173.165C134.081 173.139 132.874 172.965 131.687 172.645C130.501 172.332 129.367 171.879 128.287 171.285C127.214 170.692 126.227 169.979 125.327 169.145C124.421 168.312 123.627 167.382 122.947 166.355C122.274 165.335 121.731 164.245 121.317 163.085C120.904 161.932 122.304 163.155 125.517 166.755C128.731 170.362 129.137 171.365 126.737 169.765C124.331 168.165 121.727 166.429 118.927 164.555C116.127 162.675 113.454 160.912 110.907 159.265C108.361 157.612 105.554 155.622 102.487 153.295C99.4206 150.969 95.9806 148.289 92.1673 145.255C88.3606 142.222 88.8406 140.739 93.6073 140.805C98.3806 140.872 99.7073 142.639 97.5873 146.105C95.4673 149.572 93.1639 152.362 90.6773 154.475C88.1973 156.589 85.5073 158.585 82.6073 160.465C79.7073 162.345 76.8273 164.132 73.9673 165.825C71.1073 167.519 68.1639 169.442 65.1373 171.595C62.1106 173.749 58.1306 175.352 53.1973 176.405C48.2573 177.452 44.1706 177.215 40.9373 175.695C37.7039 174.175 35.3906 171.919 33.9973 168.925C32.6039 165.925 32.0073 162.859 32.2073 159.725C32.4073 156.592 33.5873 152.115 35.7473 146.295C37.9139 140.482 39.7273 135.759 41.1873 132.125C42.6473 128.499 44.0473 125.112 45.3873 121.965C46.7339 118.825 48.2073 115.462 49.8073 111.875C51.4006 108.295 52.5906 108.822 53.3773 113.455C54.1639 118.089 53.2239 119.752 50.5573 118.445C47.8906 117.132 45.0839 115.509 42.1373 113.575C39.1839 111.642 36.3473 110.005 33.6273 108.665C30.9006 107.325 27.9906 105.639 24.8973 103.605C21.7973 101.579 18.9073 99.7721 16.2273 98.1854C13.5473 96.5988 12.0373 95.6088 11.6973 95.2154C11.3573 94.8288 10.6373 94.3554 9.53728 93.7954C8.43728 93.2354 7.41728 92.5521 6.47728 91.7454C5.54395 90.9454 4.71728 90.0421 3.99728 89.0354C3.28394 88.0288 2.70061 86.9521 2.24728 85.8055C1.79394 84.6521 1.48394 83.4654 1.31728 82.2454C1.15061 81.0188 1.13061 79.7921 1.25728 78.5655C1.39061 77.3388 1.66728 76.1455 2.08728 74.9855C2.50728 73.8188 3.06061 72.7255 3.74728 71.7055C4.43394 70.6788 5.23394 69.7488 6.14728 68.9155C7.06061 68.0821 8.06061 67.3688 9.14728 66.7755C10.2339 66.1888 11.3739 65.7388 12.5673 65.4255C13.7606 65.1121 14.9739 64.9455 16.2073 64.9255C17.4473 64.9121 18.6673 65.0455 19.8673 65.3255C21.0739 65.5988 20.1373 65.6688 17.0573 65.5355C13.9839 65.3955 14.1073 65.1655 17.4273 64.8455C20.7539 64.5255 24.0639 64.3888 27.3573 64.4355C30.6573 64.4755 34.3039 64.5388 38.2973 64.6255C42.2906 64.7055 46.2606 64.7821 50.2073 64.8555C54.1539 64.9288 57.7139 64.9788 60.8873 65.0055C64.0539 65.0255 66.1206 62.7688 67.0873 58.2355C68.0473 53.7088 68.9539 49.9154 69.8073 46.8554C70.6539 43.7888 71.3973 40.8221 72.0373 37.9555C72.6773 35.0821 73.0406 33.3588 73.1273 32.7854C73.2206 32.2121 73.4806 31.3688 73.9073 30.2555C74.3273 29.1355 74.8773 28.0855 75.5573 27.1055C76.2373 26.1188 77.0239 25.2321 77.9173 24.4454C78.8106 23.6521 79.7873 22.9788 80.8473 22.4255C81.9006 21.8655 83.0073 21.4455 84.1673 21.1655C85.3273 20.8788 86.5039 20.7355 87.6973 20.7355C88.8973 20.7355 90.0706 20.8788 91.2173 21.1655C92.3773 21.4521 93.4873 21.8721 94.5473 22.4255C95.6073 22.9788 96.5839 23.6521 97.4773 24.4454C98.3706 25.2388 99.1573 26.1255 99.8373 27.1055C100.511 28.0921 101.061 29.1421 101.487 30.2555C101.907 31.3755 102.191 32.5288 102.337 33.7155C102.477 34.9021 102.477 36.0854 102.337 37.2654C102.191 38.4521 101.701 41.4688 100.867 46.3155C100.027 51.1621 98.9506 56.3921 97.6373 62.0055C96.3239 67.6188 95.4206 71.8554 94.9273 74.7154C94.4273 77.5754 93.8506 80.6221 93.1973 83.8554C92.5439 87.0954 91.8139 90.5688 91.0073 94.2755C90.2073 97.9755 89.8506 100.042 89.9373 100.475C90.0306 100.909 89.9306 101.642 89.6373 102.675C89.344 103.715 88.9306 104.702 88.3973 105.635C87.8573 106.569 87.2173 107.425 86.4773 108.205C85.7306 108.985 84.9039 109.665 83.9973 110.245C83.0839 110.819 82.1173 111.279 81.0973 111.625C80.0773 111.972 79.0306 112.189 77.9573 112.275C76.8839 112.362 75.8139 112.322 74.7473 112.155C73.6873 111.989 72.6606 111.695 71.6673 111.275C70.6739 110.855 69.7473 110.322 68.8873 109.675C68.0206 109.029 67.2439 108.289 66.5573 107.455C65.8773 106.622 65.3039 105.722 64.8373 104.755C64.3773 103.782 64.0373 102.769 63.8173 101.715C63.5973 100.655 63.5073 99.5888 63.5473 98.5154C63.5873 97.4354 64.5706 95.3154 66.4973 92.1554C68.4173 88.9954 70.0873 86.1055 71.5073 83.4855C72.9339 80.8721 74.8606 77.4288 77.2873 73.1554C79.7073 68.8821 84.6939 64.6255 92.2473 60.3855C99.8073 56.1388 104.997 56.6388 107.817 61.8855C110.631 67.1321 111.857 71.4588 111.497 74.8654C111.131 78.2721 110.647 81.6388 110.047 84.9654C109.447 88.2921 108.821 91.5621 108.167 94.7755C107.521 97.9821 106.937 101.715 106.417 105.975C105.891 110.242 105.614 112.915 105.587 113.995C105.554 115.075 105.431 116.125 105.217 117.145C105.011 118.165 104.684 119.149 104.237 120.095C103.791 121.035 103.237 121.909 102.577 122.715C101.917 123.522 101.171 124.235 100.337 124.855C99.5039 125.482 98.6073 125.999 97.6473 126.405C96.6873 126.812 95.6939 127.099 94.6673 127.265C93.6339 127.432 92.6006 127.472 91.5673 127.385C90.5273 127.305 89.5173 127.099 88.5373 126.765C87.5439 126.432 86.6073 125.989 85.7273 125.435C84.8473 124.875 84.0473 124.219 83.3273 123.465C82.6073 122.712 81.9873 121.885 81.4673 120.985C80.9473 120.085 80.5439 119.132 80.2573 118.125C79.9706 117.125 79.8039 116.105 79.7573 115.065C79.7173 114.025 80.3006 112.165 81.5073 109.485C82.7139 106.805 84.1706 103.195 85.8773 98.6554C87.5906 94.1088 89.4606 89.6188 91.4873 85.1854C93.5206 80.7454 95.1539 77.6788 96.3873 75.9855C97.6139 74.2921 98.5873 73.0521 99.3073 72.2654C100.027 71.4788 100.831 70.7888 101.717 70.1954C102.604 69.6021 103.551 69.1221 104.557 68.7555C105.557 68.3955 106.587 68.1588 107.647 68.0455C108.707 67.9321 109.767 67.9488 110.827 68.0955C111.887 68.2355 112.911 68.5021 113.897 68.8955C114.891 69.2888 115.824 69.7955 116.697 70.4155C117.564 71.0355 118.344 71.7488 119.037 72.5555C119.737 73.3688 120.327 74.2521 120.807 75.2055C121.287 76.1521 121.647 77.1454 121.887 78.1854C122.127 79.2254 122.241 80.2788 122.227 81.3455C122.207 82.4188 122.064 83.4688 121.797 84.4954C121.524 85.5288 121.134 86.5155 120.627 87.4555C120.114 88.3888 120.051 90.3421 120.437 93.3154C120.824 96.2821 120.681 99.8388 120.007 103.985C119.334 108.125 118.714 111.069 118.147 112.815C117.581 114.562 117.061 115.922 116.587 116.895C116.114 117.869 115.531 118.772 114.837 119.605C114.144 120.432 113.361 121.169 112.487 121.815C111.614 122.455 110.677 122.982 109.677 123.395C108.677 123.809 107.641 124.095 106.567 124.255C105.501 124.422 104.427 124.455 103.347 124.355C102.267 124.255 101.217 124.029 100.197 123.675C99.1706 123.322 98.2039 122.852 97.2973 122.265C96.3839 121.679 95.5573 120.989 94.8173 120.195C94.0773 119.409 93.4406 118.545 92.9073 117.605C92.3739 116.659 91.9639 115.665 91.6773 114.625C91.3839 113.579 91.2206 112.515 91.1873 111.435C91.1539 110.349 91.2539 109.279 91.4873 108.225C91.7139 107.165 92.2439 108.715 93.0773 112.875C93.9173 117.029 93.0606 120.272 90.5073 122.605C87.9606 124.939 85.1673 126.722 82.1273 127.955C79.0873 129.189 77.3106 129.982 76.7973 130.335C76.2906 130.682 75.4939 131.035 74.4073 131.395C73.3273 131.762 72.2173 131.989 71.0773 132.075C69.9439 132.169 68.8139 132.122 67.6873 131.935C66.5606 131.749 65.4739 131.432 64.4273 130.985C63.3739 130.539 62.3906 129.972 61.4773 129.285C60.5706 128.599 59.7573 127.812 59.0373 126.925C58.3106 126.045 57.7039 125.089 57.2173 124.055C56.7306 123.022 56.3739 121.949 56.1473 120.835C55.9206 119.715 55.8306 118.585 55.8773 117.445C55.9239 116.305 56.1073 115.189 56.4273 114.095C56.7473 112.995 57.1906 111.952 57.7573 110.965C58.3306 109.979 59.0139 109.075 59.8073 108.255C60.5939 107.429 61.4706 106.712 62.4373 106.105C63.4039 105.499 65.1539 103.765 67.6873 100.905C70.2206 98.0521 73.4706 94.8854 77.4373 91.4054C81.4039 87.9188 84.7506 85.3121 87.4773 83.5854C90.1973 81.8521 93.6073 79.9655 97.7073 77.9255C101.807 75.8855 105.271 74.2021 108.097 72.8755C110.931 71.5555 114.881 70.3221 119.947 69.1755C125.014 68.0221 128.304 67.5021 129.817 67.6155C131.337 67.7221 132.797 68.0688 134.197 68.6555C135.604 69.2488 136.877 70.0488 138.017 71.0555C139.157 72.0621 140.107 73.2221 140.867 74.5355C141.627 75.8555 142.157 77.2621 142.457 78.7554C142.757 80.2421 142.811 81.7421 142.617 83.2554C142.431 84.7621 142.004 86.1988 141.337 87.5654C140.671 88.9388 139.807 90.1688 138.747 91.2554C137.681 92.3354 136.467 93.2221 135.107 93.9155C133.747 94.6021 132.317 95.0555 130.817 95.2755C129.311 95.4888 127.807 95.4588 126.307 95.1854C124.814 94.9121 123.401 94.4088 122.067 93.6754C120.734 92.9354 119.557 92.0054 118.537 90.8854C117.511 89.7588 116.691 88.4988 116.077 87.1054C115.464 85.7121 115.087 84.2588 114.947 82.7454C114.814 81.2321 114.924 79.7354 115.277 78.2554C115.631 76.7754 116.211 75.3921 117.017 74.1055C117.824 72.8121 118.817 71.6854 119.997 70.7254C121.177 69.7588 122.477 69.0088 123.897 68.4755C125.324 67.9355 126.797 67.6388 128.317 67.5855C129.837 67.5321 131.327 67.7221 132.787 68.1555C134.241 68.5888 135.591 69.2421 136.837 70.1154C138.077 70.9954 139.147 72.0488 140.047 73.2755C140.947 74.5021 141.627 75.8421 142.087 77.2954C142.547 78.7421 142.761 80.2288 142.727 81.7554C142.701 83.2754 142.431 84.7521 141.917 86.1854C141.404 87.6188 140.677 88.9321 139.737 90.1255C138.797 91.3188 137.687 92.3288 136.407 93.1554C135.134 93.9888 133.761 94.5954 132.287 94.9754C130.814 95.3554 130.077 95.5454 130.077 95.5454C130.084 95.5454 129.361 95.6388 127.907 95.8254C126.454 96.0121 123.824 96.7555 120.017 98.0555C116.217 99.3621 112.921 100.699 110.127 102.065C107.327 103.425 104.277 105.412 100.977 108.025C97.6773 110.639 95.0206 112.949 93.0073 114.955C90.9939 116.955 88.7139 119.129 86.1673 121.475C83.6073 123.822 81.2773 125.972 79.1773 127.925C77.0839 129.879 75.4939 131.035 74.4073 131.395C73.3273 131.755 72.2173 131.982 71.0773 132.075C69.9439 132.169 68.8139 132.122 67.6873 131.935C66.5606 131.755 65.4739 131.439 64.4273 130.985C63.3739 130.539 62.3939 129.972 61.4873 129.285C60.5739 128.599 59.7573 127.815 59.0373 126.935C58.3173 126.049 57.7106 125.089 57.2173 124.055C56.7306 123.029 56.3739 121.955 56.1473 120.835C55.9206 119.715 55.8306 118.585 55.8773 117.445C55.9239 116.305 56.1073 115.189 56.4273 114.095C56.7406 112.995 57.1839 111.952 57.7573 110.965C58.3306 109.979 59.0139 109.075 59.8073 108.255C60.5939 107.429 61.4706 106.712 62.4373 106.105C63.4039 105.499 64.5839 104.839 65.9773 104.125C67.3706 103.405 69.3939 102.542 72.0473 101.535C74.7006 100.529 77.9506 99.5821 81.7973 98.6954C85.6439 97.8021 89.2906 97.1454 92.7373 96.7254C96.1839 96.2988 99.5106 96.3221 102.717 96.7954C105.917 97.2621 108.671 98.3221 110.977 99.9754C113.291 101.622 114.921 104.609 115.867 108.935C116.821 113.269 117.061 115.922 116.587 116.895C116.114 117.869 115.531 118.769 114.837 119.595C114.144 120.429 113.361 121.165 112.487 121.805C111.614 122.452 110.677 122.982 109.677 123.395C108.677 123.809 107.641 124.095 106.567 124.255C105.501 124.422 104.427 124.455 103.347 124.355C102.267 124.255 101.217 124.029 100.197 123.675C99.1706 123.322 98.2039 122.852 97.2973 122.265C96.3839 121.679 95.5573 120.989 94.8173 120.195C94.0773 119.409 93.4406 118.545 92.9073 117.605C92.3739 116.659 91.9639 115.665 91.6773 114.625C91.3839 113.579 91.2206 112.515 91.1873 111.435C91.1539 110.355 91.2539 109.285 91.4873 108.225C91.7139 107.165 92.1406 105.645 92.7673 103.665C93.3939 101.685 94.1406 98.1788 95.0073 93.1454C95.8739 88.1054 96.6273 83.5621 97.2673 79.5154C97.9073 75.4688 98.5873 73.0521 99.3073 72.2654C100.027 71.4788 100.831 70.7888 101.717 70.1954C102.604 69.6021 103.547 69.1221 104.547 68.7555C105.554 68.3955 106.587 68.1588 107.647 68.0455C108.707 67.9321 109.767 67.9488 110.827 68.0955C111.887 68.2355 112.911 68.5021 113.897 68.8955C114.891 69.2888 115.824 69.7955 116.697 70.4155C117.564 71.0355 118.344 71.7488 119.037 72.5555C119.737 73.3688 120.327 74.2521 120.807 75.2055C121.287 76.1521 121.647 77.1454 121.887 78.1854C122.127 79.2254 122.241 80.2788 122.227 81.3455C122.207 82.4121 122.064 83.4621 121.797 84.4954C121.524 85.5288 121.134 86.5155 120.627 87.4555C120.114 88.3888 119.114 89.8088 117.627 91.7154C116.134 93.6154 114.617 96.7288 113.077 101.055C111.531 105.382 109.887 108.889 108.147 111.575C106.407 114.269 105.431 116.125 105.217 117.145C105.011 118.165 104.684 119.145 104.237 120.085C103.791 121.032 103.237 121.909 102.577 122.715C101.917 123.522 101.171 124.235 100.337 124.855C99.5039 125.482 98.6073 125.999 97.6473 126.405C96.6873 126.812 95.6939 127.099 94.6673 127.265C93.6406 127.432 92.6073 127.472 91.5673 127.385C90.5273 127.305 89.5173 127.099 88.5373 126.765C87.5506 126.432 86.6173 125.989 85.7373 125.435C84.8573 124.875 84.0539 124.219 83.3273 123.465C82.6073 122.712 81.9873 121.885 81.4673 120.985C80.9473 120.085 80.5439 119.132 80.2573 118.125C79.9706 117.125 79.8039 116.105 79.7573 115.065C79.7173 114.025 79.7573 112.969 79.8773 111.895C79.9906 110.822 80.3706 107.755 81.0173 102.695C81.6573 97.6354 82.2039 93.6054 82.6573 90.6054C83.1106 87.6054 84.6839 84.4955 87.3773 81.2755C90.0639 78.0555 93.6039 76.8121 97.9973 77.5454C102.384 78.2788 103.347 80.9554 100.887 85.5754C98.4206 90.1954 96.0006 93.9421 93.6273 96.8154C91.2606 99.6888 89.9339 101.642 89.6473 102.675C89.3473 103.715 88.9306 104.702 88.3973 105.635C87.8573 106.569 87.2173 107.425 86.4773 108.205C85.7306 108.985 84.9039 109.662 83.9973 110.235C83.0839 110.815 82.1173 111.279 81.0973 111.625C80.0773 111.972 79.0306 112.189 77.9573 112.275C76.8839 112.362 75.8139 112.322 74.7473 112.155C73.6873 111.989 72.6606 111.695 71.6673 111.275C70.6739 110.855 69.7473 110.322 68.8873 109.675C68.0206 109.029 67.2473 108.289 66.5673 107.455C65.8806 106.629 65.3039 105.729 64.8373 104.755C64.3773 103.782 64.0373 102.769 63.8173 101.715C63.5973 100.655 63.5073 99.5888 63.5473 98.5154C63.5873 97.4354 63.5839 96.8121 63.5373 96.6454C63.4839 96.4788 63.8706 94.3655 64.6973 90.3055C65.5239 86.2521 66.1373 82.7555 66.5373 79.8155C66.9373 76.8821 67.3073 73.6788 67.6473 70.2055C67.9939 66.7388 68.4006 63.5388 68.8673 60.6055C69.3273 57.6655 69.9606 53.8421 70.7673 49.1355C71.5739 44.4221 72.1906 40.3755 72.6173 36.9955C73.0506 33.6155 73.4806 31.3688 73.9073 30.2555C74.3273 29.1355 74.8773 28.0855 75.5573 27.1055C76.2373 26.1188 77.0239 25.2321 77.9173 24.4454C78.8106 23.6521 79.7873 22.9788 80.8473 22.4255C81.9006 21.8655 83.0073 21.4455 84.1673 21.1655C85.3273 20.8788 86.5039 20.7355 87.6973 20.7355C88.8906 20.7355 90.0639 20.8788 91.2173 21.1655C92.3773 21.4521 93.4873 21.8721 94.5473 22.4255C95.6073 22.9788 96.5839 23.6521 97.4773 24.4454C98.3706 25.2388 99.1539 26.1255 99.8273 27.1055C100.507 28.0921 101.061 29.1421 101.487 30.2555C101.907 31.3755 102.191 32.5288 102.337 33.7155C102.477 34.8955 102.477 36.0788 102.337 37.2654C102.191 38.4521 101.997 39.5388 101.757 40.5255C101.511 41.5121 100.941 43.9321 100.047 47.7854C99.1539 51.6454 98.1306 55.3388 96.9773 58.8655C95.8173 62.3988 94.7606 66.0088 93.8073 69.6955C92.8473 73.3821 91.8239 76.6421 90.7373 79.4754C89.6506 82.3088 87.7839 85.0821 85.1373 87.7954C82.4906 90.5021 78.5806 92.2654 73.4073 93.0854C68.2339 93.9054 64.0606 94.3288 60.8873 94.3554C57.7206 94.3754 54.1639 94.4221 50.2173 94.4954C46.2706 94.5688 42.3073 94.6521 38.3273 94.7454C34.3539 94.8321 30.6573 94.8055 27.2373 94.6655C23.8239 94.5321 20.2973 94.4921 16.6573 94.5454C13.0106 94.6054 10.6373 94.3554 9.53728 93.7954C8.43728 93.2354 7.41728 92.5554 6.47728 91.7554C5.54395 90.9488 4.72061 90.0421 4.00728 89.0354C3.28728 88.0288 2.70061 86.9521 2.24728 85.8055C1.79394 84.6521 1.48394 83.4654 1.31728 82.2454C1.15061 81.0188 1.13061 79.7921 1.25728 78.5655C1.39061 77.3388 1.66728 76.1455 2.08728 74.9855C2.50728 73.8255 3.06061 72.7321 3.74728 71.7055C4.43394 70.6788 5.23394 69.7488 6.14728 68.9155C7.06061 68.0821 8.06061 67.3688 9.14728 66.7755C10.2339 66.1888 11.3739 65.7388 12.5673 65.4255C13.7606 65.1121 14.9739 64.9455 16.2073 64.9255C17.4406 64.9121 18.6606 65.0421 19.8673 65.3155C21.0673 65.5955 21.9939 66.0488 22.6473 66.6755C23.3006 67.3021 25.1639 68.4055 28.2373 69.9855C31.3106 71.5655 34.3206 73.4021 37.2673 75.4955C40.2206 77.5821 43.0506 79.3788 45.7573 80.8854C48.4639 82.3854 51.3406 84.0588 54.3873 85.9054C57.4339 87.7588 60.4506 89.5888 63.4373 91.3954C66.4239 93.2088 69.3473 95.0454 72.2073 96.9054C75.0739 98.7721 77.2106 102.165 78.6173 107.085C80.0173 112.012 80.2673 115.909 79.3673 118.775C78.4606 121.649 77.2573 124.575 75.7573 127.555C74.2573 130.535 72.9206 133.395 71.7473 136.135C70.5739 138.882 69.4106 141.782 68.2573 144.835C67.0973 147.895 65.1939 150.445 62.5473 152.485C59.9006 154.532 57.1073 154.912 54.1673 153.625C51.2273 152.345 48.0806 151.785 44.7273 151.945C41.3739 152.112 41.2506 151.315 44.3573 149.555C47.4639 147.795 50.4606 145.765 53.3473 143.465C56.2273 141.165 58.9339 139.305 61.4673 137.885C63.9939 136.459 66.4606 134.829 68.8673 132.995C71.2739 131.162 73.9939 128.829 77.0273 125.995C80.0673 123.162 83.1606 120.835 86.3073 119.015C89.4539 117.202 93.6273 116.749 98.8273 117.655C104.027 118.562 108.104 119.999 111.057 121.965C114.004 123.932 116.644 125.892 118.977 127.845C121.311 129.799 124.241 131.905 127.767 134.165C131.301 136.425 134.287 138.572 136.727 140.605C139.167 142.639 142.077 145.482 145.457 149.135C148.837 152.789 150.587 155.229 150.707 156.455C150.834 157.675 150.811 158.895 150.637 160.115C150.464 161.329 150.151 162.505 149.697 163.645C149.237 164.785 148.647 165.855 147.927 166.855C147.214 167.849 146.387 168.745 145.447 169.545C144.514 170.339 143.497 171.012 142.397 171.565C141.297 172.112 140.147 172.522 138.947 172.795C137.754 173.062 136.541 173.185 135.307 173.165C134.081 173.139 132.874 172.965 131.687 172.645C130.501 172.332 129.371 171.879 128.297 171.285C127.217 170.692 126.227 169.979 125.327 169.145C124.421 168.312 123.627 167.385 122.947 166.365C122.274 165.339 121.731 164.245 121.317 163.085C120.904 161.932 120.654 161.322 120.567 161.255C120.481 161.189 119.974 159.729 119.047 156.875C118.114 154.022 117.164 150.925 116.197 147.585C115.224 144.252 114.144 140.682 112.957 136.875C111.764 133.062 110.677 129.829 109.697 127.175C108.717 124.515 107.644 121.759 106.477 118.905C105.311 116.059 104.427 112.785 103.827 109.085C103.221 105.379 103.581 101.779 104.907 98.2854C106.227 94.7854 108.311 92.0221 111.157 89.9954C113.997 87.9688 116.687 86.2954 119.227 84.9754C121.767 83.6488 124.277 82.2921 126.757 80.9054C129.237 79.5121 131.664 77.8188 134.037 75.8254C136.411 73.8388 139.141 71.6688 142.227 69.3155C145.307 66.9688 148.474 64.7988 151.727 62.8055C154.974 60.8121 156.204 61.6955 155.417 65.4555C154.631 69.2155 155.077 73.1188 156.757 77.1655C158.437 81.2121 157.681 83.2021 154.487 83.1354C151.287 83.0688 147.974 82.9854 144.547 82.8854C141.121 82.7921 137.937 82.5655 134.997 82.2055C132.064 81.8521 128.624 81.6388 124.677 81.5654C120.731 81.4988 116.791 81.3854 112.857 81.2254C108.931 81.0654 105.187 79.8721 101.627 77.6454C98.0606 75.4188 95.5673 72.8388 94.1473 69.9054C92.7273 66.9654 91.5839 63.9421 90.7173 60.8355C89.8506 57.7288 89.0506 54.8021 88.3173 52.0555C87.5839 49.3155 86.8239 46.3621 86.0373 43.1954C85.2439 40.0288 84.5473 36.9454 83.9473 33.9454C83.3406 30.9454 82.5139 27.7021 81.4673 24.2155C80.4273 20.7288 79.8373 18.5788 79.6973 17.7655C79.5573 16.9588 79.5173 16.1455 79.5773 15.3255C79.6373 14.5055 79.7939 13.7021 80.0473 12.9155C80.3006 12.1355 80.6439 11.3955 81.0773 10.6955C81.5106 9.98878 82.0206 9.34878 82.6073 8.77545C83.2006 8.19545 83.8506 7.69878 84.5573 7.28545C85.2706 6.86545 86.0206 6.53545 86.8073 6.29545C87.5939 6.06212 88.4006 5.92545 89.2273 5.88545C90.0406 5.83878 90.8539 5.89545 91.6673 6.05545C92.4739 6.21545 93.2506 6.46878 93.9973 6.81545C94.7439 7.15545 95.4406 7.58545 96.0873 8.10545C96.7273 8.61878 97.3006 9.20212 97.8073 9.85545C98.3073 10.5088 98.7206 11.2155 99.0473 11.9755C99.3806 12.7288 99.5473 13.1055 99.5473 13.1055Z" fill="#9C36B5"/>
</g>
</svg>
