<svg width="188" height="186" viewBox="0 0 188 186" fill="none" xmlns="http://www.w3.org/2000/svg">
<path d="M99.032 15.112C99.032 15.112 98.5487 16.262 97.582 18.562C96.6154 20.862 95.5154 24.182 94.282 28.522C93.0554 32.862 92.0587 36.522 91.292 39.502C90.5254 42.482 89.7454 45.3787 88.952 48.192C88.1454 51.0053 87.3087 53.7987 86.442 56.572C85.5687 59.352 84.872 62.142 84.352 64.942C83.8387 67.7353 81.2387 72.0653 76.552 77.932C71.8654 83.792 67.322 86.7353 62.922 86.762C58.5154 86.7887 54.8787 86.692 52.012 86.472C49.1387 86.252 45.9854 86.1553 42.552 86.182C39.1187 86.2087 35.8054 86.2553 32.612 86.322C29.412 86.382 25.9754 86.4487 22.302 86.522C18.6287 86.5953 18.0287 84.9753 20.502 81.662C22.982 78.3553 24.2354 74.812 24.262 71.032C24.2887 67.252 25.6154 66.4387 28.242 68.592C30.8687 70.7453 33.462 73.1553 36.022 75.822C38.5754 78.482 41.0554 81.132 43.462 83.772C45.8687 86.412 48.432 88.722 51.152 90.702C53.8787 92.682 56.402 94.622 58.722 96.522C61.042 98.4287 62.8754 101.005 64.222 104.252C65.5754 107.505 65.9087 110.905 65.222 114.452C64.542 117.992 63.9087 121.172 63.322 123.992C62.742 126.812 62.152 129.889 61.552 133.222C60.952 136.562 60.4887 139.762 60.162 142.822C59.8287 145.875 59.652 148.835 59.632 151.702C59.612 154.569 59.322 157.252 58.762 159.752C58.202 162.252 57.6354 164.029 57.062 165.082C56.4887 166.142 55.7987 167.115 54.992 168.002C54.1787 168.889 53.2754 169.665 52.282 170.332C51.282 170.999 50.2187 171.539 49.092 171.952C47.9587 172.359 46.7954 172.625 45.602 172.752C44.4087 172.879 43.2187 172.862 42.032 172.702C40.8387 172.542 39.6854 172.242 38.572 171.802C37.452 171.355 36.4054 170.785 35.432 170.092C34.452 169.399 33.5687 168.595 32.782 167.682C32.002 166.775 31.3387 165.785 30.792 164.712C30.252 163.639 29.8454 162.519 29.572 161.352C29.3054 160.179 29.1787 158.992 29.192 157.792C29.212 156.592 29.3754 155.412 29.682 154.252C29.982 153.092 32.4454 150.932 37.072 147.772C41.7054 144.612 45.2654 141.562 47.752 138.622C50.2454 135.689 52.732 133.085 55.212 130.812C57.692 128.545 60.5154 125.945 63.682 123.012C66.8487 120.085 69.6387 117.582 72.052 115.502C74.4654 113.422 77.882 111.895 82.302 110.922C86.722 109.949 90.9154 110.985 94.882 114.032C98.8487 117.079 101.582 120.259 103.082 123.572C104.582 126.885 106.325 130.065 108.312 133.112C110.305 136.159 112.315 138.699 114.342 140.732C116.369 142.772 118.782 145.035 121.582 147.522C124.382 150.009 127.182 152.332 129.982 154.492C132.775 156.652 132.039 158.789 127.772 160.902C123.505 163.022 120.182 163.232 117.802 161.532C115.422 159.825 113.802 157.419 112.942 154.312C112.082 151.205 111.362 148.199 110.782 145.292C110.209 142.392 109.462 139.569 108.542 136.822C107.629 134.082 106.849 131.132 106.202 127.972C105.555 124.812 105.435 120.595 105.842 115.322C106.255 110.042 107.422 106.269 109.342 104.002C111.269 101.735 113.635 99.592 116.442 97.572C119.255 95.5453 122.165 93.6653 125.172 91.932C128.185 90.2053 131.655 88.412 135.582 86.552C139.509 84.692 143.049 83.0287 146.202 81.562C149.349 80.0887 152.505 78.622 155.672 77.162C158.832 75.7087 161.105 74.562 162.492 73.722C163.872 72.8887 165.099 72.1953 166.172 71.642C167.252 71.082 168.382 70.662 169.562 70.382C170.742 70.102 171.935 69.9653 173.142 69.972C174.355 69.9853 175.549 70.1387 176.722 70.432C177.895 70.732 179.019 71.1687 180.092 71.742C181.159 72.3087 182.142 72.9987 183.042 73.812C183.942 74.6187 184.732 75.5253 185.412 76.532C186.099 77.532 186.652 78.602 187.072 79.742C187.492 80.8753 187.772 82.0453 187.912 83.252C188.045 84.452 188.035 85.652 187.882 86.852C187.729 88.0587 187.432 89.2253 186.992 90.352C186.552 91.4853 185.985 92.5453 185.292 93.532C184.599 94.5253 183.795 95.422 182.882 96.222C181.969 97.0153 178.739 97.402 173.192 97.382C167.652 97.3553 162.785 97.3553 158.592 97.382C154.405 97.402 150.595 97.3753 147.162 97.302C143.729 97.2287 140.139 97.1887 136.392 97.182C132.645 97.1753 129.252 97.1887 126.212 97.222C123.179 97.2553 120.059 97.0987 116.852 96.752C113.652 96.412 110.492 95.8887 107.372 95.182C104.245 94.482 101.385 92.7953 98.792 90.122C96.192 87.4487 94.3854 84.4253 93.372 81.052C92.3587 77.672 91.4087 74.252 90.522 70.792C89.642 67.3253 88.8787 63.9853 88.232 60.772C87.5854 57.5653 86.6154 54.3487 85.322 51.122C84.0287 47.902 83.002 44.902 82.242 42.122C81.482 39.342 80.9187 37.382 80.552 36.242C80.192 35.102 80.0154 33.9187 80.022 32.692C80.022 31.4587 80.172 30.2487 80.472 29.062C80.772 27.8687 81.2087 26.7287 81.782 25.642C82.3554 24.5553 83.052 23.5553 83.872 22.642C84.6854 21.722 85.602 20.9153 86.622 20.222C87.6354 19.5287 88.712 18.9653 89.852 18.532C91.0054 18.1053 92.192 17.8187 93.412 17.672C94.632 17.5253 95.8487 17.5287 97.062 17.682C98.282 17.8353 99.4654 18.132 100.612 18.572C101.759 19.012 102.839 19.582 103.852 20.282C104.859 20.9887 105.769 21.802 106.582 22.722C107.389 23.642 108.075 24.6487 108.642 25.742C109.209 26.8287 109.639 27.9687 109.932 29.162C110.219 30.3553 109.889 32.7553 108.942 36.362C107.995 39.9687 106.719 43.3387 105.112 46.472C103.499 49.5987 101.789 52.8153 99.982 56.122C98.1754 59.4287 96.482 62.552 94.902 65.492C93.322 68.4253 91.452 71.8187 89.292 75.672C87.132 79.5253 85.0954 83.1187 83.182 86.452C81.2687 89.7853 79.6254 92.6087 78.252 94.922C76.872 97.2353 75.822 98.852 75.102 99.772C74.3887 100.692 73.572 101.515 72.652 102.242C71.732 102.962 70.7387 103.562 69.672 104.042C68.6054 104.522 67.4987 104.869 66.352 105.082C65.1987 105.295 64.0387 105.365 62.872 105.292C61.7054 105.225 60.5654 105.019 59.452 104.672C58.3387 104.325 57.282 103.849 56.282 103.242C55.2754 102.642 54.3587 101.929 53.532 101.102C52.7054 100.275 51.9887 99.362 51.382 98.362C50.782 97.362 50.3054 96.3053 49.952 95.192C49.6054 94.0787 49.3954 92.9387 49.322 91.772C49.2487 90.6053 49.3187 89.4453 49.532 88.292C49.7387 87.1453 50.082 86.0387 50.562 84.972C51.042 83.9053 51.2554 85.8287 51.202 90.742C51.1487 95.662 50.4154 96.6053 49.002 93.572C47.5887 90.5387 46.392 89.1087 45.412 89.282C44.4254 89.4553 43.352 89.412 42.192 89.152C41.0387 88.8987 39.9287 88.5087 38.862 87.982C37.802 87.4553 36.8187 86.8087 35.912 86.042C35.0054 85.2753 34.2054 84.4087 33.512 83.442C32.812 82.482 32.2387 81.452 31.792 80.352C31.3454 79.252 31.0387 78.1153 30.872 76.942C30.6987 75.7687 30.672 74.592 30.792 73.412C30.9054 72.232 31.162 71.082 31.562 69.962C31.9554 68.842 32.4787 67.7853 33.132 66.792C33.7787 65.7987 34.5387 64.8987 35.412 64.092C36.2787 63.2853 37.232 62.5953 38.272 62.022C39.312 61.4487 40.4054 61.0053 41.552 60.692C42.6987 60.3853 43.862 60.2187 45.042 60.192C46.2287 60.1653 48.812 61.5587 52.792 64.372C56.772 67.192 60.792 68.952 64.852 69.652C68.912 70.352 73.382 71.152 78.262 72.052C83.1487 72.952 87.042 73.6353 89.942 74.102C92.8487 74.5687 96.2254 76.0587 100.072 78.572C103.919 81.0853 106.169 84.6953 106.822 89.402C107.475 94.1153 107.569 98.1353 107.102 101.462C106.629 104.789 105.662 107.989 104.202 111.062C102.742 114.135 100.469 116.859 97.382 119.232C94.302 121.612 91.4054 123.249 88.692 124.142C85.972 125.042 84.742 125.759 85.002 126.292C85.2554 126.832 84.902 127.439 83.942 128.112C82.9754 128.785 81.942 129.332 80.842 129.752C79.7487 130.179 78.6187 130.465 77.452 130.612C76.2854 130.759 75.1154 130.765 73.942 130.632C72.7754 130.492 71.642 130.219 70.542 129.812C69.4354 129.399 68.3987 128.859 67.432 128.192C66.4587 127.532 65.5787 126.762 64.792 125.882C64.0054 125.009 63.3354 124.052 62.782 123.012C62.2354 121.972 61.8154 120.882 61.522 119.742C61.2354 118.602 61.0887 117.445 61.082 116.272C61.0754 115.092 61.212 113.932 61.492 112.792C61.7654 111.645 62.172 110.549 62.712 109.502C63.252 108.462 63.912 107.499 64.692 106.612C65.4654 105.725 67.642 105.109 71.222 104.762C74.7954 104.415 78.3854 102.772 81.992 99.832C85.592 96.892 88.9187 94.4787 91.972 92.592C95.0254 90.712 98.0987 88.9653 101.192 87.352C104.292 85.7453 109.085 86.8153 115.572 90.562C122.059 94.302 125.359 97.592 125.472 100.432C125.579 103.265 125.252 106.432 124.492 109.932C123.739 113.432 122.569 116.402 120.982 118.842C119.395 121.282 116.025 123.242 110.872 124.722C105.712 126.202 101.835 126.329 99.242 125.102C96.6554 123.882 94.5587 121.912 92.952 119.192C91.3454 116.472 90.1387 113.509 89.332 110.302C88.5387 107.095 87.6187 103.659 86.572 99.992C85.532 96.332 84.482 92.6387 83.422 88.912C82.362 85.1787 81.6287 81.3853 81.222 77.532C80.8154 73.672 80.182 69.7953 79.322 65.902C78.4554 62.0087 77.782 58.482 77.302 55.322C76.8154 52.162 76.402 49.1187 76.062 46.192C75.722 43.272 75.522 40.332 75.462 37.372C75.4087 34.4187 76.1954 30.762 77.822 26.402C79.4487 22.0487 79.802 20.222 78.882 20.922C77.962 21.622 77.7254 21.412 78.172 20.292C78.6187 19.1787 79.1954 18.132 79.902 17.152C80.602 16.1787 81.412 15.2987 82.332 14.512C83.2454 13.732 84.242 13.0753 85.322 12.542C86.3954 12.002 87.5187 11.5987 88.692 11.332C89.8587 11.0653 91.0454 10.9453 92.252 10.972C93.4587 10.9987 94.642 11.1653 95.802 11.472C96.962 11.7853 98.072 12.232 99.132 12.812C100.185 13.392 101.155 14.0887 102.042 14.902C102.922 15.722 103.695 16.632 104.362 17.632C105.029 18.6387 105.562 19.7087 105.962 20.842C106.369 21.9753 106.632 23.142 106.752 24.342C106.872 25.5353 106.849 26.7287 106.682 27.922C106.515 29.1153 105.979 31.832 105.072 36.072C104.159 40.312 103.245 44.822 102.332 49.602C101.419 54.3887 100.759 59.282 100.352 64.282C99.952 69.2887 99.6887 74.1453 99.562 78.852C99.4354 83.5587 99.382 87.442 99.402 90.502C99.422 93.5553 99.0054 96.6453 98.152 99.772C97.2987 102.899 95.792 105.899 93.632 108.772C91.4654 111.645 88.9687 114.089 86.142 116.102C83.3087 118.109 81.5554 120.609 80.882 123.602C80.202 126.595 79.2954 129.435 78.162 132.122C77.022 134.802 76.2154 136.572 75.742 137.432C75.262 138.285 74.6654 139.412 73.952 140.812C73.232 142.212 72.312 143.462 71.192 144.562C70.0654 145.662 68.792 146.552 67.372 147.232C65.952 147.912 64.462 148.349 62.902 148.542C61.342 148.735 59.792 148.675 58.252 148.362C56.712 148.049 55.262 147.495 53.902 146.702C52.542 145.915 51.342 144.929 50.302 143.742C49.2687 142.555 48.4487 141.239 47.842 139.792C47.242 138.339 46.8887 136.825 46.782 135.252C46.6687 133.685 46.812 132.142 47.212 130.622C47.612 129.095 48.242 127.675 49.102 126.362C49.9687 125.049 51.0187 123.905 52.252 122.932C53.492 121.965 54.8554 121.219 56.342 120.692C57.822 120.172 59.3487 119.899 60.922 119.872C62.4954 119.852 64.032 120.082 65.532 120.562C67.0254 121.042 68.4054 121.749 69.672 122.682C70.9387 123.615 72.022 124.725 72.922 126.012C73.8287 127.299 74.502 128.699 74.942 130.212C75.3887 131.719 75.5787 133.259 75.512 134.832C75.452 136.405 75.142 137.925 74.582 139.392C74.022 140.865 73.242 142.209 72.242 143.422C71.242 144.635 70.072 145.655 68.732 146.482C67.3987 147.315 65.9654 147.912 64.432 148.272C62.9054 148.632 61.3587 148.739 59.792 148.592C58.2254 148.445 56.722 148.052 55.282 147.412C53.8487 146.772 52.552 145.919 51.392 144.852C50.232 143.792 49.2754 142.572 48.522 141.192C47.762 139.812 47.2454 138.349 46.972 136.802C46.692 135.249 46.6687 133.695 46.902 132.142C47.1354 130.589 47.252 129.812 47.252 129.812C47.2454 129.812 48.1854 127.942 50.072 124.202C51.952 120.462 53.4187 116.982 54.472 113.762C55.5254 110.549 57.092 107.235 59.172 103.822C61.252 100.415 63.8987 98.0953 67.112 96.862C70.3254 95.6353 71.952 93.472 71.992 90.372C72.0254 87.272 72.032 83.2653 72.012 78.352C71.992 73.432 71.982 69.402 71.982 66.262C71.9754 63.122 72.2387 58.7253 72.772 53.072C73.2987 47.4253 73.852 42.482 74.432 38.242C75.0054 34.002 75.6587 30.232 76.392 26.932C77.132 23.6253 77.7254 21.412 78.172 20.292C78.6187 19.1787 79.1954 18.132 79.902 17.152C80.602 16.1787 81.412 15.302 82.332 14.522C83.2454 13.742 84.242 13.082 85.322 12.542C86.3954 12.002 87.5187 11.5987 88.692 11.332C89.8587 11.0653 91.0454 10.9453 92.252 10.972C93.452 10.9987 94.6354 11.1653 95.802 11.472C96.962 11.7853 98.072 12.232 99.132 12.812C100.185 13.392 101.155 14.0887 102.042 14.902C102.922 15.722 103.695 16.632 104.362 17.632C105.029 18.6387 105.562 19.7087 105.962 20.842C106.369 21.9753 106.632 23.142 106.752 24.342C106.872 25.5353 106.849 26.7287 106.682 27.922C106.515 29.1153 106.199 31.0487 105.732 33.722C105.272 36.402 105.169 39.2753 105.422 42.342C105.669 45.402 105.925 48.5187 106.192 51.692C106.459 54.8653 106.909 57.842 107.542 60.622C108.182 63.402 108.685 66.6887 109.052 70.482C109.419 74.2687 110.092 77.7787 111.072 81.012C112.059 84.252 113.155 87.782 114.362 91.602C115.562 95.4287 116.702 99.5353 117.782 103.922C118.855 108.315 117.599 109.232 114.012 106.672C110.425 104.112 107.049 101.962 103.882 100.222C100.709 98.4753 101.382 100.182 105.902 105.342C110.429 110.502 110.559 114.459 106.292 117.212C102.019 119.959 97.962 122.275 94.122 124.162C90.2887 126.055 86.272 127.345 82.072 128.032C77.872 128.712 77.3754 128.725 80.582 128.072C83.7887 127.419 84.9087 127.429 83.942 128.102C82.9754 128.782 81.9454 129.332 80.852 129.752C79.752 130.172 78.6187 130.459 77.452 130.612C76.2854 130.759 75.1154 130.765 73.942 130.632C72.7754 130.492 71.642 130.219 70.542 129.812C69.4354 129.399 68.3987 128.859 67.432 128.192C66.4587 127.532 65.5787 126.765 64.792 125.892C64.0054 125.012 63.3387 124.052 62.792 123.012C62.2387 121.972 61.8154 120.882 61.522 119.742C61.2354 118.602 61.0887 117.445 61.082 116.272C61.0754 115.092 61.212 113.932 61.492 112.792C61.7654 111.645 62.172 110.549 62.712 109.502C63.252 108.462 63.912 107.499 64.692 106.612C65.4654 105.725 66.3554 104.839 67.362 103.952C68.3687 103.065 70.862 101.085 74.842 98.012C78.822 94.9387 81.752 94.7787 83.632 97.532C85.5187 100.279 84.3154 101.335 80.022 100.702C75.7287 100.069 72.022 99.5287 68.902 99.082C65.782 98.6353 61.2487 97.5887 55.302 95.942C49.3554 94.302 44.2154 91.8287 39.882 88.522C35.5487 85.2087 35.142 84.552 38.662 86.552C42.1754 88.5453 43.3554 89.412 42.202 89.152C41.042 88.8987 39.9287 88.5087 38.862 87.982C37.802 87.4553 36.8187 86.8087 35.912 86.042C35.0054 85.2753 34.2054 84.412 33.512 83.452C32.812 82.4853 32.2387 81.452 31.792 80.352C31.3454 79.2587 31.0387 78.122 30.872 76.942C30.6987 75.7687 30.672 74.592 30.792 73.412C30.9054 72.232 31.162 71.082 31.562 69.962C31.9554 68.842 32.4787 67.7853 33.132 66.792C33.7787 65.8053 34.5387 64.9087 35.412 64.102C36.2787 63.2887 37.232 62.5953 38.272 62.022C39.312 61.4487 40.4054 61.0053 41.552 60.692C42.692 60.3853 43.8554 60.2187 45.042 60.192C46.2287 60.1653 47.552 60.1587 49.012 60.172C50.472 60.192 52.692 60.742 55.672 61.822C58.652 62.9087 61.5487 64.502 64.362 66.602C67.1754 68.6953 69.7254 71.8387 72.012 76.032C74.3054 80.2187 75.5754 84.992 75.822 90.352C76.0687 95.712 75.832 98.852 75.112 99.772C74.392 100.692 73.572 101.515 72.652 102.242C71.732 102.962 70.7387 103.562 69.672 104.042C68.6054 104.522 67.4987 104.869 66.352 105.082C65.2054 105.295 64.0487 105.365 62.882 105.292C61.7154 105.225 60.572 105.019 59.452 104.672C58.3387 104.325 57.282 103.852 56.282 103.252C55.282 102.645 54.3654 101.929 53.532 101.102C52.7054 100.275 51.9887 99.362 51.382 98.362C50.782 97.3687 50.3054 96.312 49.952 95.192C49.6054 94.0787 49.3954 92.9387 49.322 91.772C49.2487 90.6053 49.3187 89.4487 49.532 88.302C49.7387 87.1487 50.082 86.0387 50.562 84.972C51.042 83.9053 51.5587 83.1053 52.112 82.572C52.6654 82.0387 53.7454 80.222 55.352 77.122C56.9587 74.022 58.6954 70.7587 60.562 67.332C62.4287 63.9053 64.182 60.432 65.822 56.912C67.462 53.3987 69.1087 50.0353 70.762 46.822C72.4154 43.6087 73.9487 40.552 75.362 37.652C76.7687 34.7453 78.2887 31.812 79.922 28.852C81.5554 25.892 81.9787 26.0987 81.192 29.472C80.4054 32.8453 80.0154 33.9187 80.022 32.692C80.022 31.4653 80.172 30.2553 80.472 29.062C80.772 27.8687 81.2087 26.7287 81.782 25.642C82.3554 24.5553 83.052 23.5553 83.872 22.642C84.6854 21.722 85.5987 20.9153 86.612 20.222C87.6254 19.5287 88.7054 18.9653 89.852 18.532C90.9987 18.1053 92.182 17.8187 93.402 17.672C94.622 17.5253 95.842 17.5287 97.062 17.682C98.282 17.8353 99.4654 18.132 100.612 18.572C101.759 19.012 102.839 19.582 103.852 20.282C104.859 20.982 105.769 21.7953 106.582 22.722C107.389 23.642 108.075 24.6487 108.642 25.742C109.209 26.8287 109.639 27.9687 109.932 29.162C110.219 30.3553 110.229 30.442 109.962 29.422C109.689 28.3953 110.105 29.5153 111.212 32.782C112.312 36.0553 113.425 39.372 114.552 42.732C115.672 46.0987 116.505 49.3087 117.052 52.362C117.599 55.4153 118.192 58.7187 118.832 62.272C119.465 65.8253 121.215 67.6187 124.082 67.652C126.942 67.6787 129.962 67.6987 133.142 67.712C136.322 67.732 139.465 67.7353 142.572 67.722C145.679 67.7153 149.265 67.7187 153.332 67.732C157.399 67.7387 161.335 67.9553 165.142 68.382C168.949 68.802 172.382 69.472 175.442 70.392C178.502 71.3053 177.455 71.8787 172.302 72.112C167.142 72.352 165.099 72.1953 166.172 71.642C167.252 71.082 168.382 70.662 169.562 70.382C170.735 70.102 171.929 69.9653 173.142 69.972C174.355 69.9853 175.549 70.1387 176.722 70.432C177.895 70.732 179.019 71.1687 180.092 71.742C181.159 72.3087 182.142 72.9987 183.042 73.812C183.942 74.6187 184.732 75.5253 185.412 76.532C186.099 77.532 186.652 78.5987 187.072 79.732C187.492 80.872 187.772 82.042 187.912 83.242C188.045 84.4487 188.035 85.652 187.882 86.852C187.729 88.0587 187.432 89.2253 186.992 90.352C186.552 91.4853 185.985 92.5453 185.292 93.532C184.599 94.5253 183.795 95.422 182.882 96.222C181.969 97.0153 181.325 97.562 180.952 97.862C180.585 98.162 178.795 99.1187 175.582 100.732C172.369 102.345 169.032 103.995 165.572 105.682C162.105 107.375 158.675 108.959 155.282 110.432C151.895 111.905 148.699 113.442 145.692 115.042C142.692 116.642 139.865 118.279 137.212 119.952C134.552 121.625 133.099 120.395 132.852 116.262C132.599 112.135 132.982 111.685 134.002 114.912C135.029 118.139 135.819 121.362 136.372 124.582C136.925 127.802 137.822 131.385 139.062 135.332C140.295 139.279 141.492 142.972 142.652 146.412C143.819 149.852 144.905 152.939 145.912 155.672C146.912 158.412 147.695 161.599 148.262 165.232C148.829 168.865 148.549 172.485 147.422 176.092C146.302 179.699 144.339 182.269 141.532 183.802C138.725 185.329 134.709 185.862 129.482 185.402C124.255 184.942 120.332 183.939 117.712 182.392C115.085 180.845 112.209 178.802 109.082 176.262C105.955 173.729 103.029 171.069 100.302 168.282C97.5687 165.489 94.742 162.705 91.822 159.932C88.902 157.159 86.6687 154.555 85.122 152.122C83.5687 149.695 81.922 146.969 80.182 143.942C78.442 140.922 76.8454 137.735 75.392 134.382C73.9454 131.035 74.9154 130.315 78.302 132.222C81.6887 134.135 84.9454 135.312 88.072 135.752C91.1854 136.192 91.6454 137.352 89.452 139.232C87.2654 141.105 85.0287 143.129 82.742 145.302C80.4554 147.475 77.7754 150.035 74.702 152.982C71.6354 155.935 68.7254 158.509 65.972 160.702C63.212 162.895 60.5854 165.049 58.092 167.162C55.6054 169.269 52.9554 170.745 50.142 171.592C47.3354 172.432 47.932 171.295 51.932 168.182C55.9254 165.062 57.6354 164.029 57.062 165.082C56.4887 166.142 55.7987 167.115 54.992 168.002C54.1787 168.889 53.2754 169.665 52.282 170.332C51.282 170.999 50.2187 171.539 49.092 171.952C47.9654 172.359 46.802 172.625 45.602 172.752C44.4087 172.879 43.2187 172.862 42.032 172.702C40.8387 172.542 39.6854 172.242 38.572 171.802C37.452 171.355 36.4054 170.785 35.432 170.092C34.452 169.399 33.5687 168.595 32.782 167.682C32.002 166.775 31.3387 165.785 30.792 164.712C30.252 163.639 29.8454 162.519 29.572 161.352C29.3054 160.179 29.1787 158.992 29.192 157.792C29.212 156.592 29.3754 155.412 29.682 154.252C29.982 153.092 30.102 152.959 30.042 153.852C29.9754 154.739 29.9587 153.679 29.992 150.672C30.032 147.659 30.242 144.625 30.622 141.572C31.002 138.519 31.4654 135.102 32.012 131.322C32.5587 127.535 33.522 124.079 34.902 120.952C36.282 117.825 35.7854 115.342 33.412 113.502C31.0387 111.669 28.682 109.545 26.342 107.132C24.002 104.725 21.312 101.932 18.272 98.752C15.2387 95.5787 12.1987 92.7053 9.15203 90.132C6.10536 87.5653 3.73203 84.982 2.03203 82.382C0.332033 79.782 -0.301302 76.9387 0.132031 73.852C0.565364 70.772 3.08203 67.3953 7.68203 63.722C12.282 60.0487 16.322 58.2487 19.802 58.322C23.282 58.3887 26.4954 58.4553 29.442 58.522C32.3887 58.5887 35.7487 58.6687 39.522 58.762C43.2887 58.8553 47.122 59.092 51.022 59.472C54.922 59.8587 58.942 60.172 63.082 60.412C67.2287 60.6587 67.332 61.5987 63.392 63.232C59.452 64.8653 57.8087 64.2587 58.462 61.412C59.1154 58.572 60.142 55.2553 61.542 51.462C62.942 47.6687 64.4754 43.542 66.142 39.082C67.8154 34.622 69.212 30.8553 70.332 27.782C71.4587 24.7153 72.722 21.4553 74.122 18.002C75.522 14.5553 76.782 11.7187 77.902 9.492C79.0287 7.26533 79.8187 5.78533 80.272 5.052C80.7254 4.31867 81.2587 3.64867 81.872 3.042C82.4854 2.442 83.162 1.922 83.902 1.482C84.642 1.042 85.4254 0.698666 86.252 0.452C87.072 0.205333 87.912 0.0586666 88.772 0.012C89.6254 -0.028 90.4754 0.0320003 91.322 0.192C92.1687 0.358667 92.982 0.622 93.762 0.982C94.542 1.342 95.2687 1.792 95.942 2.332C96.6154 2.86533 97.2154 3.47533 97.742 4.162C98.2687 4.842 98.702 5.57533 99.042 6.362C99.3887 7.15533 99.6354 7.97533 99.782 8.822C99.9287 9.66867 99.972 10.5187 99.912 11.372C99.852 12.232 99.692 13.072 99.432 13.892C99.1654 14.712 99.032 15.1187 99.032 15.112Z" fill="#9C36B5"/>
</svg>
