<svg width="213" height="181" viewBox="0 0 213 181" fill="none" xmlns="http://www.w3.org/2000/svg">
<mask id="mask0_5_9" style="mask-type:luminance" maskUnits="userSpaceOnUse" x="0" y="0" width="213" height="181">
<path d="M204.045 0.318115H8.04541C3.62713 0.318115 0.0454102 3.89984 0.0454102 8.31812V172.5C0.0454102 176.918 3.62713 180.5 8.04541 180.5H204.045C208.464 180.5 212.045 176.918 212.045 172.5V8.31812C212.045 3.89984 208.464 0.318115 204.045 0.318115Z" fill="white"/>
</mask>
<g mask="url(#mask0_5_9)">
<path d="M88.3145 76.5781C88.3145 76.5781 87.0179 76.7981 84.4245 77.2381C81.8245 77.6781 79.0679 78.1115 76.1545 78.5381C73.2412 78.9648 69.8212 79.6215 65.8945 80.5081C61.9679 81.3881 58.3945 81.9548 55.1745 82.2081C51.9612 82.4615 48.8779 82.6615 45.9245 82.8081C42.9712 82.9548 39.7979 83.0948 36.4045 83.2281C33.0045 83.3548 29.5945 83.4781 26.1745 83.5981C22.7545 83.7181 20.3979 83.8015 19.1045 83.8481C17.8112 83.8948 16.6079 83.8515 15.4945 83.7181C14.3745 83.5848 13.2912 83.3181 12.2445 82.9181C11.1912 82.5181 10.2045 81.9981 9.28453 81.3581C8.35786 80.7248 7.52453 79.9881 6.78453 79.1481C6.03786 78.3081 5.40453 77.3915 4.88453 76.3981C4.35786 75.3981 3.96119 74.3548 3.69453 73.2681C3.42786 72.1748 3.29453 71.0681 3.29453 69.9481C3.29453 68.8281 3.42786 67.7215 3.69453 66.6281C3.96786 65.5481 4.36453 64.5115 4.88453 63.5181C5.40453 62.5181 6.03786 61.5981 6.78453 60.7581C7.52453 59.9181 8.35786 59.1815 9.28453 58.5481C10.2112 57.9081 11.1979 57.3881 12.2445 56.9881C13.2979 56.5948 14.3812 56.3281 15.4945 56.1881C16.6079 56.0548 19.0279 56.9415 22.7545 58.8481C26.4745 60.7548 29.7245 62.4981 32.5045 64.0781C35.2845 65.6515 38.6045 67.6148 42.4645 69.9681C46.3312 72.3148 49.7712 74.2381 52.7845 75.7381C55.8045 77.2381 59.1012 78.8481 62.6745 80.5681C66.2545 82.2948 69.4845 83.7515 72.3645 84.9381C75.2512 86.1248 77.7245 88.1281 79.7845 90.9481C81.8445 93.7681 83.1279 96.7248 83.6345 99.8181C84.1479 102.905 83.8912 105.775 82.8645 108.428C81.8445 111.081 80.6045 113.878 79.1445 116.818C77.6845 119.751 76.5779 122.855 75.8245 126.128C75.0645 129.401 74.3712 132.548 73.7445 135.568C73.1112 138.588 72.4612 141.821 71.7945 145.268C71.1212 148.715 67.5179 149.875 60.9845 148.748C54.4445 147.621 52.8412 145.388 56.1745 142.048C59.5079 138.708 62.2179 135.985 64.3045 133.878C66.3845 131.771 68.9479 129.661 71.9945 127.548C75.0412 125.435 77.9879 123.415 80.8345 121.488C83.6812 119.561 87.1645 117.601 91.2845 115.608C95.4112 113.615 99.0145 112.725 102.095 112.938C105.175 113.158 108.081 114.525 110.815 117.038C113.541 119.558 115.961 122.015 118.075 124.408C120.181 126.801 122.695 129.218 125.615 131.658C128.541 134.098 131.791 136.268 135.365 138.168C138.945 140.068 142.101 141.848 144.835 143.508C147.561 145.168 150.748 147.351 154.395 150.058C158.041 152.771 157.168 153.865 151.775 153.338C146.375 152.811 142.125 153.955 139.025 156.768C135.918 159.581 133.448 159.745 131.615 157.258C129.781 154.778 128.121 151.891 126.635 148.598C125.148 145.311 124.028 141.851 123.275 138.218C122.515 134.578 121.675 130.928 120.755 127.268C119.828 123.615 119.491 119.591 119.745 115.198C119.998 110.798 121.125 107.055 123.125 103.968C125.125 100.875 127.601 98.6815 130.555 97.3881C133.515 96.0948 136.491 94.7515 139.485 93.3581C142.478 91.9648 145.355 90.5015 148.115 88.9681C150.875 87.4415 153.955 85.8281 157.355 84.1281C160.748 82.4348 163.775 80.9148 166.435 79.5681C169.095 78.2148 171.741 76.9648 174.375 75.8181C177.008 74.6648 179.651 73.2981 182.305 71.7181C184.958 70.1381 186.078 72.7915 185.665 79.6781C185.258 86.5648 186.301 91.0348 188.795 93.0881C191.288 95.1348 190.648 95.8815 186.875 95.3281C183.101 94.7815 179.378 94.3181 175.705 93.9381C172.025 93.5581 168.118 93.0548 163.985 92.4281C159.851 91.8015 155.818 91.1848 151.885 90.5781C147.945 89.9781 144.221 89.3848 140.715 88.7981C137.208 88.2115 133.368 87.5915 129.195 86.9381C125.015 86.2848 121.348 85.1415 118.195 83.5081C115.041 81.8815 112.585 79.6015 110.825 76.6681C109.071 73.7415 107.821 70.8748 107.075 68.0681C106.321 65.2748 105.231 62.1448 103.805 58.6781C102.378 55.2115 101.031 51.8248 99.7645 48.5181C98.4979 45.2115 97.2712 42.2715 96.0845 39.6981C94.8979 37.1248 93.3179 34.2115 91.3445 30.9581C89.3712 27.7048 88.3579 26.0281 88.3045 25.9281C88.2512 25.8215 87.9379 25.2248 87.3645 24.1381C86.7912 23.0515 86.3545 21.9115 86.0545 20.7181C85.7545 19.5248 85.6012 18.3115 85.5945 17.0781C85.5879 15.8448 85.7279 14.6315 86.0145 13.4381C86.3012 12.2381 86.7245 11.0948 87.2845 10.0081C87.8512 8.91481 88.5412 7.90481 89.3545 6.97814C90.1679 6.05147 91.0779 5.23481 92.0845 4.52814C93.0979 3.82814 94.1779 3.25481 95.3245 2.80814C96.4712 2.36814 97.6579 2.07147 98.8845 1.91814C100.105 1.7648 101.325 1.75814 102.545 1.89814C103.771 2.03814 104.961 2.3248 106.115 2.75814C107.268 3.1848 108.351 3.74814 109.365 4.44814C110.385 5.14147 111.305 5.94481 112.125 6.85814C112.945 7.77814 113.275 11.1215 113.115 16.8881C112.955 22.6615 112.591 27.2415 112.025 30.6281C111.458 34.0215 110.561 37.1248 109.335 39.9381C108.108 42.7515 106.585 45.8248 104.765 49.1581C102.945 52.4915 101.198 55.5348 99.5245 58.2881C97.8445 61.0415 95.6145 60.7781 92.8345 57.4981C90.0545 54.2115 86.5445 51.8915 82.3045 50.5381C78.0512 49.1848 77.4579 47.3781 80.5245 45.1181C83.5912 42.8648 85.8745 41.1481 87.3745 39.9681C88.8812 38.7815 90.1345 37.8448 91.1345 37.1581C92.1412 36.4715 93.2145 35.9148 94.3545 35.4881C95.4945 35.0615 96.6679 34.7781 97.8745 34.6381C99.0812 34.4981 100.288 34.5015 101.495 34.6481C102.701 34.8015 103.871 35.0948 105.005 35.5281C106.138 35.9681 107.205 36.5348 108.205 37.2281C109.205 37.9215 110.105 38.7248 110.905 39.6381C111.711 40.5515 112.395 41.5481 112.955 42.6281C113.515 43.7081 113.938 44.8381 114.225 46.0181C114.511 47.1981 114.651 48.3981 114.645 49.6181C114.638 50.8315 114.488 52.0281 114.195 53.2081C113.901 54.3881 113.468 55.5148 112.895 56.5881C112.328 57.6615 111.638 58.6515 110.825 59.5581C110.018 60.4648 110.378 58.3748 111.905 53.2881C113.438 48.2015 114.328 47.3348 114.575 50.6881C114.821 54.0481 114.391 57.9381 113.285 62.3581C112.178 66.7781 110.555 71.6515 108.415 76.9781C106.275 82.3048 104.068 87.2915 101.795 91.9381C99.5145 96.5848 98.1479 100.241 97.6945 102.908C97.2479 105.575 96.8479 107.445 96.4945 108.518C96.1412 109.598 95.6645 110.621 95.0645 111.588C94.4645 112.548 93.7612 113.425 92.9545 114.218C92.1412 115.011 91.2445 115.695 90.2645 116.268C89.2845 116.841 88.2512 117.291 87.1645 117.618C86.0845 117.938 84.9779 118.125 83.8445 118.178C82.7112 118.238 81.5879 118.158 80.4745 117.938C79.3612 117.718 78.2912 117.368 77.2645 116.888C76.2312 116.408 75.2745 115.811 74.3945 115.098C73.5079 114.391 72.7212 113.585 72.0345 112.678C71.3479 111.778 70.7779 110.808 70.3245 109.768C69.8712 108.728 69.5479 107.648 69.3545 106.528C69.1679 105.408 69.1145 104.285 69.1945 103.158C69.2812 102.025 70.0245 99.9048 71.4245 96.7981C72.8245 93.6848 73.9712 90.2181 74.8645 86.3981C75.7512 82.5781 76.2479 80.4215 76.3545 79.9281C76.4545 79.4348 76.6845 78.6448 77.0445 77.5581C77.4112 76.4715 77.8979 75.4448 78.5045 74.4781C79.1179 73.5115 79.8379 72.6315 80.6645 71.8381C81.4845 71.0448 82.3912 70.3615 83.3845 69.7881C84.3712 69.2148 85.4145 68.7681 86.5145 68.4481C87.6079 68.1281 88.7279 67.9448 89.8745 67.8981C91.0145 67.8448 92.1479 67.9348 93.2745 68.1681C94.3945 68.3948 95.4712 68.7515 96.5045 69.2381C97.5379 69.7315 98.4979 70.3381 99.3845 71.0581C100.271 71.7848 101.061 72.6048 101.755 73.5181C102.441 74.4315 103.008 75.4148 103.455 76.4681C103.908 77.5215 104.228 78.6115 104.415 79.7381C104.595 80.8715 104.641 82.0081 104.555 83.1481C104.461 84.2881 103.831 86.6948 102.665 90.3681C101.498 94.0481 100.015 98.4781 98.2145 103.658C96.4145 108.838 94.5579 113.628 92.6445 118.028C90.7379 122.421 86.5712 125.718 80.1445 127.918C73.7112 130.118 69.4012 128.455 67.2145 122.928C65.0212 117.395 65.1279 112.641 67.5345 108.668C69.9479 104.695 72.5345 100.528 75.2945 96.1681C78.0612 91.8015 79.9145 88.0048 80.8545 84.7781C81.7945 81.5515 82.3545 79.4848 82.5345 78.5781C82.7212 77.6781 83.0245 76.7381 83.4445 75.7581C83.8712 74.7715 84.4112 73.8548 85.0645 73.0081C85.7112 72.1548 86.4479 71.3915 87.2745 70.7181C88.1079 70.0515 89.0112 69.4915 89.9845 69.0381C90.9512 68.5848 91.9612 68.2548 93.0145 68.0481C94.0612 67.8415 95.1212 67.7648 96.1945 67.8181C97.2612 67.8648 98.3079 68.0415 99.3345 68.3481C100.361 68.6548 101.335 69.0781 102.255 69.6181C103.181 70.1581 104.028 70.8015 104.795 71.5481C105.561 72.2948 106.228 73.1248 106.795 74.0381C107.355 74.9448 107.801 75.9081 108.135 76.9281C108.468 77.9415 108.675 78.9815 108.755 80.0481C108.835 81.1215 108.785 82.1848 108.605 83.2381C108.425 84.2915 107.981 86.7281 107.275 90.5481C106.568 94.3615 106.095 97.8181 105.855 100.918C105.615 104.011 105.591 107.465 105.785 111.278C105.978 115.091 104.365 115.755 100.945 113.268C97.5312 110.775 95.9679 107.605 96.2545 103.758C96.5412 99.9048 97.2445 96.4548 98.3645 93.4081C99.4779 90.3615 100.031 88.9215 100.025 89.0881C100.025 89.2548 100.271 88.8615 100.765 87.9081C101.265 86.9481 101.871 86.0615 102.585 85.2481C103.298 84.4415 104.098 83.7281 104.985 83.1081C105.871 82.4948 106.821 81.9948 107.835 81.6081C108.841 81.2215 109.881 80.9615 110.955 80.8281C112.028 80.6948 113.098 80.6915 114.165 80.8181C115.238 80.9448 116.281 81.1981 117.295 81.5781C118.308 81.9581 119.258 82.4548 120.145 83.0681C121.038 83.6748 121.845 84.3815 122.565 85.1881C123.278 85.9948 123.888 86.8748 124.395 87.8281C124.901 88.7881 125.285 89.7915 125.545 90.8381C125.805 91.8848 125.938 92.9481 125.945 94.0281C125.945 95.1081 125.818 96.1715 125.565 97.2181C125.311 98.2715 125.241 97.2215 125.355 94.0681C125.468 90.9148 126.361 91.3881 128.035 95.4881C129.708 99.5815 131.275 102.955 132.735 105.608C134.201 108.255 135.105 110.101 135.445 111.148C135.785 112.201 135.998 113.278 136.085 114.378C136.165 115.478 136.111 116.571 135.925 117.658C135.745 118.745 135.435 119.795 134.995 120.808C134.555 121.821 134.001 122.765 133.335 123.638C132.668 124.518 131.905 125.305 131.045 125.998C130.185 126.685 129.255 127.261 128.255 127.728C127.255 128.195 126.215 128.535 125.135 128.748C124.055 128.968 122.961 129.051 121.855 128.998C120.755 128.945 119.675 128.761 118.615 128.448C117.561 128.135 116.558 127.698 115.605 127.138C114.651 126.585 113.781 125.921 112.995 125.148C112.201 124.381 111.515 123.531 110.935 122.598C110.348 121.658 110.055 118.698 110.055 113.718C110.055 108.738 110.125 104.675 110.265 101.528C110.411 98.3815 110.865 95.1648 111.625 91.8781C112.385 88.5915 114.408 85.3681 117.695 82.2081C120.981 79.0481 122.801 77.4215 123.155 77.3281C123.515 77.2415 124.235 77.0548 125.315 76.7681C126.395 76.4815 127.495 76.3281 128.615 76.3081C129.735 76.2881 130.838 76.4048 131.925 76.6581C133.018 76.9048 134.065 77.2815 135.065 77.7881C136.065 78.2881 136.988 78.9015 137.835 79.6281C138.681 80.3548 139.431 81.1748 140.085 82.0881C140.738 82.9948 141.271 83.9681 141.685 85.0081C142.098 86.0481 142.381 87.1215 142.535 88.2281C142.688 89.3348 142.708 90.4448 142.595 91.5581C142.475 92.6715 142.225 93.7548 141.845 94.8081C141.465 95.8615 140.965 96.8515 140.345 97.7781C139.731 98.7115 139.011 99.5548 138.185 100.308C137.358 101.068 136.455 101.715 135.475 102.248C134.495 102.788 132.588 103.401 129.755 104.088C126.928 104.781 123.331 105.218 118.965 105.398C114.598 105.578 110.105 105.438 105.485 104.978C100.858 104.518 96.6745 103.988 92.9345 103.388C89.1879 102.788 85.4112 102.311 81.6045 101.958C77.7912 101.605 75.1312 101.295 73.6245 101.028C72.1112 100.761 70.6845 100.261 69.3445 99.5281C67.9979 98.7948 66.8045 97.8681 65.7645 96.7481C64.7245 95.6215 63.8912 94.3581 63.2645 92.9581C62.6379 91.5581 62.2479 90.0981 62.0945 88.5781C61.9479 87.0515 62.0479 85.5415 62.3945 84.0481C62.7412 82.5548 63.3179 81.1581 64.1245 79.8581C64.9312 78.5515 65.9245 77.4081 67.1045 76.4281C68.2845 75.4548 69.5879 74.6915 71.0145 74.1381C72.4412 73.5915 73.9212 73.2848 75.4545 73.2181C76.9879 73.1515 78.4879 73.3315 79.9545 73.7581C81.4279 74.1848 82.7945 74.8348 84.0545 75.7081C85.3079 76.5881 86.3879 77.6415 87.2945 78.8681C88.2079 80.1015 88.9012 81.4448 89.3745 82.8981C89.8479 84.3581 90.0745 85.8548 90.0545 87.3881C90.0412 88.9215 89.7812 90.4115 89.2745 91.8581C88.7679 93.3048 88.0412 94.6315 87.0945 95.8381C86.1612 97.0448 85.0579 98.0715 83.7845 98.9181C82.5045 99.7648 81.1245 100.381 79.6445 100.768C78.1579 101.161 76.6512 101.308 75.1245 101.208C73.5979 101.108 72.1245 100.765 70.7045 100.178C69.2912 99.5981 68.0079 98.8048 66.8545 97.7981C65.6945 96.7915 64.7279 95.6281 63.9545 94.3081C63.1812 92.9881 62.6379 91.5781 62.3245 90.0781C62.0112 88.5715 61.9479 87.0581 62.1345 85.5381C62.3145 84.0181 62.7345 82.5681 63.3945 81.1881C64.0545 79.8015 64.9179 78.5581 65.9845 77.4581C67.0512 76.3581 68.2679 75.4581 69.6345 74.7581C70.9945 74.0581 72.4312 73.5915 73.9445 73.3581C75.4579 73.1315 76.2145 73.0181 76.2145 73.0181C76.2145 73.0181 77.3379 73.0615 79.5845 73.1481C81.8312 73.2415 84.4812 73.5848 87.5345 74.1781C90.6012 74.7715 93.7845 75.3381 97.0845 75.8781C100.378 76.4115 103.675 76.8481 106.975 77.1881C110.268 77.5348 113.878 77.6215 117.805 77.4481C121.731 77.2815 124.235 77.0548 125.315 76.7681C126.395 76.4815 127.495 76.3281 128.615 76.3081C129.735 76.2881 130.838 76.4048 131.925 76.6581C133.018 76.9048 134.065 77.2815 135.065 77.7881C136.058 78.2881 136.981 78.9015 137.835 79.6281C138.681 80.3548 139.431 81.1748 140.085 82.0881C140.738 82.9948 141.271 83.9681 141.685 85.0081C142.098 86.0481 142.381 87.1215 142.535 88.2281C142.688 89.3348 142.708 90.4448 142.595 91.5581C142.475 92.6715 142.225 93.7548 141.845 94.8081C141.465 95.8615 140.968 96.8515 140.355 97.7781C139.735 98.7115 139.011 99.5548 138.185 100.308C137.358 101.068 136.455 101.715 135.475 102.248C134.495 102.788 134.618 102.185 135.845 100.438C137.078 98.6915 137.235 99.7781 136.315 103.698C135.395 107.618 135.105 110.101 135.445 111.148C135.785 112.201 135.998 113.278 136.085 114.378C136.165 115.478 136.111 116.571 135.925 117.658C135.745 118.745 135.435 119.795 134.995 120.808C134.555 121.815 134.001 122.758 133.335 123.638C132.668 124.518 131.905 125.305 131.045 125.998C130.185 126.685 129.255 127.261 128.255 127.728C127.255 128.195 126.215 128.535 125.135 128.748C124.055 128.968 122.965 129.051 121.865 128.998C120.758 128.945 119.678 128.761 118.625 128.448C117.565 128.135 116.558 127.698 115.605 127.138C114.651 126.585 113.781 125.921 112.995 125.148C112.201 124.381 111.515 123.531 110.935 122.598C110.348 121.658 109.895 120.998 109.575 120.618C109.255 120.238 108.488 118.665 107.275 115.898C106.055 113.138 104.968 110.375 104.015 107.608C103.061 104.848 102.158 101.115 101.305 96.4081C100.445 91.6948 100.265 88.8615 100.765 87.9081C101.265 86.9481 101.871 86.0615 102.585 85.2481C103.298 84.4415 104.098 83.7281 104.985 83.1081C105.871 82.4948 106.821 81.9948 107.835 81.6081C108.841 81.2215 109.881 80.9615 110.955 80.8281C112.021 80.6948 113.091 80.6915 114.165 80.8181C115.238 80.9448 116.281 81.1981 117.295 81.5781C118.301 81.9581 119.251 82.4548 120.145 83.0681C121.038 83.6748 121.841 84.3815 122.555 85.1881C123.275 85.9948 123.888 86.8748 124.395 87.8281C124.901 88.7815 125.285 89.7848 125.545 90.8381C125.805 91.8848 125.938 92.9481 125.945 94.0281C125.945 95.1081 125.818 96.1715 125.565 97.2181C125.311 98.2715 124.875 99.2148 124.255 100.048C123.635 100.881 122.758 103.135 121.625 106.808C120.498 110.481 119.255 113.815 117.895 116.808C116.541 119.795 114.921 122.488 113.035 124.888C111.148 127.281 108.511 129.401 105.125 131.248C101.738 133.095 98.2745 133.618 94.7345 132.818C91.1879 132.018 87.9145 128.701 84.9145 122.868C81.9079 117.035 80.3312 112.515 80.1845 109.308C80.0312 106.108 79.9779 102.608 80.0245 98.8081C80.0712 95.0081 80.5479 90.4615 81.4545 85.1681C82.3545 79.8748 83.0179 76.7381 83.4445 75.7581C83.8712 74.7715 84.4112 73.8548 85.0645 73.0081C85.7112 72.1548 86.4479 71.3915 87.2745 70.7181C88.1079 70.0515 89.0112 69.4915 89.9845 69.0381C90.9512 68.5848 91.9612 68.2548 93.0145 68.0481C94.0612 67.8415 95.1212 67.7648 96.1945 67.8181C97.2612 67.8648 98.3079 68.0415 99.3345 68.3481C100.361 68.6548 101.335 69.0781 102.255 69.6181C103.181 70.1581 104.028 70.8015 104.795 71.5481C105.561 72.2948 106.228 73.1248 106.795 74.0381C107.355 74.9448 107.801 75.9081 108.135 76.9281C108.468 77.9415 108.675 78.9815 108.755 80.0481C108.835 81.1148 108.785 82.1781 108.605 83.2381C108.425 84.2915 107.928 86.1648 107.115 88.8581C106.301 91.5581 105.371 94.4215 104.325 97.4481C103.271 100.481 101.961 103.528 100.395 106.588C98.8279 109.648 96.1745 113.581 92.4345 118.388C88.6945 123.201 85.8345 122.921 83.8545 117.548C81.8745 112.168 78.5945 109.401 74.0145 109.248C69.4279 109.095 67.9045 106.751 69.4445 102.218C70.9779 97.6915 72.5379 92.7215 74.1245 87.3081C75.7112 81.8948 76.6845 78.6448 77.0445 77.5581C77.4112 76.4715 77.8979 75.4448 78.5045 74.4781C79.1179 73.5115 79.8345 72.6315 80.6545 71.8381C81.4812 71.0448 82.3912 70.3615 83.3845 69.7881C84.3712 69.2148 85.4145 68.7681 86.5145 68.4481C87.6079 68.1281 88.7279 67.9448 89.8745 67.8981C91.0145 67.8448 92.1445 67.9348 93.2645 68.1681C94.3912 68.3948 95.4712 68.7515 96.5045 69.2381C97.5379 69.7315 98.4979 70.3381 99.3845 71.0581C100.271 71.7781 101.061 72.5981 101.755 73.5181C102.441 74.4315 103.008 75.4148 103.455 76.4681C103.908 77.5215 104.228 78.6115 104.415 79.7381C104.595 80.8648 104.641 82.0015 104.555 83.1481C104.461 84.2881 104.375 84.9348 104.295 85.0881C104.215 85.2481 103.735 87.1415 102.855 90.7681C101.968 94.3881 100.775 97.9815 99.2745 101.548C97.7745 105.121 96.8479 107.445 96.4945 108.518C96.1412 109.598 95.6645 110.621 95.0645 111.588C94.4712 112.548 93.7679 113.425 92.9545 114.218C92.1412 115.011 91.2445 115.695 90.2645 116.268C89.2845 116.841 88.2512 117.291 87.1645 117.618C86.0845 117.938 84.9779 118.125 83.8445 118.178C82.7112 118.238 81.5879 118.158 80.4745 117.938C79.3612 117.718 78.2912 117.368 77.2645 116.888C76.2312 116.408 75.2745 115.815 74.3945 115.108C73.5079 114.395 72.7212 113.588 72.0345 112.688C71.3479 111.781 70.7779 110.808 70.3245 109.768C69.8712 108.728 69.5479 107.648 69.3545 106.528C69.1679 105.408 69.1145 104.285 69.1945 103.158C69.2812 102.025 69.5045 100.258 69.8645 97.8581C70.2312 95.4581 71.2912 91.9481 73.0445 87.3281C74.7979 82.7081 76.5645 78.2681 78.3445 74.0081C80.1179 69.7548 81.8645 65.6915 83.5845 61.8181C85.3045 57.9448 86.7412 53.0381 87.8945 47.0981C89.0545 41.1581 90.1345 37.8448 91.1345 37.1581C92.1412 36.4715 93.2145 35.9148 94.3545 35.4881C95.4879 35.0615 96.6612 34.7781 97.8745 34.6381C99.0812 34.4981 100.288 34.5015 101.495 34.6481C102.701 34.8015 103.871 35.0948 105.005 35.5281C106.138 35.9681 107.205 36.5348 108.205 37.2281C109.205 37.9215 110.105 38.7248 110.905 39.6381C111.711 40.5515 112.395 41.5481 112.955 42.6281C113.515 43.7081 113.938 44.8381 114.225 46.0181C114.511 47.1981 114.651 48.3948 114.645 49.6081C114.638 50.8281 114.488 52.0281 114.195 53.2081C113.901 54.3881 113.468 55.5148 112.895 56.5881C112.328 57.6615 111.641 58.6515 110.835 59.5581C110.021 60.4648 109.381 61.0415 108.915 61.2881C108.455 61.5281 106.831 62.7315 104.045 64.8981C101.258 67.0648 98.3379 69.3281 95.2845 71.6881C92.2312 74.0481 88.9945 75.4515 85.5745 75.8981C82.1479 76.3381 78.9145 75.9481 75.8745 74.7281C72.8345 73.5081 70.8412 69.3648 69.8945 62.2981C68.9545 55.2181 69.2245 50.2448 70.7045 47.3781C72.1845 44.5115 73.7945 41.7315 75.5345 39.0381C77.2812 36.3515 78.8145 33.5115 80.1345 30.5181C81.4545 27.5315 82.5545 24.5581 83.4345 21.5981C84.3145 18.6381 85.3745 15.7515 86.6145 12.9381C87.8479 10.1248 88.4245 11.5615 88.3445 17.2481C88.2645 22.9281 87.9379 25.2248 87.3645 24.1381C86.7912 23.0515 86.3545 21.9115 86.0545 20.7181C85.7545 19.5248 85.6012 18.3115 85.5945 17.0781C85.5879 15.8515 85.7279 14.6381 86.0145 13.4381C86.3012 12.2448 86.7245 11.1015 87.2845 10.0081C87.8512 8.91481 88.5412 7.90481 89.3545 6.97814C90.1679 6.05147 91.0779 5.23481 92.0845 4.52814C93.0979 3.82814 94.1779 3.25481 95.3245 2.80814C96.4712 2.36814 97.6545 2.07147 98.8745 1.91814C100.101 1.7648 101.325 1.75814 102.545 1.89814C103.771 2.03814 104.961 2.3248 106.115 2.75814C107.261 3.1848 108.345 3.74481 109.365 4.43814C110.378 5.13814 111.298 5.94481 112.125 6.85814C112.945 7.77814 113.728 9.12481 114.475 10.8981C115.228 12.6648 116.531 14.8815 118.385 17.5481C120.231 20.2148 121.808 23.0648 123.115 26.0981C124.421 29.1381 125.691 32.2215 126.925 35.3481C128.158 38.4748 129.431 41.6715 130.745 44.9381C132.058 48.2115 133.345 51.2081 134.605 53.9281C135.858 56.6481 138.238 58.2915 141.745 58.8581C145.251 59.4315 149.101 60.0248 153.295 60.6381C157.488 61.2448 161.661 61.8415 165.815 62.4281C169.968 63.0081 174.351 63.5015 178.965 63.9081C183.585 64.3081 187.375 64.7148 190.335 65.1281C193.301 65.5481 196.705 66.9148 200.545 69.2281C204.378 71.5548 205.208 76.7515 203.035 84.8181C200.861 92.8781 198.261 97.7081 195.235 99.3081C192.215 100.908 189.151 102.371 186.045 103.698C182.945 105.025 180.058 106.348 177.385 107.668C174.711 108.988 171.975 110.431 169.175 111.998C166.381 113.565 163.081 115.355 159.275 117.368C155.468 119.381 151.851 120.261 148.425 120.008C144.998 119.755 142.998 116.928 142.425 111.528C141.851 106.121 142.805 105.528 145.285 109.748C147.771 113.961 149.381 117.451 150.115 120.218C150.855 122.985 151.545 126.188 152.185 129.828C152.825 133.475 154.005 136.621 155.725 139.268C157.438 141.915 158.935 144.585 160.215 147.278C161.488 149.971 162.565 153.485 163.445 157.818C164.331 162.151 163.058 166.241 159.625 170.088C156.191 173.935 151.991 175.851 147.025 175.838C142.058 175.818 138.028 174.888 134.935 173.048C131.848 171.208 129.115 169.511 126.735 167.958C124.355 166.405 121.898 164.985 119.365 163.698C116.825 162.411 113.991 160.711 110.865 158.598C107.738 156.485 104.948 154.301 102.495 152.048C100.041 149.795 97.8879 147.321 96.0345 144.628C94.1745 141.941 95.5745 140.368 100.235 139.908C104.895 139.455 106.078 140.168 103.785 142.048C101.485 143.921 99.0212 145.725 96.3945 147.458C93.7679 149.191 91.0212 151.105 88.1545 153.198C85.2945 155.291 82.4845 157.481 79.7245 159.768C76.9712 162.048 74.4579 164.071 72.1845 165.838C69.9112 167.598 67.0379 169.068 63.5645 170.248C60.0912 171.428 55.2045 168.991 48.9045 162.938C42.6045 156.885 39.8912 152.075 40.7645 148.508C41.6379 144.935 42.3079 141.311 42.7745 137.638C43.2412 133.965 43.9279 130.571 44.8345 127.458C45.7345 124.345 46.5845 121.031 47.3845 117.518C48.1912 113.998 50.0645 111.085 53.0045 108.778C55.9445 106.478 58.6879 106.621 61.2345 109.208C63.7812 111.801 63.0879 112.298 59.1545 110.698C55.2279 109.091 51.5445 107.455 48.1045 105.788C44.6645 104.128 41.4912 102.535 38.5845 101.008C35.6779 99.4815 32.5745 97.6481 29.2745 95.5081C25.9745 93.3748 22.8579 91.2515 19.9245 89.1381C16.9979 87.0181 14.0779 84.8415 11.1645 82.6081C8.25786 80.3681 8.53119 80.0281 11.9845 81.5881C15.4379 83.1415 16.6079 83.8515 15.4945 83.7181C14.3812 83.5848 13.2979 83.3181 12.2445 82.9181C11.1979 82.5181 10.2112 82.0015 9.28453 81.3681C8.35786 80.7281 7.52453 79.9881 6.78453 79.1481C6.03786 78.3081 5.40453 77.3915 4.88453 76.3981C4.36453 75.4048 3.96786 74.3615 3.69453 73.2681C3.42786 72.1815 3.29453 71.0748 3.29453 69.9481C3.29453 68.8281 3.42786 67.7215 3.69453 66.6281C3.96119 65.5481 4.35786 64.5115 4.88453 63.5181C5.40453 62.5248 6.03786 61.6081 6.78453 60.7681C7.52453 59.9215 8.35786 59.1815 9.28453 58.5481C10.2045 57.9081 11.1912 57.3881 12.2445 56.9881C13.2912 56.5948 14.3745 56.3281 15.4945 56.1881C16.6079 56.0548 18.7545 56.0448 21.9345 56.1581C25.1145 56.2715 28.2879 56.3848 31.4545 56.4981C34.6279 56.6115 37.8412 56.7381 41.0945 56.8781C44.3545 57.0181 47.6779 57.1815 51.0645 57.3681C54.4512 57.5481 57.7645 57.6015 61.0045 57.5281C64.2445 57.4481 67.8412 57.3115 71.7945 57.1181C75.7412 56.9248 79.0279 56.7015 81.6545 56.4481C84.2812 56.1881 86.0079 56.0548 86.8345 56.0481C87.6612 56.0348 88.4812 56.1248 89.2945 56.3181C90.1012 56.5048 90.8745 56.7881 91.6145 57.1681C92.3612 57.5481 93.0479 58.0081 93.6745 58.5481C94.3012 59.0948 94.8545 59.7081 95.3345 60.3881C95.8212 61.0681 96.2145 61.7948 96.5145 62.5681C96.8212 63.3415 97.0279 64.1415 97.1345 64.9681C97.2479 65.7881 97.2579 66.6081 97.1645 67.4281C97.0779 68.2615 96.8912 69.0681 96.6045 69.8481C96.3179 70.6281 95.9412 71.3615 95.4745 72.0481C95.0079 72.7415 94.4679 73.3681 93.8545 73.9281C93.2412 74.4881 92.5679 74.9648 91.8345 75.3581C91.1012 75.7515 90.3312 76.0548 89.5245 76.2681C88.7179 76.4748 88.3145 76.5781 88.3145 76.5781Z" fill="#9C36B5"/>
</g>
</svg>
