<?xml version="1.0" standalone="no"?>
<!DOCTYPE svg PUBLIC "-//W3C//DTD SVG 1.1//EN" "http://www.w3.org/Graphics/SVG/1.1/DTD/svg11.dtd">
<svg version="1.1" xmlns="http://www.w3.org/2000/svg" viewBox="0 0 96.8848176301592 95.19500448515004" width="96.8848176301592" height="95.19500448515004" filter="invert(93%) hue-rotate(180deg)"><!-- svg-source:excalidraw --><metadata></metadata><defs><style class="style-fonts">
      </style></defs><g transform="translate(10 48.864837284297494) rotate(0 38.4424088150796 -1.2673350417224754)" stroke="none"><path fill="#8457bc" d="M 9.33,-4.66 Q 9.33,-4.66 11.75,0.19 14.17,5.05 16.14,9.25 18.11,13.45 20.89,18.63 23.66,23.82 23.08,19.00 22.51,14.18 33.46,1.03 44.41,-12.12 49.21,-17.79 54.02,-23.45 57.11,-27.53 60.21,-31.60 62.82,-36.03 65.43,-40.46 66.26,-41.94 67.08,-43.41 68.07,-44.86 69.05,-46.30 70.44,-47.36 71.84,-48.41 73.49,-48.97 75.15,-49.52 76.90,-49.52 78.65,-49.52 80.30,-48.96 81.96,-48.39 83.35,-47.33 84.73,-46.27 85.71,-44.83 86.69,-43.38 87.16,-41.69 87.62,-40.01 87.52,-38.26 87.42,-36.52 86.78,-34.90 86.13,-33.27 84.99,-31.94 83.86,-30.61 82.36,-29.72 80.86,-28.82 79.15,-28.45 77.45,-28.07 75.71,-28.27 73.97,-28.46 72.39,-29.19 70.80,-29.93 69.54,-31.13 68.27,-32.34 67.45,-33.88 66.64,-35.43 66.36,-37.15 66.08,-38.88 66.36,-40.60 66.65,-42.33 67.47,-43.87 68.29,-45.41 69.56,-46.61 70.83,-47.81 72.42,-48.54 74.01,-49.27 75.75,-49.46 77.49,-49.64 79.19,-49.27 80.90,-48.89 82.39,-47.98 83.89,-47.08 85.02,-45.74 86.15,-44.41 86.79,-42.79 87.43,-41.16 87.52,-39.42 87.62,-37.67 87.14,-35.99 86.67,-34.31 86.67,-34.31 86.68,-34.31 85.01,-31.56 83.34,-28.81 79.61,-24.02 75.88,-19.23 72.73,-15.40 69.58,-11.56 65.42,-5.49 61.26,0.57 52.25,13.89 43.24,27.22 37.61,34.77 31.98,42.32 27.56,44.59 23.14,46.86 18.52,46.42 13.89,45.98 9.68,41.85 5.47,37.72 3.46,33.19 1.44,28.67 -1.51,21.52 -4.46,14.37 -6.89,9.52 -9.33,4.66 -9.75,3.48 -10.18,2.29 -10.30,1.04 -10.43,-0.20 -10.25,-1.45 -10.08,-2.69 -9.61,-3.86 -9.14,-5.03 -8.40,-6.05 -7.67,-7.07 -6.71,-7.88 -5.75,-8.70 -4.63,-9.26 -3.50,-9.82 -2.28,-10.10 -1.05,-10.38 0.20,-10.35 1.46,-10.33 2.67,-10.00 3.89,-9.68 4.99,-9.07 6.09,-8.47 7.02,-7.61 7.94,-6.76 8.64,-5.71 9.33,-4.66 9.33,-4.66 L 9.33,-4.66 Z"></path></g></svg>