<?xml version="1.0" standalone="no"?>
<!DOCTYPE svg PUBLIC "-//W3C//DTD SVG 1.1//EN" "http://www.w3.org/Graphics/SVG/1.1/DTD/svg11.dtd">
<svg version="1.1" xmlns="http://www.w3.org/2000/svg" viewBox="0 0 84.21139630712173 96.88478926783415" width="84.21139630712173" height="96.88478926783415" filter="invert(93%) hue-rotate(180deg)"><!-- svg-source:excalidraw --><metadata></metadata><defs><style class="style-fonts">
      </style></defs><g transform="translate(10 42.950611816646756) rotate(0 32.105698153560866 5.49178281727032)" stroke="none"><path fill="#8457bc" d="M 9.98,-2.72 Q 9.98,-2.72 11.43,2.62 12.87,7.97 15.76,15.21 18.66,22.46 21.69,27.72 24.73,32.98 17.09,34.98 9.46,36.98 12.38,30.80 15.30,24.62 17.85,19.94 20.39,15.26 23.68,9.63 26.96,4.01 30.48,-1.91 34.00,-7.84 36.62,-12.64 39.25,-17.44 41.71,-21.38 44.18,-25.33 47.70,-30.29 51.21,-35.25 54.24,-38.78 57.26,-42.31 58.93,-43.17 60.61,-44.04 62.48,-44.32 64.34,-44.60 66.20,-44.28 68.06,-43.95 69.71,-43.05 71.37,-42.15 72.65,-40.76 73.93,-39.38 74.70,-37.66 75.48,-35.94 75.66,-34.06 75.84,-32.18 75.41,-30.34 74.99,-28.50 74.00,-26.90 73.01,-25.29 71.55,-24.09 70.10,-22.89 68.34,-22.21 66.58,-21.53 64.70,-21.45 62.81,-21.37 61.00,-21.90 59.19,-22.42 57.64,-23.50 56.09,-24.57 54.97,-26.09 53.84,-27.60 53.26,-29.40 52.68,-31.19 52.70,-33.08 52.72,-34.97 53.35,-36.75 53.97,-38.53 55.13,-40.02 56.29,-41.50 57.86,-42.54 59.43,-43.58 61.26,-44.07 63.08,-44.55 64.96,-44.43 66.85,-44.30 68.59,-43.58 70.33,-42.87 71.76,-41.63 73.18,-40.39 74.13,-38.76 75.09,-37.13 75.47,-35.29 75.86,-33.44 75.63,-31.57 75.40,-29.69 74.59,-27.99 73.78,-26.29 72.47,-24.93 71.15,-23.58 71.15,-23.58 71.16,-23.58 68.47,-20.46 65.78,-17.33 61.83,-12.33 57.88,-7.34 55.35,-2.61 52.82,2.11 49.91,8.31 47.01,14.51 44.33,20.27 41.65,26.03 37.38,34.59 33.12,43.14 30.52,46.58 27.92,50.03 16.39,46.91 4.86,43.78 1.80,37.24 -1.26,30.70 -2.84,26.51 -4.42,22.33 -5.73,17.86 -7.04,13.40 -8.51,8.06 -9.98,2.72 -10.16,1.48 -10.35,0.25 -10.23,-0.98 -10.11,-2.23 -9.69,-3.40 -9.28,-4.58 -8.59,-5.62 -7.91,-6.67 -7.00,-7.52 -6.08,-8.37 -4.99,-8.98 -3.90,-9.58 -2.70,-9.91 -1.49,-10.24 -0.25,-10.27 0.99,-10.30 2.21,-10.03 3.43,-9.76 4.55,-9.21 5.67,-8.66 6.62,-7.85 7.57,-7.05 8.31,-6.04 9.04,-5.03 9.51,-3.87 9.98,-2.72 9.98,-2.72 L 9.98,-2.72 Z"></path></g></svg>