<?xml version="1.0" standalone="no"?>
<!DOCTYPE svg PUBLIC "-//W3C//DTD SVG 1.1//EN" "http://www.w3.org/Graphics/SVG/1.1/DTD/svg11.dtd">
<svg version="1.1" xmlns="http://www.w3.org/2000/svg" viewBox="0 0 83.36653936868618 93.50524806479086" width="83.36653936868618" height="93.50524806479086" filter="invert(93%) hue-rotate(180deg)"><!-- svg-source:excalidraw --><metadata></metadata><defs><style class="style-fonts">
      </style></defs><g transform="translate(10 49.70972258505827) rotate(0 31.683269684343088 -2.957098552662842)" stroke="none"><path fill="#8457bc" d="M 9.27,-4.25 Q 9.27,-4.25 11.82,1.63 14.36,7.52 16.53,11.83 18.69,16.14 21.45,20.65 24.21,25.16 18.39,24.55 12.57,23.94 14.41,18.89 16.25,13.85 18.56,8.96 20.87,4.07 23.43,-0.84 26.00,-5.75 28.94,-10.68 31.89,-15.61 34.23,-19.74 36.57,-23.87 39.29,-27.86 42.01,-31.84 45.53,-36.90 49.05,-41.96 52.43,-45.56 55.80,-49.15 57.51,-50.11 59.22,-51.07 61.14,-51.44 63.06,-51.80 65.00,-51.53 66.94,-51.26 68.69,-50.39 70.45,-49.51 71.83,-48.13 73.21,-46.74 74.07,-44.98 74.94,-43.23 75.20,-41.29 75.46,-39.35 75.08,-37.42 74.71,-35.50 73.74,-33.80 72.77,-32.10 71.31,-30.80 69.85,-29.49 68.05,-28.72 66.25,-27.95 64.30,-27.80 62.35,-27.65 60.45,-28.12 58.55,-28.60 56.90,-29.66 55.26,-30.72 54.04,-32.25 52.81,-33.78 52.14,-35.62 51.47,-37.46 51.42,-39.41 51.38,-41.37 51.96,-43.24 52.54,-45.11 53.68,-46.70 54.83,-48.28 56.42,-49.42 58.01,-50.56 59.89,-51.13 61.76,-51.70 63.72,-51.64 65.67,-51.58 67.51,-50.90 69.35,-50.22 70.87,-48.99 72.39,-47.76 73.44,-46.11 74.49,-44.46 74.96,-42.55 75.42,-40.65 75.26,-38.70 75.10,-36.75 74.32,-34.96 73.54,-33.16 72.23,-31.71 70.92,-30.25 70.92,-30.25 70.92,-30.25 67.74,-26.99 64.56,-23.72 60.34,-18.25 56.12,-12.78 53.73,-8.56 51.33,-4.34 48.86,0.08 46.38,4.51 44.19,9.04 42.00,13.56 39.97,18.33 37.94,23.09 34.29,30.64 30.64,38.19 27.06,40.67 23.49,43.14 18.97,43.27 14.46,43.40 10.28,40.10 6.10,36.79 3.26,30.82 0.41,24.85 -1.63,20.32 -3.68,15.79 -6.48,10.02 -9.27,4.25 -9.65,3.08 -10.02,1.90 -10.11,0.68 -10.19,-0.54 -9.97,-1.75 -9.76,-2.97 -9.26,-4.09 -8.77,-5.22 -8.01,-6.19 -7.26,-7.16 -6.30,-7.93 -5.34,-8.69 -4.22,-9.21 -3.10,-9.72 -1.89,-9.95 -0.68,-10.18 0.54,-10.11 1.77,-10.05 2.94,-9.69 4.12,-9.33 5.18,-8.70 6.24,-8.07 7.11,-7.21 7.99,-6.34 8.63,-5.30 9.27,-4.25 9.27,-4.25 L 9.27,-4.25 Z"></path></g></svg>