<?xml version="1.0" standalone="no"?>
<!DOCTYPE svg PUBLIC "-//W3C//DTD SVG 1.1//EN" "http://www.w3.org/Graphics/SVG/1.1/DTD/svg11.dtd">
<svg version="1.1" xmlns="http://www.w3.org/2000/svg" viewBox="0 0 96.03996069172331 99.41947353244166" width="96.03996069172331" height="99.41947353244166" filter="invert(93%) hue-rotate(180deg)"><!-- svg-source:excalidraw --><metadata></metadata><defs><style class="style-fonts">
      </style></defs><g transform="translate(10 53.08929215042656) rotate(0 38.019980345861654 -3.37955538420573)" stroke="none"><path fill="#8457bc" d="M 10.02,-2.73 Q 10.02,-2.73 11.46,2.61 12.90,7.96 14.13,12.51 15.35,17.06 17.64,21.94 19.93,26.81 15.69,25.60 11.45,24.38 13.26,19.13 15.07,13.89 18.50,9.24 21.92,4.60 26.39,-0.78 30.86,-6.17 35.31,-11.35 39.77,-16.53 43.31,-20.78 46.85,-25.02 50.25,-28.63 53.64,-32.24 57.52,-37.10 61.40,-41.96 64.52,-46.48 67.64,-51.00 69.12,-52.14 70.61,-53.27 72.37,-53.87 74.14,-54.47 76.01,-54.47 77.88,-54.48 79.65,-53.89 81.42,-53.29 82.91,-52.17 84.40,-51.04 85.45,-49.50 86.50,-47.95 87.00,-46.16 87.51,-44.36 87.41,-42.49 87.31,-40.63 86.62,-38.89 85.94,-37.16 84.73,-35.73 83.53,-34.30 81.93,-33.34 80.33,-32.37 78.51,-31.97 76.68,-31.56 74.83,-31.76 72.97,-31.96 71.27,-32.74 69.58,-33.52 68.22,-34.80 66.86,-36.08 65.98,-37.73 65.11,-39.38 64.80,-41.22 64.49,-43.06 64.79,-44.90 65.09,-46.75 65.96,-48.40 66.83,-50.05 68.19,-51.34 69.54,-52.62 71.23,-53.41 72.92,-54.20 74.78,-54.40 76.64,-54.61 78.46,-54.21 80.28,-53.81 81.89,-52.86 83.49,-51.90 84.70,-50.48 85.91,-49.05 86.61,-47.32 87.30,-45.59 87.41,-43.72 87.51,-41.86 87.01,-40.06 86.52,-38.26 85.47,-36.71 84.43,-35.16 84.43,-35.17 84.43,-35.17 83.01,-33.18 81.59,-31.20 77.99,-27.18 74.38,-23.16 68.62,-17.42 62.86,-11.67 59.48,-7.60 56.09,-3.53 52.24,1.71 48.39,6.96 44.74,12.39 41.09,17.81 38.00,22.63 34.91,27.44 30.60,33.97 26.29,40.51 22.81,43.07 19.34,45.63 14.72,45.47 10.10,45.31 5.08,41.04 0.06,36.76 -2.52,29.45 -5.10,22.14 -6.09,17.77 -7.07,13.41 -8.55,8.07 -10.02,2.73 -10.20,1.49 -10.39,0.25 -10.27,-0.99 -10.14,-2.23 -9.73,-3.42 -9.31,-4.60 -8.63,-5.65 -7.94,-6.69 -7.02,-7.55 -6.11,-8.40 -5.01,-9.01 -3.92,-9.62 -2.71,-9.95 -1.50,-10.28 -0.25,-10.31 0.99,-10.34 2.22,-10.07 3.44,-9.80 4.56,-9.25 5.69,-8.69 6.65,-7.88 7.60,-7.08 8.34,-6.06 9.08,-5.05 9.55,-3.89 10.02,-2.73 10.02,-2.73 L 10.02,-2.73 Z"></path></g></svg>