<?xml version="1.0" standalone="no"?>
<!DOCTYPE svg PUBLIC "-//W3C//DTD SVG 1.1//EN" "http://www.w3.org/Graphics/SVG/1.1/DTD/svg11.dtd">
<svg version="1.1" xmlns="http://www.w3.org/2000/svg" viewBox="0 0 88.43590789790096 92.6603627640302" width="88.43590789790096" height="92.6603627640302" filter="invert(93%) hue-rotate(180deg)"><!-- svg-source:excalidraw --><metadata></metadata><defs><style class="style-fonts">
      </style></defs><g transform="translate(10 53.08926378810156) rotate(0 34.21795394895048 -6.759082406086463)" stroke="none"><path fill="#8457bc" d="M 8.29,-3.11 Q 8.29,-3.11 10.50,2.71 12.71,8.53 14.54,12.54 16.36,16.55 29.37,-2.97 42.38,-22.49 48.14,-29.45 53.89,-36.41 57.98,-42.19 62.06,-47.97 63.28,-48.81 64.49,-49.66 65.92,-50.07 67.34,-50.48 68.82,-50.42 70.30,-50.35 71.68,-49.82 73.06,-49.29 74.20,-48.34 75.34,-47.40 76.12,-46.14 76.89,-44.88 77.23,-43.44 77.56,-41.99 77.42,-40.52 77.28,-39.05 76.67,-37.69 76.06,-36.34 75.06,-35.26 74.05,-34.17 72.75,-33.46 71.45,-32.76 69.99,-32.50 68.53,-32.24 67.07,-32.47 65.61,-32.69 64.29,-33.37 62.97,-34.05 61.94,-35.11 60.91,-36.17 60.28,-37.51 59.64,-38.85 59.46,-40.32 59.29,-41.79 59.59,-43.24 59.89,-44.69 60.64,-45.96 61.39,-47.24 62.51,-48.21 63.63,-49.18 65.00,-49.75 66.36,-50.31 67.84,-50.41 69.32,-50.50 70.75,-50.12 72.18,-49.74 73.42,-48.92 74.65,-48.11 75.56,-46.94 76.47,-45.77 76.96,-44.37 77.44,-42.97 77.46,-41.49 77.48,-40.01 77.02,-38.61 76.56,-37.20 75.68,-36.01 74.80,-34.82 74.80,-34.82 74.80,-34.82 71.05,-30.72 67.30,-26.62 62.45,-19.07 57.60,-11.51 44.18,7.83 30.76,27.18 25.54,31.74 20.33,36.29 13.33,35.67 6.33,35.05 2.67,29.26 -0.98,23.47 -2.48,19.13 -3.97,14.78 -6.13,8.94 -8.29,3.11 -8.54,2.07 -8.79,1.03 -8.79,-0.03 -8.78,-1.10 -8.53,-2.13 -8.27,-3.17 -7.77,-4.11 -7.27,-5.05 -6.56,-5.85 -5.84,-6.65 -4.96,-7.25 -4.08,-7.85 -3.08,-8.23 -2.08,-8.60 -1.02,-8.73 0.03,-8.85 1.09,-8.72 2.15,-8.59 3.14,-8.21 4.14,-7.82 5.02,-7.21 5.89,-6.60 6.60,-5.80 7.30,-5.00 7.80,-4.05 8.29,-3.10 8.29,-3.10 L 8.29,-3.11 Z"></path></g></svg>